SplineFontDB: 3.2
FontName: telugu8dot
FullName: telugu8dot
FamilyName: telugu8dot
Weight: Book
Copyright: Copyright (c) 2012 Silicon Andhra (fonts.siliconandhra.org). Copyright (c) 2011, Vernon Adams (vern@newtypography.co.uk), with Reserved Font Name Nunito
Version: 1.000
ItalicAngle: 0
UnderlinePosition: -560
UnderlineWidth: 20
Ascent: 632
Descent: 158
InvalidEm: 0
sfntRevision: 0x00010000
LayerCount: 2
Layer: 0 1 "Back" 1
Layer: 1 1 "Fore" 0
XUID: [1021 467 -1121320856 8336239]
StyleMap: 0x0040
FSType: 0
OS2Version: 4
OS2_WeightWidthSlopeOnly: 0
OS2_UseTypoMetrics: 0
CreationTime: 1418061042
ModificationTime: 1643231348
PfmFamily: 17
TTFWeight: 400
TTFWidth: 5
LineGap: 0
VLineGap: 0
Panose: 2 0 6 0 0 0 0 0 0 0
OS2TypoAscent: 1087
OS2TypoAOffset: 0
OS2TypoDescent: -475
OS2TypoDOffset: 0
OS2TypoLinegap: 0
OS2WinAscent: 1087
OS2WinAOffset: 0
OS2WinDescent: 475
OS2WinDOffset: 0
HheadAscent: 1087
HheadAOffset: 0
HheadDescent: -475
HheadDOffset: 0
OS2SubXSize: 600
OS2SubYSize: 600
OS2SubXOff: 0
OS2SubYOff: 205
OS2SupXSize: 600
OS2SupYSize: 600
OS2SupXOff: 0
OS2SupYOff: 512
OS2StrikeYSize: 39
OS2StrikeYPos: 197
OS2CapHeight: 550
OS2XHeight: 382
OS2Vendor: 'GPK '
OS2CodePages: 00000001.00000000
OS2UnicodeRanges: 80200003.00000000.00000000.00000000
Lookup: 4 0 0 "'akhn' Akhand in Telugu lookup 0" { "'akhn' Akhand in Telugu lookup 0 subtable"  } ['akhn' ('telu' <'dflt' > ) ]
Lookup: 4 0 0 "'blwf' Below Base Forms in Telugu lookup 1" { "'blwf' Below Base Forms in Telugu lookup 1 subtable"  } ['blwf' ('telu' <'dflt' > ) ]
Lookup: 4 0 0 "'psts' Post Base Substitutions in Telugu lookup 2" { "'psts' Post Base Substitutions in Telugu lookup 2 subtable"  } ['psts' ('telu' <'dflt' > ) ]
Lookup: 4 0 0 "'blwf' Below Base Forms in Telugu lookup 3" { "'blwf' Below Base Forms in Telugu lookup 3 subtable"  } ['blwf' ('telu' <'dflt' > ) ]

StartChar: exclam
Encoding: 33 33 1
Width: 305
GlyphClass: 2
Flags: W
LayerCount: 2
Fore
SplineSet
151 70 m 0,0,1
 179 70 179 70 190 48 c 0,2,3
 193 42 193 42 193 35 c 128,-1,4
 193 28 193 28 190 22 c 128,-1,5
 187 16 187 16 182 11 c 0,6,7
 171 0 171 0 156 0 c 128,-1,8
 141 0 141 0 133 3 c 128,-1,9
 125 6 125 6 120 11 c 128,-1,10
 115 16 115 16 112 22.5 c 128,-1,11
 109 29 109 29 109 35 c 128,-1,12
 109 41 109 41 112 47.5 c 128,-1,13
 115 54 115 54 120 59 c 0,14,15
 131 70 131 70 151 70 c 0,0,1
113 540 m 2,16,17
 113 555 113 555 124 563 c 128,-1,18
 135 571 135 571 149 571 c 128,-1,19
 163 571 163 571 173.5 563.5 c 128,-1,20
 184 556 184 556 184 540 c 2,21,-1
 173 169 l 2,22,23
 172 154 172 154 165 146 c 128,-1,24
 158 138 158 138 148.5 138 c 128,-1,25
 139 138 139 138 131.5 146 c 128,-1,26
 124 154 124 154 123 169 c 2,27,-1
 113 540 l 2,16,17
EndSplineSet
EndChar

StartChar: quotedbl
Encoding: 34 34 2
Width: 244
GlyphClass: 2
Flags: W
LayerCount: 2
Fore
SplineSet
141 543 m 1,0,-1
 141 545 l 2,1,2
 141 557 141 557 150.5 564 c 128,-1,3
 160 571 160 571 172 571 c 256,4,5
 184 571 184 571 194 564.5 c 128,-1,6
 204 558 204 558 204 545 c 2,7,-1
 204 543 l 1,8,-1
 193 409 l 2,9,10
 192 397 192 397 185.5 390 c 128,-1,11
 179 383 179 383 171.5 383 c 128,-1,12
 164 383 164 383 158 389.5 c 128,-1,13
 152 396 152 396 151 409 c 2,14,-1
 141 543 l 1,0,-1
38 543 m 1,15,-1
 38 545 l 2,16,17
 38 557 38 557 47.5 564 c 128,-1,18
 57 571 57 571 69 571 c 256,19,20
 81 571 81 571 91 564.5 c 128,-1,21
 101 558 101 558 101 545 c 2,22,-1
 101 543 l 1,23,-1
 90 409 l 2,24,25
 89 397 89 397 82.5 390 c 128,-1,26
 76 383 76 383 69 383 c 256,27,28
 62 383 62 383 55.5 389.5 c 128,-1,29
 49 396 49 396 48 409 c 2,30,-1
 38 543 l 1,15,-1
EndSplineSet
EndChar

StartChar: numbersign
Encoding: 35 35 3
Width: 450
GlyphClass: 2
Flags: W
LayerCount: 2
Fore
SplineSet
248.5 -13.5 m 128,-1,1
 241 -7 241 -7 241 1 c 2,2,-1
 241 11 l 1,3,-1
 265 177 l 1,4,-1
 163 177 l 1,5,-1
 137 4 l 2,6,7
 135 -8 135 -8 127 -14 c 128,-1,8
 119 -20 119 -20 109.5 -20 c 128,-1,9
 100 -20 100 -20 92.5 -13.5 c 128,-1,10
 85 -7 85 -7 85 1 c 2,11,-1
 85 11 l 1,12,-1
 110 177 l 1,13,-1
 53 177 l 2,14,15
 41 177 41 177 34.5 185 c 128,-1,16
 28 193 28 193 28 202.5 c 128,-1,17
 28 212 28 212 34 219.5 c 128,-1,18
 40 227 40 227 53 227 c 2,19,-1
 116 227 l 1,20,-1
 132 333 l 1,21,-1
 74 333 l 2,22,23
 62 333 62 333 55.5 341 c 128,-1,24
 49 349 49 349 49 358.5 c 128,-1,25
 49 368 49 368 55.5 375.5 c 128,-1,26
 62 383 62 383 74 383 c 2,27,-1
 139 383 l 1,28,-1
 162 540 l 2,29,30
 164 552 164 552 172.5 557.5 c 128,-1,31
 181 563 181 563 190.5 563 c 128,-1,32
 200 563 200 563 208 556.5 c 128,-1,33
 216 550 216 550 216 538 c 2,34,-1
 216 535 l 2,35,36
 216 534 216 534 215 533 c 2,37,-1
 193 383 l 1,38,-1
 295 383 l 1,39,-1
 318 540 l 2,40,41
 322 563 322 563 346 563 c 0,42,43
 356 563 356 563 363.5 556.5 c 128,-1,44
 371 550 371 550 371 542 c 2,45,-1
 371 533 l 1,46,-1
 349 383 l 1,47,-1
 398 383 l 2,48,49
 410 383 410 383 416.5 375.5 c 128,-1,50
 423 368 423 368 423 358 c 256,51,52
 423 348 423 348 416.5 340.5 c 128,-1,53
 410 333 410 333 398 333 c 2,54,-1
 341 333 l 1,55,-1
 326 227 l 1,56,-1
 376 227 l 2,57,58
 388 227 388 227 394.5 219 c 128,-1,59
 401 211 401 211 401 202 c 128,-1,60
 401 193 401 193 394.5 185 c 128,-1,61
 388 177 388 177 376 177 c 2,62,-1
 318 177 l 1,63,-1
 293 4 l 2,64,65
 291 -8 291 -8 283 -14 c 128,-1,66
 275 -20 275 -20 265.5 -20 c 128,-1,0
 256 -20 256 -20 248.5 -13.5 c 128,-1,1
170 227 m 1,67,-1
 272 227 l 1,68,-1
 288 333 l 1,69,-1
 186 333 l 1,70,-1
 170 227 l 1,67,-1
EndSplineSet
EndChar

StartChar: dollar
Encoding: 36 36 4
Width: 491
GlyphClass: 2
Flags: W
LayerCount: 2
Fore
SplineSet
204 -16 m 1,0,1
 150 -16 150 -16 69 11 c 0,2,3
 47 18 47 18 47 39 c 0,4,5
 47 49 47 49 53 56.5 c 128,-1,6
 59 64 59 64 67.5 64 c 128,-1,7
 76 64 76 64 85.5 60.5 c 128,-1,8
 95 57 95 57 109.5 53 c 128,-1,9
 124 49 124 49 140 46 c 0,10,11
 176 38 176 38 212.5 38 c 128,-1,12
 249 38 249 38 273 44 c 128,-1,13
 297 50 297 50 316 62 c 0,14,15
 356 88 356 88 356 132 c 0,16,17
 356 178 356 178 312 203 c 0,18,19
 279 222 279 222 238.5 234 c 128,-1,20
 198 246 198 246 170.5 255 c 128,-1,21
 143 264 143 264 118.5 275.5 c 128,-1,22
 94 287 94 287 76 304 c 0,23,24
 35 340 35 340 35 400 c 0,25,26
 35 462 35 462 86 502 c 0,27,28
 134 540 134 540 204 544 c 1,29,-1
 204 592 l 2,30,31
 204 602 204 602 211 607.5 c 128,-1,32
 218 613 218 613 226 613 c 128,-1,33
 234 613 234 613 240 608 c 128,-1,34
 246 603 246 603 246 592 c 2,35,-1
 246 544 l 1,36,37
 327 539 327 539 373 521 c 0,38,39
 384 518 384 518 389.5 510 c 128,-1,40
 395 502 395 502 395 493 c 128,-1,41
 395 484 395 484 388.5 476.5 c 128,-1,42
 382 469 382 469 374 469 c 128,-1,43
 366 469 366 469 356 471.5 c 128,-1,44
 346 474 346 474 329 477.5 c 128,-1,45
 312 481 312 481 296 484 c 0,46,47
 253 490 253 490 231.5 490 c 128,-1,48
 210 490 210 490 187.5 485 c 128,-1,49
 165 480 165 480 146 470 c 0,50,51
 105 448 105 448 105 408 c 0,52,53
 105 359 105 359 156 330 c 0,54,55
 178 317 178 317 207 307.5 c 128,-1,56
 236 298 236 298 266.5 288.5 c 128,-1,57
 297 279 297 279 326 268 c 128,-1,58
 355 257 355 257 378 240 c 0,59,60
 428 202 428 202 428 138 c 256,61,62
 428 74 428 74 374 30 c 0,63,64
 324 -9 324 -9 246 -15 c 1,65,-1
 246 -68 l 2,66,67
 246 -78 246 -78 239.5 -83.5 c 128,-1,68
 233 -89 233 -89 225 -89 c 128,-1,69
 217 -89 217 -89 210.5 -84 c 128,-1,70
 204 -79 204 -79 204 -68 c 2,71,-1
 204 -16 l 1,0,1
EndSplineSet
EndChar

StartChar: percent
Encoding: 37 37 5
Width: 794
GlyphClass: 2
Flags: W
LayerCount: 2
Fore
SplineSet
252 492 m 0,0,1
 237 501 237 501 215.5 501 c 128,-1,2
 194 501 194 501 179 491.5 c 128,-1,3
 164 482 164 482 155 467 c 0,4,5
 138 439 138 439 138 393 c 0,6,7
 138 320 138 320 179 294 c 0,8,9
 194 285 194 285 215.5 285 c 128,-1,10
 237 285 237 285 251.5 294.5 c 128,-1,11
 266 304 266 304 275 320 c 0,12,13
 292 349 292 349 292 393 c 0,14,15
 292 465 292 465 252 492 c 0,0,1
517 540 m 2,16,17
 526 554 526 554 536 554 c 128,-1,18
 546 554 546 554 552.5 548 c 128,-1,19
 559 542 559 542 559 533.5 c 128,-1,20
 559 525 559 525 555 520 c 2,21,-1
 250 -16 l 2,22,23
 244 -27 244 -27 233.5 -27 c 128,-1,24
 223 -27 223 -27 216 -21 c 128,-1,25
 209 -15 209 -15 209 -8.5 c 128,-1,26
 209 -2 209 -2 212 3 c 2,27,-1
 517 540 l 2,16,17
216 541 m 0,28,29
 248 541 248 541 272 528.5 c 128,-1,30
 296 516 296 516 312 495 c 0,31,32
 344 455 344 455 344 393 c 128,-1,33
 344 331 344 331 310 290 c 0,34,35
 275 246 275 246 215 246 c 256,36,37
 155 246 155 246 120 289 c 0,38,39
 86 330 86 330 86 393 c 128,-1,40
 86 456 86 456 120 498 c 0,41,42
 156 541 156 541 216 541 c 0,28,29
580 284 m 4,43,44
 612 284 612 284 636.5 271 c 132,-1,45
 661 258 661 258 677 238 c 4,46,47
 709 196 709 196 709 136 c 4,48,49
 709 74 709 74 674 32 c 4,50,51
 638 -12 638 -12 579 -12 c 4,52,53
 519 -12 519 -12 484 32 c 4,54,55
 450 74 450 74 450 136 c 4,56,57
 450 197 450 197 484 240 c 4,58,59
 520 284 520 284 580 284 c 4,43,44
615 234 m 4,60,61
 600 244 600 244 578.5 244 c 132,-1,62
 557 244 557 244 542.5 234.5 c 132,-1,63
 528 225 528 225 519 210 c 4,64,65
 503 182 503 182 503 136 c 4,66,67
 503 63 503 63 543 38 c 4,68,69
 558 28 558 28 579 28 c 132,-1,70
 600 28 600 28 615 37.5 c 132,-1,71
 630 47 630 47 639 62 c 4,72,73
 656 92 656 92 656 136 c 4,74,75
 656 209 656 209 615 234 c 4,60,61
EndSplineSet
EndChar

StartChar: ampersand
Encoding: 38 38 6
Width: 583
GlyphClass: 2
Flags: W
LayerCount: 2
Fore
SplineSet
429 72 m 1,0,1
 356 -11 356 -11 253 -11 c 0,2,3
 164 -11 164 -11 103 33 c 0,4,5
 40 79 40 79 40 157 c 0,6,7
 40 236 40 236 132 298 c 0,8,9
 157 316 157 316 182 334 c 1,10,11
 147 372 147 372 133 394 c 0,12,13
 106 437 106 437 106 469.5 c 128,-1,14
 106 502 106 502 117.5 522.5 c 128,-1,15
 129 543 129 543 148 556 c 0,16,17
 186 582 186 582 241 582 c 0,18,19
 297 582 297 582 334 557 c 0,20,21
 378 528 378 528 378 478 c 0,22,23
 378 414 378 414 311 358 c 0,24,25
 292 342 292 342 273 327 c 1,26,-1
 430 160 l 1,27,28
 456 214 456 214 466 294 c 0,29,30
 469 318 469 318 469.5 336 c 128,-1,31
 470 354 470 354 478.5 360 c 128,-1,32
 487 366 487 366 495 366 c 128,-1,33
 503 366 503 366 508 364 c 128,-1,34
 513 362 513 362 518 358 c 0,35,36
 528 349 528 349 528 337 c 2,37,-1
 528 334 l 2,38,39
 528 333 528 333 527 332 c 0,40,41
 525 312 525 312 522.5 285.5 c 128,-1,42
 520 259 520 259 514 230 c 0,43,44
 498 163 498 163 472 118 c 1,45,-1
 533 52 l 2,46,47
 541 42 541 42 541 33 c 128,-1,48
 541 24 541 24 538.5 18 c 128,-1,49
 536 12 536 12 531.5 7.5 c 128,-1,50
 527 3 527 3 521 0.5 c 128,-1,51
 515 -2 515 -2 509 -2 c 0,52,53
 496 -2 496 -2 486 8 c 2,54,-1
 429 72 l 1,0,1
222 292 m 1,55,56
 109 219 109 219 109 166 c 0,57,58
 109 110 109 110 152 75 c 0,59,60
 192 42 192 42 250 42 c 0,61,62
 312 42 312 42 361 82 c 0,63,64
 377 95 377 95 392 110 c 1,65,-1
 222 292 l 1,55,56
179 499.5 m 128,-1,67
 173 489 173 489 173 474.5 c 128,-1,68
 173 460 173 460 178.5 445 c 128,-1,69
 184 430 184 430 193 416 c 0,70,71
 209 391 209 391 234 366 c 1,72,73
 246 378 246 378 259.5 389.5 c 128,-1,74
 273 401 273 401 284 414 c 0,75,76
 311 444 311 444 311 474 c 0,77,78
 311 500 311 500 290 516 c 0,79,80
 270 530 270 530 249.5 530 c 128,-1,81
 229 530 229 530 216.5 526.5 c 128,-1,82
 204 523 204 523 194.5 516.5 c 128,-1,66
 185 510 185 510 179 499.5 c 128,-1,67
EndSplineSet
EndChar

StartChar: quotesingle
Encoding: 39 39 7
Width: 225
GlyphClass: 2
Flags: W
LayerCount: 2
Fore
SplineSet
81 543 m 1,0,-1
 81 545 l 2,1,2
 81 557 81 557 91 564 c 128,-1,3
 101 571 101 571 113 571 c 128,-1,4
 125 571 125 571 134.5 564.5 c 128,-1,5
 144 558 144 558 144 545 c 2,6,-1
 144 543 l 1,7,-1
 133 409 l 2,8,9
 132 397 132 397 126 390 c 128,-1,10
 120 383 120 383 112.5 383 c 128,-1,11
 105 383 105 383 99 389.5 c 128,-1,12
 93 396 93 396 92 409 c 2,13,-1
 81 543 l 1,0,-1
EndSplineSet
EndChar

StartChar: parenleft
Encoding: 40 40 8
Width: 228
GlyphClass: 2
Flags: W
LayerCount: 2
Fore
SplineSet
164 -85 m 0,0,1
 147 -85 147 -85 140 -67 c 0,2,3
 60 118 60 118 60 244 c 0,4,5
 60 350 60 350 110 482 c 0,6,7
 124 520 124 520 140 558 c 0,8,9
 148 576 148 576 160.5 576 c 128,-1,10
 173 576 173 576 180.5 569.5 c 128,-1,11
 188 563 188 563 188 556 c 0,12,13
 188 548 188 548 186 542 c 0,14,15
 127 384 127 384 127 245 c 0,16,17
 127 108 127 108 186 -52 c 0,18,19
 188 -56 188 -56 187.5 -64 c 128,-1,20
 187 -72 187 -72 180 -78.5 c 128,-1,21
 173 -85 173 -85 164 -85 c 0,0,1
EndSplineSet
EndChar

StartChar: parenright
Encoding: 41 41 9
Width: 228
GlyphClass: 2
Flags: W
LayerCount: 2
Fore
SplineSet
169 244 m 0,0,1
 169 118 169 118 89 -67 c 0,2,3
 82 -85 82 -85 65 -85 c 0,4,5
 56 -85 56 -85 48.5 -78.5 c 128,-1,6
 41 -72 41 -72 41 -64.5 c 128,-1,7
 41 -57 41 -57 56.5 -17 c 128,-1,8
 72 23 72 23 87.5 98 c 128,-1,9
 103 173 103 173 103 245 c 0,10,11
 103 381 103 381 43 542 c 0,12,13
 41 547 41 547 41 554.5 c 128,-1,14
 41 562 41 562 48.5 569 c 128,-1,15
 56 576 56 576 64 576 c 0,16,17
 81 576 81 576 89 558 c 0,18,19
 127 467 127 467 142 415 c 0,20,21
 169 317 169 317 169 244 c 0,0,1
EndSplineSet
EndChar

StartChar: asterisk
Encoding: 42 42 10
Width: 426
GlyphClass: 2
Flags: W
LayerCount: 2
Fore
SplineSet
252 439 m 1,0,-1
 346 443 l 2,1,2
 356 443 356 443 363.5 436 c 128,-1,3
 371 429 371 429 371 419 c 128,-1,4
 371 409 371 409 364 402 c 128,-1,5
 357 395 357 395 346 395 c 2,6,-1
 252 399 l 1,7,-1
 300 320 l 2,8,9
 307 303 307 303 298.5 293.5 c 128,-1,10
 290 284 290 284 281 284 c 0,11,12
 264 284 264 284 258 296 c 2,13,-1
 213 378 l 1,14,-1
 167 296 l 2,15,16
 162 287 162 287 146 284 c 0,17,18
 136 284 136 284 130 290 c 0,19,20
 122 298 122 298 122 305.5 c 128,-1,21
 122 313 122 313 125 320 c 2,22,-1
 174 399 l 1,23,-1
 80 395 l 2,24,25
 70 395 70 395 62.5 402 c 128,-1,26
 55 409 55 409 55 419 c 128,-1,27
 55 429 55 429 62 436 c 128,-1,28
 69 443 69 443 80 443 c 2,29,-1
 173 439 l 1,30,-1
 124 518 l 2,31,32
 121 524 121 524 121 531.5 c 128,-1,33
 121 539 121 539 127.5 546.5 c 128,-1,34
 134 554 134 554 143 554 c 0,35,36
 159 554 159 554 167 542 c 2,37,-1
 213 459 l 1,38,-1
 258 542 l 2,39,40
 266 554 266 554 278.5 554 c 128,-1,41
 291 554 291 554 297.5 546.5 c 128,-1,42
 304 539 304 539 304 531 c 128,-1,43
 304 523 304 523 301 518 c 2,44,-1
 252 439 l 1,0,-1
EndSplineSet
EndChar

StartChar: plus
Encoding: 43 43 11
Width: 516
GlyphClass: 2
Flags: W
LayerCount: 2
Fore
SplineSet
285 217 m 1,0,-1
 429 217 l 2,1,2
 440 217 440 217 448 210 c 128,-1,3
 456 203 456 203 456 192 c 128,-1,4
 456 181 456 181 448.5 173 c 128,-1,5
 441 165 441 165 429 165 c 2,6,-1
 285 165 l 1,7,-1
 285 27 l 2,8,9
 285 16 285 16 277 9 c 128,-1,10
 269 2 269 2 257.5 2 c 128,-1,11
 246 2 246 2 238.5 9 c 128,-1,12
 231 16 231 16 231 27 c 2,13,-1
 231 165 l 1,14,-1
 88 165 l 2,15,16
 77 165 77 165 69 173 c 128,-1,17
 61 181 61 181 61 191.5 c 128,-1,18
 61 202 61 202 68.5 209.5 c 128,-1,19
 76 217 76 217 88 217 c 2,20,-1
 231 217 l 1,21,-1
 231 356 l 2,22,23
 231 367 231 367 239 375 c 128,-1,24
 247 383 247 383 258 383 c 128,-1,25
 269 383 269 383 277 375.5 c 128,-1,26
 285 368 285 368 285 356 c 2,27,-1
 285 217 l 1,0,-1
EndSplineSet
EndChar

StartChar: comma
Encoding: 44 44 12
Width: 225
GlyphClass: 2
Flags: W
LayerCount: 2
Fore
SplineSet
96 -93 m 1,0,-1
 43 -93 l 1,1,-1
 79 71 l 1,2,-1
 155 71 l 1,3,-1
 96 -93 l 1,0,-1
EndSplineSet
EndChar

StartChar: hyphen
Encoding: 45 45 13
Width: 229
GlyphClass: 2
Flags: W
LayerCount: 2
Fore
SplineSet
40 176 m 2,0,1
 28 176 28 176 20 184 c 128,-1,2
 12 192 12 192 12 203.5 c 128,-1,3
 12 215 12 215 20 223 c 128,-1,4
 28 231 28 231 40 231 c 2,5,-1
 190 231 l 2,6,7
 202 231 202 231 210 223 c 128,-1,8
 218 215 218 215 218 203.5 c 128,-1,9
 218 192 218 192 210 184 c 128,-1,10
 202 176 202 176 190 176 c 2,11,-1
 40 176 l 2,0,1
EndSplineSet
EndChar

StartChar: period
Encoding: 46 46 14
Width: 225
GlyphClass: 2
Flags: W
LayerCount: 2
Fore
SplineSet
71 37 m 132,-1,1
 71 44 71 44 73.5 51 c 132,-1,2
 76 58 76 58 81.5 63 c 132,-1,3
 87 68 87 68 95 71.5 c 132,-1,4
 103 75 103 75 113 75 c 132,-1,5
 123 75 123 75 130.5 71.5 c 132,-1,6
 138 68 138 68 143.5 63 c 132,-1,7
 149 58 149 58 151.5 51 c 132,-1,8
 154 44 154 44 154 37 c 132,-1,9
 154 30 154 30 151.5 23.5 c 132,-1,10
 149 17 149 17 144 12 c 4,11,12
 132 0 132 0 117.5 0 c 132,-1,13
 103 0 103 0 95 3 c 132,-1,14
 87 6 87 6 81.5 11.5 c 132,-1,15
 76 17 76 17 73.5 23.5 c 132,-1,0
 71 30 71 30 71 37 c 132,-1,1
EndSplineSet
EndChar

StartChar: slash
Encoding: 47 47 15
Width: 226
GlyphClass: 2
Flags: W
LayerCount: 2
Fore
SplineSet
45 -48 m 2,0,1
 39 -68 39 -68 19 -68 c 0,2,3
 9 -68 9 -68 0.5 -61 c 128,-1,4
 -8 -54 -8 -54 -8 -46 c 128,-1,5
 -8 -38 -8 -38 -6 -32 c 2,6,-1
 181 532 l 2,7,8
 187 552 187 552 207 552 c 0,9,10
 217 552 217 552 226 545 c 128,-1,11
 235 538 235 538 235 530.5 c 128,-1,12
 235 523 235 523 233 516 c 2,13,-1
 45 -48 l 2,0,1
EndSplineSet
EndChar

StartChar: zero
Encoding: 48 48 16
Width: 450
GlyphClass: 2
Flags: W
LayerCount: 2
Fore
SplineSet
225 46 m 0,0,1
 344 46 344 46 344 272 c 0,2,3
 344 408 344 408 304 462 c 0,4,5
 275 500 275 500 225 500 c 0,6,7
 119 500 119 500 108 324 c 0,8,9
 107 300 107 300 107 273.5 c 128,-1,10
 107 247 107 247 108.5 222.5 c 128,-1,11
 110 198 110 198 114 173 c 128,-1,12
 118 148 118 148 126 125.5 c 128,-1,13
 134 103 134 103 147 86 c 0,14,15
 176 46 176 46 225 46 c 0,0,1
225 555 m 0,16,17
 415 555 415 555 415 272 c 0,18,19
 415 191 415 191 403 148 c 128,-1,20
 391 105 391 105 377 78.5 c 128,-1,21
 363 52 363 52 342 33 c 0,22,23
 297 -8 297 -8 225 -8 c 0,24,25
 121 -8 121 -8 74 78 c 0,26,27
 36 147 36 147 36 272 c 0,28,29
 36 354 36 354 47.5 398 c 128,-1,30
 59 442 59 442 73.5 468.5 c 128,-1,31
 88 495 88 495 109 514 c 0,32,33
 154 555 154 555 225 555 c 0,16,17
EndSplineSet
EndChar

StartChar: one
Encoding: 49 49 17
Width: 450
GlyphClass: 2
Flags: W
LayerCount: 2
Fore
SplineSet
127 421 m 2,0,1
 120 417 120 417 111 417 c 128,-1,2
 102 417 102 417 95 425 c 128,-1,3
 88 433 88 433 88 440 c 0,4,5
 88 454 88 454 99 463 c 2,6,-1
 229 545 l 2,7,8
 236 550 236 550 248 550 c 128,-1,9
 260 550 260 550 270 542 c 128,-1,10
 280 534 280 534 280 517 c 2,11,-1
 280 32 l 2,12,13
 280 9 280 9 259 2 c 0,14,15
 253 0 253 0 246.5 0 c 128,-1,16
 240 0 240 0 234 2 c 128,-1,17
 228 4 228 4 223 8 c 0,18,19
 213 16 213 16 213 32 c 2,20,-1
 213 477 l 1,21,-1
 127 421 l 2,0,1
EndSplineSet
EndChar

StartChar: two
Encoding: 50 50 18
Width: 450
GlyphClass: 2
Flags: W
LayerCount: 2
Fore
SplineSet
230 498 m 0,0,1
 213 498 213 498 198.5 495.5 c 128,-1,2
 184 493 184 493 171 488 c 0,3,4
 140 476 140 476 125 466 c 0,5,6
 114 460 114 460 103.5 460 c 128,-1,7
 93 460 93 460 85.5 467 c 128,-1,8
 78 474 78 474 78 483 c 128,-1,9
 78 492 78 492 85 500.5 c 128,-1,10
 92 509 92 509 104 517 c 128,-1,11
 116 525 116 525 131.5 531.5 c 128,-1,12
 147 538 147 538 164 544 c 0,13,14
 201 555 201 555 233 555 c 128,-1,15
 265 555 265 555 294.5 546.5 c 128,-1,16
 324 538 324 538 346 522 c 0,17,18
 395 486 395 486 395 425 c 0,19,20
 395 324 395 324 240 172 c 0,21,22
 210 142 210 142 177.5 109.5 c 128,-1,23
 145 77 145 77 121 56 c 1,24,-1
 368 56 l 2,25,26
 382 56 382 56 388.5 47 c 128,-1,27
 395 38 395 38 395 27.5 c 128,-1,28
 395 17 395 17 388 8.5 c 128,-1,29
 381 0 381 0 368 0 c 2,30,-1
 88 0 l 2,31,32
 64 0 64 0 52.5 10 c 128,-1,33
 41 20 41 20 41 34 c 0,34,35
 41 61 41 61 67 83 c 0,36,37
 86 100 86 100 115 131 c 128,-1,38
 144 162 144 162 172 190 c 128,-1,39
 200 218 200 218 227.5 249.5 c 128,-1,40
 255 281 255 281 277 311 c 0,41,42
 325 376 325 376 325 419 c 0,43,44
 325 457 325 457 295 478 c 0,45,46
 267 498 267 498 230 498 c 0,0,1
EndSplineSet
EndChar

StartChar: three
Encoding: 51 51 19
Width: 450
GlyphClass: 2
Flags: W
LayerCount: 2
Fore
SplineSet
203 307 m 2,0,1
 254 307 254 307 288 331 c 0,2,3
 326 358 326 358 326 404 c 0,4,5
 326 447 326 447 293 473 c 0,6,7
 263 497 263 497 217 497 c 0,8,9
 184 497 184 497 153.5 488 c 128,-1,10
 123 479 123 479 110.5 475 c 128,-1,11
 98 471 98 471 89.5 471 c 128,-1,12
 81 471 81 471 73.5 480 c 128,-1,13
 66 489 66 489 66 498 c 0,14,15
 66 519 66 519 84 526 c 0,16,17
 149 555 149 555 214 555 c 0,18,19
 292 555 292 555 341 518 c 0,20,21
 396 478 396 478 396 405 c 0,22,23
 396 358 396 358 364 324 c 0,24,25
 334 292 334 292 290 284 c 1,26,-1
 290 282 l 1,27,28
 342 272 342 272 373 234 c 0,29,30
 405 196 405 196 405 149.5 c 128,-1,31
 405 103 405 103 389.5 74 c 128,-1,32
 374 45 374 45 348 26 c 0,33,34
 301 -8 301 -8 222 -8 c 0,35,36
 176 -8 176 -8 128 7 c 0,37,38
 95 17 95 17 83.5 28.5 c 128,-1,39
 72 40 72 40 72 49.5 c 128,-1,40
 72 59 72 59 79.5 67.5 c 128,-1,41
 87 76 87 76 96 76 c 128,-1,42
 105 76 105 76 111.5 73.5 c 128,-1,43
 118 71 118 71 130.5 66 c 128,-1,44
 143 61 143 61 158 58 c 0,45,46
 194 49 194 49 220.5 49 c 128,-1,47
 247 49 247 49 268 55 c 128,-1,48
 289 61 289 61 304 73 c 0,49,50
 334 98 334 98 334 142 c 0,51,52
 334 193 334 193 296 224 c 0,53,54
 262 253 262 253 209 253 c 2,55,-1
 180 253 l 2,56,57
 167 253 167 253 160.5 261.5 c 128,-1,58
 154 270 154 270 154 280 c 256,59,60
 154 290 154 290 160.5 298 c 128,-1,61
 167 306 167 306 180 307 c 2,62,-1
 203 307 l 2,0,1
EndSplineSet
EndChar

StartChar: four
Encoding: 52 52 20
Width: 450
GlyphClass: 2
Flags: W
LayerCount: 2
Fore
SplineSet
238 519 m 2,0,1
 256 550 256 550 293 550 c 0,2,3
 325 550 325 550 337 524 c 0,4,5
 341 515 341 515 341 503 c 2,6,-1
 341 173 l 1,7,-1
 400 173 l 2,8,9
 413 173 413 173 419.5 165 c 128,-1,10
 426 157 426 157 426 147 c 256,11,12
 426 137 426 137 419.5 129.5 c 128,-1,13
 413 122 413 122 400 122 c 2,14,-1
 341 122 l 1,15,-1
 341 31 l 2,16,17
 341 17 341 17 334 11 c 0,18,19
 322 0 322 0 308 0 c 0,20,21
 287 0 287 0 277 18 c 0,22,23
 274 23 274 23 274 31 c 2,24,-1
 274 122 l 1,25,-1
 52 122 l 2,26,27
 35 122 35 122 25 133 c 128,-1,28
 15 144 15 144 15 154 c 0,29,30
 15 172 15 172 22 183 c 2,31,-1
 238 519 l 2,0,1
74 173 m 1,32,-1
 274 173 l 1,33,-1
 274 487 l 1,34,-1
 74 173 l 1,32,-1
EndSplineSet
EndChar

StartChar: five
Encoding: 53 53 21
Width: 450
GlyphClass: 2
Flags: W
LayerCount: 2
Fore
SplineSet
124 302 m 1,0,1
 174 356 174 356 247 356 c 0,2,3
 322 356 322 356 368 304 c 0,4,5
 414 253 414 253 414 176 c 0,6,7
 414 96 414 96 363 44 c 0,8,9
 313 -8 313 -8 230 -8 c 0,10,11
 132 -8 132 -8 84 46 c 0,12,13
 68 64 68 64 56 98 c 0,14,15
 54 102 54 102 54 110 c 128,-1,16
 54 118 54 118 61.5 125.5 c 128,-1,17
 69 133 69 133 78 133 c 0,18,19
 95 133 95 133 105 115 c 0,20,21
 133 46 133 46 223 46 c 0,22,23
 310 46 310 46 336 126 c 0,24,25
 343 150 343 150 343 178.5 c 128,-1,26
 343 207 343 207 336 229 c 128,-1,27
 329 251 329 251 315 268 c 0,28,29
 284 304 284 304 235 304 c 0,30,31
 199 304 199 304 168 285 c 0,32,33
 144 270 144 270 135 254 c 0,34,35
 120 227 120 227 98 227 c 0,36,37
 87 227 87 227 79 234.5 c 128,-1,38
 71 242 71 242 71 257 c 2,39,-1
 71 520 l 2,40,41
 71 550 71 550 103 550 c 2,42,-1
 360 550 l 2,43,44
 374 550 374 550 380.5 541.5 c 128,-1,45
 387 533 387 533 387 523 c 128,-1,46
 387 513 387 513 380.5 504.5 c 128,-1,47
 374 496 374 496 360 496 c 2,48,-1
 125 496 l 1,49,-1
 124 302 l 1,0,1
EndSplineSet
EndChar

StartChar: six
Encoding: 54 54 22
Width: 450
GlyphClass: 2
Flags: W
LayerCount: 2
Fore
SplineSet
174 542.5 m 128,-1,1
 209 555 209 555 266 555 c 128,-1,2
 323 555 323 555 375 527 c 0,3,4
 387 522 387 522 387 506 c 0,5,6
 387 489 387 489 372 479 c 0,7,8
 367 476 367 476 362.5 476 c 128,-1,9
 358 476 358 476 344 482 c 0,10,11
 302 499 302 499 264 499 c 128,-1,12
 226 499 226 499 201 489 c 128,-1,13
 176 479 176 479 159 462.5 c 128,-1,14
 142 446 142 446 131 424 c 128,-1,15
 120 402 120 402 114 377 c 0,16,17
 105 334 105 334 105 275 c 1,18,19
 125 316 125 316 162 336.5 c 128,-1,20
 199 357 199 357 243 357 c 128,-1,21
 287 357 287 357 318.5 344 c 128,-1,22
 350 331 350 331 372 308 c 0,23,24
 417 261 417 261 417 179 c 0,25,26
 417 95 417 95 369 44 c 0,27,28
 321 -8 321 -8 236 -8 c 0,29,30
 34 -8 34 -8 34 253 c 0,31,32
 34 438 34 438 114 508 c 0,33,0
 139 530 139 530 174 542.5 c 128,-1,1
232 46 m 0,34,35
 258 46 258 46 280 55 c 128,-1,36
 302 64 302 64 318 80 c 0,37,38
 348 113 348 113 348 176 c 0,39,40
 348 267 348 267 288 298 c 0,41,42
 268 308 268 308 238.5 308 c 128,-1,43
 209 308 209 308 185.5 298 c 128,-1,44
 162 288 162 288 146 270 c 0,45,46
 114 236 114 236 114 172 c 0,47,48
 114 116 114 116 146 82 c 0,49,50
 180 46 180 46 232 46 c 0,34,35
EndSplineSet
EndChar

StartChar: seven
Encoding: 55 55 23
Width: 450
GlyphClass: 2
Flags: W
LayerCount: 2
Fore
SplineSet
198 19 m 2,0,1
 190 0 190 0 167 0 c 0,2,3
 145 0 145 0 134 19 c 0,4,5
 130 25 130 25 130 31.5 c 128,-1,6
 130 38 130 38 134 46 c 2,7,-1
 330 494 l 1,8,-1
 68 494 l 2,9,10
 54 494 54 494 47 502.5 c 128,-1,11
 40 511 40 511 40 521.5 c 128,-1,12
 40 532 40 532 47 541 c 128,-1,13
 54 550 54 550 68 550 c 2,14,-1
 363 550 l 2,15,16
 384 550 384 550 393.5 540 c 128,-1,17
 403 530 403 530 403 516 c 128,-1,18
 403 502 403 502 397 489 c 2,19,-1
 198 19 l 2,0,1
EndSplineSet
EndChar

StartChar: eight
Encoding: 56 56 24
Width: 450
GlyphClass: 2
Flags: W
LayerCount: 2
Fore
SplineSet
151 284 m 1,0,1
 107 290 107 290 72 328 c 0,2,3
 41 364 41 364 41 405.5 c 128,-1,4
 41 447 41 447 56.5 474 c 128,-1,5
 72 501 72 501 98 519 c 0,6,7
 148 555 148 555 225 555 c 256,8,9
 302 555 302 555 354 519 c 0,10,11
 410 479 410 479 410 410 c 0,12,13
 410 345 410 345 344 302 c 0,14,15
 324 289 324 289 300 284 c 1,16,17
 355 269 355 269 386.5 233.5 c 128,-1,18
 418 198 418 198 418 145 c 0,19,20
 418 71 418 71 360 30 c 0,21,22
 306 -8 306 -8 225 -8 c 256,23,24
 144 -8 144 -8 90 30 c 0,25,26
 33 71 33 71 33 145 c 0,27,28
 33 195 33 195 64 230 c 0,29,30
 103 272 103 272 151 283 c 1,31,-1
 151 284 l 1,0,1
108 410 m 0,32,33
 108 385 108 385 116.5 368 c 128,-1,34
 125 351 125 351 141 339 c 0,35,36
 172 316 172 316 225 316 c 0,37,38
 309 316 309 316 334 368 c 0,39,40
 343 386 343 386 343 410 c 128,-1,41
 343 434 343 434 333 452.5 c 128,-1,42
 323 471 323 471 306 482 c 0,43,44
 272 504 272 504 225 504 c 0,45,46
 179 504 179 504 145 482 c 0,47,48
 108 458 108 458 108 410 c 0,32,33
103 149 m 0,49,50
 103 123 103 123 113 103 c 128,-1,51
 123 83 123 83 140 70 c 0,52,53
 171 46 171 46 225 46 c 0,54,55
 307 46 307 46 338 102 c 0,56,57
 348 122 348 122 348 148.5 c 128,-1,58
 348 175 348 175 337.5 194.5 c 128,-1,59
 327 214 327 214 310 226 c 0,60,61
 272 256 272 256 225 256 c 0,62,63
 180 256 180 256 140 226 c 0,64,65
 103 199 103 199 103 149 c 0,49,50
EndSplineSet
EndChar

StartChar: nine
Encoding: 57 57 25
Width: 450
GlyphClass: 2
Flags: W
LayerCount: 2
Fore
SplineSet
417 304 m 0,0,1
 417 -8 417 -8 194 -8 c 0,2,3
 126 -8 126 -8 76 19 c 0,4,5
 64 24 64 24 64 40 c 0,6,7
 64 60 64 60 80 68 c 0,8,9
 84 71 84 71 88 71 c 128,-1,10
 92 71 92 71 96 70 c 0,11,12
 149 49 149 49 189 49 c 128,-1,13
 229 49 229 49 253 59 c 128,-1,14
 277 69 277 69 293.5 86 c 128,-1,15
 310 103 310 103 320.5 126.5 c 128,-1,16
 331 150 331 150 337 177 c 0,17,18
 347 222 347 222 347 281 c 1,19,-1
 345 281 l 1,20,21
 318 220 318 220 248 204 c 0,22,23
 227 199 227 199 195.5 199 c 128,-1,24
 164 199 164 199 132.5 212 c 128,-1,25
 101 225 101 225 79 248 c 0,26,27
 34 295 34 295 34 373 c 0,28,29
 34 452 34 452 82 502 c 0,30,31
 133 555 133 555 214 555 c 0,32,33
 353 555 353 555 399 427 c 0,34,35
 417 377 417 377 417 304 c 0,0,1
219 501 m 0,36,37
 192 501 192 501 170.5 491.5 c 128,-1,38
 149 482 149 482 134 466 c 0,39,40
 103 431 103 431 103 377 c 256,41,42
 103 323 103 323 129 287 c 0,43,44
 157 248 157 248 212 248 c 0,45,46
 271 248 271 248 305 286 c 0,47,48
 337 322 337 322 337 380 c 0,49,50
 337 430 337 430 304 464 c 0,51,52
 270 501 270 501 219 501 c 0,36,37
EndSplineSet
EndChar

StartChar: colon
Encoding: 58 58 26
Width: 443
GlyphClass: 2
Flags: W
LayerCount: 2
Fore
SplineSet
110 0 m 2,0,1
 87 0 87 0 78 20 c 0,2,3
 75 27 75 27 75 34 c 2,4,-1
 75 518 l 2,5,6
 75 541 75 541 97 548 c 0,7,8
 103 550 103 550 113 550 c 128,-1,9
 123 550 123 550 133.5 542 c 128,-1,10
 144 534 144 534 144 518 c 2,11,-1
 144 56 l 1,12,-1
 393 56 l 2,13,14
 408 56 408 56 415 47.5 c 128,-1,15
 422 39 422 39 422 28.5 c 128,-1,16
 422 18 422 18 415 9 c 128,-1,17
 408 0 408 0 393 0 c 2,18,-1
 110 0 l 2,0,1
EndSplineSet
EndChar

StartChar: semicolon
Encoding: 59 59 27
Width: 408
GlyphClass: 2
Flags: W
LayerCount: 2
Fore
SplineSet
172 47 m 0,0,1
 273 47 273 47 273 176 c 2,2,-1
 273 518 l 2,3,4
 273 541 273 541 295 548 c 0,5,6
 301 550 301 550 308 550 c 0,7,8
 330 550 330 550 339 532 c 0,9,10
 342 526 342 526 342 518 c 2,11,-1
 342 170 l 2,12,13
 342 79 342 79 290 32 c 0,14,15
 245 -8 245 -8 172 -8 c 0,16,17
 123 -8 123 -8 84 18 c 0,18,19
 43 43 43 43 27 92 c 0,20,21
 23 101 23 101 23 111.5 c 128,-1,22
 23 122 23 122 31.5 129 c 128,-1,23
 40 136 40 136 49 136 c 0,24,25
 68 136 68 136 75 120 c 0,26,27
 100 47 100 47 172 47 c 0,0,1
EndSplineSet
EndChar

StartChar: less
Encoding: 60 60 28
Width: 616
GlyphClass: 2
Flags: W
LayerCount: 2
Fore
SplineSet
378 0 m 1,0,1
 338 -8 338 -8 308 -8 c 0,2,3
 184 -8 184 -8 116 70 c 0,4,5
 83 107 83 107 66 160 c 128,-1,6
 49 213 49 213 49 272.5 c 128,-1,7
 49 332 49 332 66 385 c 128,-1,8
 83 438 83 438 116 476 c 0,9,10
 186 555 186 555 308 555 c 0,11,12
 431 555 431 555 500 476 c 0,13,14
 566 399 566 399 566 272 c 0,15,16
 566 210 566 210 540 150 c 0,17,18
 517 98 517 98 472 55 c 1,19,-1
 559 55 l 2,20,21
 573 55 573 55 580 46.5 c 128,-1,22
 587 38 587 38 587 27.5 c 128,-1,23
 587 17 587 17 580 8.5 c 128,-1,24
 573 0 573 0 559 0 c 2,25,-1
 378 0 l 1,0,1
133.5 355 m 128,-1,27
 123 313 123 313 123 272.5 c 128,-1,28
 123 232 123 232 133.5 190 c 128,-1,29
 144 148 144 148 166.5 116 c 128,-1,30
 189 84 189 84 224 65 c 128,-1,31
 259 46 259 46 308 46 c 128,-1,32
 357 46 357 46 392 65 c 128,-1,33
 427 84 427 84 450 116 c 0,34,35
 493 176 493 176 493 271 c 0,36,37
 493 425 493 425 392 480 c 0,38,39
 357 499 357 499 308 499 c 128,-1,40
 259 499 259 499 224 480 c 128,-1,41
 189 461 189 461 166.5 429 c 128,-1,26
 144 397 144 397 133.5 355 c 128,-1,27
EndSplineSet
EndChar

StartChar: equal
Encoding: 61 61 29
Width: 792
GlyphClass: 2
Flags: W
LayerCount: 2
Fore
SplineSet
395 484 m 1,0,-1
 254 43 l 2,1,2
 248 22 248 22 231 11 c 128,-1,3
 214 0 214 0 195.5 0 c 128,-1,4
 177 0 177 0 162 10.5 c 128,-1,5
 147 21 147 21 141 43 c 2,6,-1
 17 508 l 2,7,8
 15 512 15 512 15 518 c 128,-1,9
 15 524 15 524 18.5 530.5 c 128,-1,10
 22 537 22 537 28 541 c 0,11,12
 40 550 40 550 51 550 c 0,13,14
 74 550 74 550 80 529 c 2,15,-1
 200 59 l 1,16,-1
 347 510 l 2,17,18
 352 530 352 530 366 540 c 128,-1,19
 380 550 380 550 396 550 c 0,20,21
 432 550 432 550 446 510 c 2,22,-1
 598 59 l 1,23,-1
 717 527 l 2,24,25
 723 550 723 550 746 550 c 0,26,27
 767 550 767 550 777 532 c 0,28,29
 780 527 780 527 780 523 c 0,30,31
 780 516 780 516 778 512 c 2,32,-1
 652 44 l 2,33,34
 646 23 646 23 630 10 c 0,35,36
 617 0 617 0 597.5 0 c 128,-1,37
 578 0 578 0 562 11 c 128,-1,38
 546 22 546 22 540 44 c 2,39,-1
 395 484 l 1,0,-1
EndSplineSet
EndChar

StartChar: greater
Encoding: 62 62 30
Width: 491
GlyphClass: 2
Flags: W
LayerCount: 2
Fore
SplineSet
86 16 m 2,0,1
 74 0 74 0 58 0 c 0,2,3
 39 0 39 0 29 18 c 0,4,5
 26 24 26 24 26 31 c 128,-1,6
 26 38 26 38 32 47 c 2,7,-1
 204 283 l 1,8,-1
 44 503 l 2,9,10
 39 510 39 510 39 517.5 c 128,-1,11
 39 525 39 525 42 530.5 c 128,-1,12
 45 536 45 536 50 540 c 0,13,14
 62 550 62 550 73 550 c 0,15,16
 94 550 94 550 105 534 c 2,17,-1
 250 326 l 1,18,-1
 400 534 l 2,19,20
 412 550 412 550 428 550 c 0,21,22
 448 550 448 550 456 533 c 0,23,24
 459 528 459 528 459 523 c 0,25,26
 459 515 459 515 453 505 c 2,27,-1
 288 283 l 1,28,-1
 457 49 l 2,29,30
 467 33 467 33 461.5 23.5 c 128,-1,31
 456 14 456 14 451 10 c 0,32,33
 440 0 440 0 425 0 c 128,-1,34
 410 0 410 0 398 15 c 2,35,-1
 242 238 l 1,36,-1
 86 16 l 2,0,1
EndSplineSet
EndChar

StartChar: question
Encoding: 63 63 31
Width: 443
GlyphClass: 2
Flags: W
LayerCount: 2
Fore
SplineSet
72 517 m 2,0,1
 72 532 72 532 81.5 541 c 128,-1,2
 91 550 91 550 104 550 c 2,3,-1
 376 550 l 2,4,5
 390 550 390 550 397 541.5 c 128,-1,6
 404 533 404 533 404 522 c 128,-1,7
 404 511 404 511 397 502.5 c 128,-1,8
 390 494 390 494 376 494 c 2,9,-1
 140 494 l 1,10,-1
 140 314 l 1,11,-1
 366 314 l 2,12,13
 380 314 380 314 387.5 305.5 c 128,-1,14
 395 297 395 297 395 286.5 c 128,-1,15
 395 276 395 276 387.5 267 c 128,-1,16
 380 258 380 258 366 258 c 2,17,-1
 140 258 l 1,18,-1
 140 32 l 2,19,20
 140 9 140 9 118 2 c 0,21,22
 112 0 112 0 102.5 0 c 128,-1,23
 93 0 93 0 82.5 8 c 128,-1,24
 72 16 72 16 72 32 c 2,25,-1
 72 517 l 2,0,1
EndSplineSet
EndChar

StartChar: at
Encoding: 64 64 32
Width: 631
GlyphClass: 2
Flags: W
LayerCount: 2
Fore
SplineSet
212 269.5 m 128,-1,1
 208 250 208 250 208 234.5 c 128,-1,2
 208 219 208 219 212 205.5 c 128,-1,3
 216 192 216 192 224 182 c 0,4,5
 240 160 240 160 268 160 c 0,6,7
 298 160 298 160 320 173 c 0,8,9
 357 196 357 196 369 230 c 2,10,-1
 400 326 l 2,11,12
 403 337 403 337 403 348.5 c 128,-1,13
 403 360 403 360 397 371.5 c 128,-1,14
 391 383 391 383 382 391 c 0,15,16
 361 408 361 408 339.5 408 c 128,-1,17
 318 408 318 408 301 400 c 128,-1,18
 284 392 284 392 269.5 378 c 128,-1,19
 255 364 255 364 243.5 346 c 128,-1,20
 232 328 232 328 224 308.5 c 128,-1,0
 216 289 216 289 212 269.5 c 128,-1,1
407 173 m 0,21,22
 407 154 407 154 429 154 c 128,-1,23
 451 154 451 154 472.5 170 c 128,-1,24
 494 186 494 186 510 212 c 0,25,26
 547 271 547 271 547 329.5 c 128,-1,27
 547 388 547 388 530 426.5 c 128,-1,28
 513 465 513 465 485 490 c 0,29,30
 429 540 429 540 345 540 c 0,31,32
 281 540 281 540 218 509 c 0,33,34
 117 460 117 460 85 357 c 0,35,36
 74 322 74 322 74 270.5 c 128,-1,37
 74 219 74 219 93.5 172 c 128,-1,38
 113 125 113 125 146 94 c 0,39,40
 214 32 214 32 318 32 c 0,41,42
 367 31 367 31 419 47 c 0,43,44
 424 49 424 49 431.5 49 c 128,-1,45
 439 49 439 49 444 43 c 128,-1,46
 449 37 449 37 449 30 c 0,47,48
 449 14 449 14 436 10 c 0,49,50
 372 -10 372 -10 310.5 -10 c 128,-1,51
 249 -10 249 -10 196.5 10 c 128,-1,52
 144 30 144 30 105 68 c 0,53,54
 22 149 22 149 22 285 c 0,55,56
 22 374 22 374 72 448 c 0,57,58
 114 511 114 511 192 548 c 0,59,60
 266 583 266 583 344 583 c 0,61,62
 450 583 450 583 520 524 c 0,63,64
 598 456 598 456 598 336 c 0,65,66
 598 277 598 277 568 222 c 0,67,68
 542 172 542 172 500 140 c 0,69,70
 457 108 457 108 417 108 c 0,71,72
 382 108 382 108 361 130 c 0,73,74
 354 138 354 138 351 149 c 1,75,76
 333 130 333 130 307 119.5 c 128,-1,77
 281 109 281 109 255 109 c 0,78,79
 205 109 205 109 174 144 c 0,80,81
 144 178 144 178 144 229 c 0,82,83
 144 281 144 281 168 336 c 0,84,85
 208 422 208 422 282 450 c 0,86,87
 307 460 307 460 328.5 460 c 128,-1,88
 350 460 350 460 363 457 c 128,-1,89
 376 454 376 454 388 448 c 0,90,91
 413 433 413 433 424 409 c 1,92,-1
 428 421 l 2,93,94
 431 431 431 431 439.5 436 c 128,-1,95
 448 441 448 441 457 441 c 128,-1,96
 466 441 466 441 473.5 435.5 c 128,-1,97
 481 430 481 430 481 422.5 c 128,-1,98
 481 415 481 415 479 410 c 2,99,-1
 416 215 l 2,100,101
 407 188 407 188 407 173 c 0,21,22
EndSplineSet
EndChar

StartChar: A
Encoding: 65 65 33
Width: 225
GlyphClass: 2
Flags: W
LayerCount: 2
Fore
SplineSet
71 348 m 0,0,1
 71 372 71 372 95 382 c 0,2,3
 103 386 103 386 113 386 c 128,-1,4
 123 386 123 386 130.5 382.5 c 128,-1,5
 138 379 138 379 144 374 c 0,6,7
 154 364 154 364 154 348 c 0,8,9
 154 323 154 323 130 314 c 0,10,11
 122 311 122 311 112.5 311 c 128,-1,12
 103 311 103 311 95 314 c 128,-1,13
 87 317 87 317 82 322 c 0,14,15
 71 332 71 332 71 348 c 0,0,1
71 37 m 128,-1,17
 71 44 71 44 73.5 51 c 128,-1,18
 76 58 76 58 81.5 63 c 128,-1,19
 87 68 87 68 95 71.5 c 128,-1,20
 103 75 103 75 113 75 c 128,-1,21
 123 75 123 75 130.5 71.5 c 128,-1,22
 138 68 138 68 143.5 63 c 128,-1,23
 149 58 149 58 151.5 51 c 128,-1,24
 154 44 154 44 154 37 c 128,-1,25
 154 30 154 30 151.5 23.5 c 128,-1,26
 149 17 149 17 144 12 c 0,27,28
 132 0 132 0 117.5 0 c 128,-1,29
 103 0 103 0 95 3 c 128,-1,30
 87 6 87 6 81.5 11.5 c 128,-1,31
 76 17 76 17 73.5 23.5 c 128,-1,16
 71 30 71 30 71 37 c 128,-1,17
EndSplineSet
EndChar

StartChar: B
Encoding: 66 66 34
Width: 225
GlyphClass: 2
Flags: W
LayerCount: 2
Fore
SplineSet
81 356 m 128,-1,1
 81 363 81 363 83.5 370 c 128,-1,2
 86 377 86 377 92 382 c 0,3,4
 104 393 104 393 122 393 c 0,5,6
 141 393 141 393 150 385 c 128,-1,7
 159 377 159 377 161.5 370 c 128,-1,8
 164 363 164 363 164 356 c 128,-1,9
 164 349 164 349 161.5 342 c 128,-1,10
 159 335 159 335 154 330 c 0,11,12
 140 318 140 318 122 318 c 0,13,14
 105 318 105 318 95.5 326.5 c 128,-1,15
 86 335 86 335 83.5 342 c 128,-1,0
 81 349 81 349 81 356 c 128,-1,1
110 -93 m 1,16,-1
 56 -93 l 1,17,-1
 92 71 l 1,18,-1
 168 71 l 1,19,-1
 110 -93 l 1,16,-1
EndSplineSet
EndChar

StartChar: C
Encoding: 67 67 35
Width: 516
GlyphClass: 2
Flags: W
LayerCount: 2
Fore
SplineSet
76 162 m 2,0,1
 53 172 53 172 53 191 c 0,2,3
 53 211 53 211 77 221 c 2,4,-1
 419 367 l 2,5,6
 424 369 424 369 432.5 369 c 128,-1,7
 441 369 441 369 448 361 c 128,-1,8
 455 353 455 353 455 344 c 0,9,10
 455 328 455 328 439 321 c 2,11,-1
 130 191 l 1,12,-1
 441 53 l 2,13,14
 456 46 456 46 456 34 c 128,-1,15
 456 22 456 22 449 14 c 128,-1,16
 442 6 442 6 434 6 c 128,-1,17
 426 6 426 6 420 8 c 2,18,-1
 76 162 l 2,0,1
EndSplineSet
EndChar

StartChar: D
Encoding: 68 68 36
Width: 516
GlyphClass: 2
Flags: W
LayerCount: 2
Fore
SplineSet
88 90 m 2,0,1
 77 90 77 90 69 97.5 c 128,-1,2
 61 105 61 105 61 115.5 c 128,-1,3
 61 126 61 126 68.5 134 c 128,-1,4
 76 142 76 142 88 142 c 2,5,-1
 429 142 l 2,6,7
 440 142 440 142 448 134.5 c 128,-1,8
 456 127 456 127 456 116 c 128,-1,9
 456 105 456 105 448.5 97.5 c 128,-1,10
 441 90 441 90 429 90 c 2,11,-1
 88 90 l 2,0,1
88 241 m 2,12,13
 77 241 77 241 69 249 c 128,-1,14
 61 257 61 257 61 267.5 c 128,-1,15
 61 278 61 278 68.5 285.5 c 128,-1,16
 76 293 76 293 88 293 c 2,17,-1
 429 293 l 2,18,19
 440 293 440 293 448 285.5 c 128,-1,20
 456 278 456 278 456 267.5 c 128,-1,21
 456 257 456 257 448.5 249 c 128,-1,22
 441 241 441 241 429 241 c 2,23,-1
 88 241 l 2,12,13
EndSplineSet
EndChar

StartChar: E
Encoding: 69 69 37
Width: 516
GlyphClass: 2
Flags: W
LayerCount: 2
Fore
SplineSet
441 220 m 2,0,1
 463 211 463 211 463 191 c 128,-1,2
 463 171 463 171 439 160 c 2,3,-1
 97 15 l 2,4,5
 91 13 91 13 83 13 c 128,-1,6
 75 13 75 13 68 21 c 128,-1,7
 61 29 61 29 61 38 c 0,8,9
 61 53 61 53 77 61 c 2,10,-1
 386 191 l 1,11,-1
 76 329 l 2,12,13
 61 335 61 335 61 347.5 c 128,-1,14
 61 360 61 360 67.5 368 c 128,-1,15
 74 376 74 376 82 376 c 128,-1,16
 90 376 90 376 96 373 c 2,17,-1
 441 220 l 2,0,1
EndSplineSet
EndChar

StartChar: F
Encoding: 70 70 38
Width: 398
GlyphClass: 2
Flags: W
LayerCount: 2
Fore
SplineSet
191 196 m 1,0,-1
 192 164 l 2,1,2
 192 150 192 150 182.5 143.5 c 128,-1,3
 173 137 173 137 160.5 137 c 128,-1,4
 148 137 148 137 142 142.5 c 128,-1,5
 136 148 136 148 133.5 158.5 c 128,-1,6
 131 169 131 169 131.5 185 c 128,-1,7
 132 201 132 201 132 220 c 0,8,9
 134 253 134 253 170 289 c 0,10,11
 186 305 186 305 204 321 c 128,-1,12
 222 337 222 337 238 354 c 0,13,14
 274 396 274 396 274 435 c 0,15,16
 274 482 274 482 243 506 c 0,17,18
 218 524 218 524 173 524 c 0,19,20
 123 524 123 524 86 514 c 0,21,22
 82 513 82 513 75.5 513 c 128,-1,23
 69 513 69 513 62 522 c 128,-1,24
 55 531 55 531 55 541 c 0,25,26
 55 564 55 564 79 571 c 0,27,28
 121 582 121 582 170.5 582 c 128,-1,29
 220 582 220 582 248 573.5 c 128,-1,30
 276 565 276 565 297 548 c 0,31,32
 343 509 343 509 343 440 c 0,33,34
 343 380 343 380 294 328 c 0,35,36
 268 300 268 300 242.5 276.5 c 128,-1,37
 217 253 217 253 208 243 c 0,38,39
 193 224 193 224 191 202 c 2,40,-1
 191 196 l 1,0,-1
122 34 m 128,-1,42
 122 41 122 41 125 47.5 c 128,-1,43
 128 54 128 54 133 60 c 0,44,45
 143 71 143 71 164 71 c 0,46,47
 183 71 183 71 191.5 62.5 c 128,-1,48
 200 54 200 54 202.5 47.5 c 128,-1,49
 205 41 205 41 205 34 c 128,-1,50
 205 27 205 27 202.5 20 c 128,-1,51
 200 13 200 13 194 8 c 0,52,53
 183 -4 183 -4 164 -4 c 0,54,55
 143 -4 143 -4 135.5 4.5 c 128,-1,56
 128 13 128 13 125 20 c 128,-1,41
 122 27 122 27 122 34 c 128,-1,42
EndSplineSet
EndChar

StartChar: G
Encoding: 71 71 39
Width: 518
VWidth: 1000
GlyphClass: 2
Flags: W
LayerCount: 2
Fore
SplineSet
375 351 m 1,0,-1
 81 490 l 1,1,2
 80 496 80 496 80 504 c 0,3,4
 80 521 80 521 90 531 c 128,-1,5
 100 541 100 541 116 541 c 0,6,7
 124 541 124 541 133.5 538 c 128,-1,8
 143 535 143 535 153 529 c 2,9,-1
 444 383 l 2,10,11
 448 377 448 377 450 368.5 c 128,-1,12
 452 360 452 360 452 351 c 0,13,14
 452 336 452 336 448 326.5 c 128,-1,15
 444 317 444 317 436 313 c 2,16,-1
 112 162 l 1,17,18
 96 167 96 167 88 177.5 c 128,-1,19
 80 188 80 188 80 199 c 0,20,21
 80 214 80 214 88 223.5 c 128,-1,22
 96 233 96 233 116 241 c 2,23,-1
 375 351 l 1,0,-1
431 0 m 2,24,-1
 58 0 l 1,25,26
 55 6 55 6 53 14 c 128,-1,27
 51 22 51 22 51 31 c 0,28,29
 51 48 51 48 60.5 56.5 c 128,-1,30
 70 65 70 65 86 65 c 2,31,-1
 460 65 l 1,32,33
 462 59 462 59 464 51.5 c 128,-1,34
 466 44 466 44 466 34 c 0,35,36
 466 18 466 18 457 9 c 128,-1,37
 448 0 448 0 431 0 c 2,24,-1
EndSplineSet
EndChar

StartChar: H
Encoding: 72 72 40
Width: 518
VWidth: 1000
GlyphClass: 2
Flags: W
LayerCount: 2
Fore
SplineSet
431 471 m 2,0,-1
 58 471 l 1,1,2
 55 477 55 477 53 485 c 128,-1,3
 51 493 51 493 51 502 c 0,4,5
 51 519 51 519 60.5 527.5 c 128,-1,6
 70 536 70 536 86 536 c 2,7,-1
 460 536 l 1,8,9
 462 530 462 530 464 522.5 c 128,-1,10
 466 515 466 515 466 505 c 0,11,12
 466 489 466 489 457 480 c 128,-1,13
 448 471 448 471 431 471 c 2,0,-1
431 273 m 6,14,-1
 58 273 l 5,15,16
 55 279 55 279 53 287 c 132,-1,17
 51 295 51 295 51 304 c 4,18,19
 51 321 51 321 60.5 329.5 c 132,-1,20
 70 338 70 338 86 338 c 6,21,-1
 460 338 l 5,22,23
 462 332 462 332 464 324.5 c 132,-1,24
 466 317 466 317 466 307 c 4,25,26
 466 291 466 291 457 282 c 132,-1,27
 448 273 448 273 431 273 c 6,14,-1
431 71 m 6,28,-1
 58 71 l 5,29,30
 55 77 55 77 53 84.5 c 132,-1,31
 51 92 51 92 51 102 c 4,32,33
 51 119 51 119 60.5 127.5 c 132,-1,34
 70 136 70 136 86 136 c 6,35,-1
 460 136 l 5,36,37
 462 130 462 130 464 122 c 132,-1,38
 466 114 466 114 466 105 c 4,39,40
 466 89 466 89 457 80 c 132,-1,41
 448 71 448 71 431 71 c 6,28,-1
EndSplineSet
EndChar

StartChar: I
Encoding: 73 73 41
Width: 296
GlyphClass: 2
Flags: W
LayerCount: 2
Fore
SplineSet
23 159 m 1,0,1
 72 159 72 159 129 119 c 1,2,-1
 129 483 l 1,3,-1
 162 483 l 1,4,-1
 162 119 l 1,5,6
 179 134 179 134 208 146.5 c 128,-1,7
 237 159 237 159 268 159 c 1,8,9
 182 95 182 95 145 -3 c 1,10,11
 112 92 112 92 23 159 c 1,0,1
EndSplineSet
EndChar

StartChar: J
Encoding: 74 74 42
Width: 533
GlyphClass: 2
Flags: W
LayerCount: 2
Fore
SplineSet
140 223 m 1,0,1
 181 168 181 168 181 118 c 1,2,3
 116 204 116 204 19 240 c 1,4,5
 116 276 116 276 181 362 c 1,6,7
 181 332 181 332 168.5 303 c 128,-1,8
 156 274 156 274 141 257 c 1,9,-1
 505 257 l 1,10,-1
 505 223 l 1,11,-1
 140 223 l 1,0,1
EndSplineSet
EndChar

StartChar: K
Encoding: 75 75 43
Width: 295
GlyphClass: 2
Flags: W
LayerCount: 2
Fore
SplineSet
127 361 m 1,0,1
 104 345 104 345 78.5 333 c 128,-1,2
 53 321 53 321 21 321 c 1,3,4
 110 388 110 388 143 483 c 1,5,6
 180 385 180 385 266 321 c 1,7,8
 235 321 235 321 206 333.5 c 128,-1,9
 177 346 177 346 160 360 c 1,10,-1
 160 -3 l 1,11,-1
 127 -3 l 1,12,-1
 127 361 l 1,0,1
EndSplineSet
EndChar

StartChar: L
Encoding: 76 76 44
Width: 534
GlyphClass: 2
Flags: W
LayerCount: 2
Fore
SplineSet
385 257 m 1,0,1
 345 312 345 312 345 362 c 1,2,3
 411 275 411 275 507 240 c 1,4,5
 411 205 411 205 345 118 c 1,6,7
 345 148 345 148 357.5 177 c 128,-1,8
 370 206 370 206 384 223 c 1,9,-1
 21 223 l 1,10,-1
 21 257 l 1,11,-1
 385 257 l 1,0,1
EndSplineSet
EndChar

StartChar: M
Encoding: 77 77 45
Width: 574
GlyphClass: 2
Flags: W
LayerCount: 2
Fore
SplineSet
73 26 m 6,0,1
 73 2 73 2 94 -5 c 4,2,3
 101 -7 101 -7 111 -7 c 132,-1,4
 121 -7 121 -7 131.5 1 c 132,-1,5
 142 9 142 9 142 26 c 6,6,-1
 142 350 l 6,7,8
 142 420 142 420 188 460 c 4,9,10
 227 495 227 495 287 495 c 260,11,12
 347 495 347 495 388 460 c 4,13,14
 434 421 434 421 434 350 c 6,15,-1
 434 26 l 6,16,17
 434 2 434 2 456 -5 c 4,18,19
 462 -7 462 -7 471.5 -7 c 132,-1,20
 481 -7 481 -7 491.5 1 c 132,-1,21
 502 9 502 9 502 26 c 6,22,-1
 502 352 l 6,23,24
 502 446 502 446 436 502 c 4,25,26
 379 551 379 551 287 551 c 4,27,28
 196 551 196 551 138 502 c 4,29,30
 73 446 73 446 73 352 c 6,31,-1
 73 26 l 6,0,1
EndSplineSet
EndChar

StartChar: N
Encoding: 78 78 46
Width: 405
VWidth: 1000
GlyphClass: 2
Flags: W
LayerCount: 2
Fore
SplineSet
241 205 m 1,0,-1
 163 201 l 1,1,-1
 163 525 l 2,2,3
 163 589 163 589 186 626.5 c 128,-1,4
 209 664 209 664 246 681 c 128,-1,5
 283 698 283 698 325 698 c 0,6,7
 354 698 354 698 367 688.5 c 128,-1,8
 380 679 380 679 380 661 c 0,9,10
 380 653 380 653 377.5 645 c 128,-1,11
 375 637 375 637 372 633 c 1,12,-1
 339 633 l 2,13,14
 293 633 293 633 267 608 c 128,-1,15
 241 583 241 583 241 526 c 2,16,-1
 241 205 l 1,0,-1
163 285 m 1,17,-1
 241 289 l 1,18,-1
 241 -35 l 2,19,20
 241 -97 241 -97 219.5 -135.5 c 128,-1,21
 198 -174 198 -174 161.5 -191 c 128,-1,22
 125 -208 125 -208 80 -208 c 0,23,24
 49 -208 49 -208 37 -197.5 c 128,-1,25
 25 -187 25 -187 25 -170 c 0,26,27
 25 -162 25 -162 27.5 -154.5 c 128,-1,28
 30 -147 30 -147 33 -143 c 1,29,-1
 66 -143 l 2,30,31
 112 -143 112 -143 137.5 -118 c 128,-1,32
 163 -93 163 -93 163 -36 c 2,33,-1
 163 285 l 1,17,-1
EndSplineSet
EndChar

StartChar: O
Encoding: 79 79 47
Width: 689
VWidth: 1000
GlyphClass: 2
Flags: W
LayerCount: 2
Fore
SplineSet
300 306 m 4,0,1
 300 330 300 330 314.5 346 c 132,-1,2
 329 362 329 362 355 362 c 260,3,4
 381 362 381 362 395 346 c 132,-1,5
 409 330 409 330 409 306 c 4,6,7
 409 283 409 283 395 267 c 132,-1,8
 381 251 381 251 355 251 c 260,9,10
 329 251 329 251 314.5 267 c 132,-1,11
 300 283 300 283 300 306 c 4,0,1
634 304 m 256,12,13
 634 200 634 200 596 129.5 c 128,-1,14
 558 59 558 59 492.5 23 c 128,-1,15
 427 -13 427 -13 344 -13 c 0,16,17
 262 -13 262 -13 196 23 c 128,-1,18
 130 59 130 59 92 129.5 c 128,-1,19
 54 200 54 200 54 304 c 256,20,21
 54 408 54 408 93 478.5 c 128,-1,22
 132 549 132 549 197.5 585 c 128,-1,23
 263 621 263 621 344 621 c 0,24,25
 426 621 426 621 491.5 585 c 128,-1,26
 557 549 557 549 595.5 478.5 c 128,-1,27
 634 408 634 408 634 304 c 256,12,13
551 304 m 256,28,29
 551 423 551 423 494.5 487.5 c 128,-1,30
 438 552 438 552 344 552 c 0,31,32
 251 552 251 552 194.5 487.5 c 128,-1,33
 138 423 138 423 138 304 c 256,34,35
 138 185 138 185 194 120.5 c 128,-1,36
 250 56 250 56 344 56 c 0,37,38
 439 56 439 56 495 120.5 c 128,-1,39
 551 185 551 185 551 304 c 256,28,29
EndSplineSet
EndChar

StartChar: P
Encoding: 80 80 48
Width: 518
VWidth: 1000
GlyphClass: 2
Flags: W
LayerCount: 2
Fore
SplineSet
142 352 m 1,0,-1
 436 213 l 1,1,2
 437 207 437 207 437 198 c 0,3,4
 437 182 437 182 428 172 c 128,-1,5
 419 162 419 162 402 162 c 0,6,7
 393 162 393 162 383.5 165 c 128,-1,8
 374 168 374 168 364 173 c 2,9,-1
 74 319 l 2,10,11
 70 325 70 325 67.5 333.5 c 128,-1,12
 65 342 65 342 65 352 c 0,13,14
 65 367 65 367 69 376.5 c 128,-1,15
 73 386 73 386 81 390 c 2,16,-1
 405 541 l 1,17,18
 422 536 422 536 429.5 525.5 c 128,-1,19
 437 515 437 515 437 503 c 0,20,21
 437 489 437 489 429 479 c 128,-1,22
 421 469 421 469 401 461 c 2,23,-1
 142 352 l 1,0,-1
431 0 m 2,24,-1
 58 0 l 1,25,26
 55 6 55 6 53 14 c 128,-1,27
 51 22 51 22 51 31 c 0,28,29
 51 48 51 48 60.5 56.5 c 128,-1,30
 70 65 70 65 86 65 c 2,31,-1
 460 65 l 1,32,33
 462 59 462 59 464 51.5 c 128,-1,34
 466 44 466 44 466 34 c 0,35,36
 466 18 466 18 457 9 c 128,-1,37
 448 0 448 0 431 0 c 2,24,-1
EndSplineSet
EndChar

StartChar: Q
Encoding: 81 81 49
Width: 521
VWidth: 1000
GlyphClass: 2
Flags: W
LayerCount: 2
Fore
SplineSet
361 212 m 0,0,1
 388 212 388 212 400 226.5 c 128,-1,2
 412 241 412 241 419 257 c 1,3,4
 441 257 441 257 455.5 246.5 c 128,-1,5
 470 236 470 236 470 216 c 0,6,7
 470 185 470 185 446.5 167 c 128,-1,8
 423 149 423 149 379 149 c 0,9,10
 337 149 337 149 299 159 c 128,-1,11
 261 169 261 169 230 179 c 128,-1,12
 199 189 199 189 175 189 c 0,13,14
 148 189 148 189 136.5 174.5 c 128,-1,15
 125 160 125 160 117 145 c 1,16,17
 94 145 94 145 80 155 c 128,-1,18
 66 165 66 165 66 185 c 0,19,20
 66 209 66 209 88.5 231 c 128,-1,21
 111 253 111 253 158 253 c 0,22,23
 199 253 199 253 234.5 243 c 128,-1,24
 270 233 270 233 301.5 222.5 c 128,-1,25
 333 212 333 212 361 212 c 0,0,1
359 405 m 0,26,27
 385 405 385 405 397 419 c 128,-1,28
 409 433 409 433 416 449 c 1,29,30
 438 449 438 449 452.5 438.5 c 128,-1,31
 467 428 467 428 467 408 c 0,32,33
 467 378 467 378 443.5 359 c 128,-1,34
 420 340 420 340 376 340 c 0,35,36
 334 340 334 340 298 350.5 c 128,-1,37
 262 361 262 361 231.5 371 c 128,-1,38
 201 381 201 381 172 381 c 0,39,40
 145 381 145 381 133.5 366.5 c 128,-1,41
 122 352 122 352 114 336 c 1,42,43
 91 336 91 336 77 347 c 128,-1,44
 63 358 63 358 63 378 c 0,45,46
 63 401 63 401 85.5 423 c 128,-1,47
 108 445 108 445 155 445 c 0,48,49
 196 445 196 445 231.5 435 c 128,-1,50
 267 425 267 425 299 415 c 128,-1,51
 331 405 331 405 359 405 c 0,26,27
EndSplineSet
EndChar

StartChar: R
Encoding: 82 82 50
Width: 496
GlyphClass: 2
Flags: W
LayerCount: 2
Fore
SplineSet
64 146 m 2,0,1
 36 146 36 146 36 174 c 128,-1,2
 36 202 36 202 64 202 c 2,3,-1
 433 202 l 2,4,5
 462 202 462 202 462 175 c 0,6,7
 462 146 462 146 433 146 c 2,8,-1
 64 146 l 2,0,1
204 302 m 128,-1,10
 204 342 204 342 248 342 c 128,-1,11
 292 342 292 342 292 302 c 128,-1,12
 292 262 292 262 248 262 c 128,-1,9
 204 262 204 262 204 302 c 128,-1,10
202 46 m 128,-1,14
 202 86 202 86 247 86 c 128,-1,15
 292 86 292 86 292 46 c 128,-1,16
 292 6 292 6 247 6 c 128,-1,13
 202 6 202 6 202 46 c 128,-1,14
EndSplineSet
EndChar

StartChar: S
Encoding: 83 83 51
Width: 511
VWidth: 1000
GlyphClass: 2
Flags: W
LayerCount: 2
Fore
SplineSet
144 540 m 1,0,-1
 338 243 l 2,1,2
 340 239 340 239 341.5 232 c 128,-1,3
 343 225 343 225 343 217 c 0,4,5
 343 210 343 210 341.5 203.5 c 128,-1,6
 340 197 340 197 338 192 c 2,7,-1
 144 -115 l 1,8,-1
 452 -115 l 1,9,10
 456 -120 456 -120 458.5 -128.5 c 128,-1,11
 461 -137 461 -137 461 -147 c 0,12,13
 461 -166 461 -166 452 -174 c 128,-1,14
 443 -182 443 -182 430 -182 c 2,15,-1
 87 -182 l 2,16,17
 71 -182 71 -182 60 -169.5 c 128,-1,18
 49 -157 49 -157 49 -141 c 0,19,20
 49 -129 49 -129 51 -121.5 c 128,-1,21
 53 -114 53 -114 57 -107 c 2,22,-1
 262 217 l 1,23,-1
 57 532 l 2,24,25
 53 539 53 539 51 547 c 128,-1,26
 49 555 49 555 49 566 c 0,27,28
 49 583 49 583 60 595.5 c 128,-1,29
 71 608 71 608 87 608 c 2,30,-1
 452 608 l 1,31,32
 456 603 456 603 458.5 594 c 128,-1,33
 461 585 461 585 461 576 c 0,34,35
 461 557 461 557 452 548.5 c 128,-1,36
 443 540 443 540 430 540 c 2,37,-1
 144 540 l 1,0,-1
EndSplineSet
EndChar

StartChar: T
Encoding: 84 84 52
Width: 592
VWidth: 1000
GlyphClass: 2
Flags: W
LayerCount: 2
Fore
SplineSet
592 44 m 0,0,1
 592 34 592 34 587 23 c 128,-1,2
 582 12 582 12 572.5 5 c 128,-1,3
 563 -2 563 -2 549 -2 c 2,4,-1
 66 -2 l 2,5,6
 56 1 56 1 47.5 11 c 128,-1,7
 39 21 39 21 39 37 c 0,8,9
 39 45 39 45 42.5 55 c 128,-1,10
 46 65 46 65 53 83 c 0,11,12
 74 138 74 138 100.5 203 c 128,-1,13
 127 268 127 268 155.5 337 c 128,-1,14
 184 406 184 406 212 473 c 128,-1,15
 240 540 240 540 265 597 c 1,16,17
 288 607 288 607 320 607 c 0,18,19
 334 607 334 607 350 603 c 128,-1,20
 366 599 366 599 373 585 c 0,21,22
 398 525 398 525 427 455.5 c 128,-1,23
 456 386 456 386 485.5 313.5 c 128,-1,24
 515 241 515 241 542.5 172 c 128,-1,25
 570 103 570 103 592 44 c 0,0,1
129 64 m 1,26,-1
 504 64 l 1,27,-1
 317 539 l 1,28,-1
 129 64 l 1,26,-1
EndSplineSet
EndChar

StartChar: U
Encoding: 85 85 53
Width: 574
GlyphClass: 2
Flags: W
LayerCount: 2
Fore
SplineSet
73 517 m 2,0,1
 73 541 73 541 94 548 c 0,2,3
 101 550 101 550 111 550 c 128,-1,4
 121 550 121 550 131.5 542 c 128,-1,5
 142 534 142 534 142 517 c 2,6,-1
 142 193 l 2,7,8
 142 123 142 123 188 83 c 0,9,10
 227 48 227 48 287 48 c 256,11,12
 347 48 347 48 388 83 c 0,13,14
 434 122 434 122 434 193 c 2,15,-1
 434 517 l 2,16,17
 434 541 434 541 456 548 c 0,18,19
 462 550 462 550 471.5 550 c 128,-1,20
 481 550 481 550 491.5 542 c 128,-1,21
 502 534 502 534 502 517 c 2,22,-1
 502 191 l 2,23,24
 502 97 502 97 436 41 c 0,25,26
 379 -8 379 -8 287 -8 c 0,27,28
 196 -8 196 -8 138 41 c 0,29,30
 73 97 73 97 73 191 c 2,31,-1
 73 517 l 2,0,1
EndSplineSet
EndChar

StartChar: V
Encoding: 86 86 54
Width: 469
VWidth: 1000
GlyphClass: 2
Flags: W
LayerCount: 2
Fore
SplineSet
101 225 m 1,0,-1
 239 82 l 1,1,2
 239 67 239 67 229.5 54.5 c 128,-1,3
 220 42 220 42 201 42 c 0,4,5
 188 42 188 42 177 50.5 c 128,-1,6
 166 59 166 59 156 69 c 2,7,-1
 45 192 l 2,8,9
 41 199 41 199 38 207.5 c 128,-1,10
 35 216 35 216 35 226 c 0,11,12
 35 242 35 242 39 250.5 c 128,-1,13
 43 259 43 259 50 265 c 2,14,-1
 195 416 l 1,15,16
 215 412 215 412 224.5 402.5 c 128,-1,17
 234 393 234 393 234 380 c 0,18,19
 234 368 234 368 227.5 358.5 c 128,-1,20
 221 349 221 349 207 334 c 2,21,-1
 101 225 l 1,0,-1
292 225 m 1,22,-1
 429 82 l 1,23,24
 429 67 429 67 419.5 54.5 c 128,-1,25
 410 42 410 42 392 42 c 0,26,27
 379 42 379 42 367.5 50.5 c 128,-1,28
 356 59 356 59 347 69 c 2,29,-1
 235 192 l 2,30,31
 231 199 231 199 228 207.5 c 128,-1,32
 225 216 225 216 225 226 c 0,33,34
 225 242 225 242 229 250.5 c 128,-1,35
 233 259 233 259 240 265 c 2,36,-1
 385 416 l 1,37,38
 405 412 405 412 414.5 402.5 c 128,-1,39
 424 393 424 393 424 380 c 0,40,41
 424 368 424 368 417.5 358.5 c 128,-1,42
 411 349 411 349 397 334 c 2,43,-1
 292 225 l 1,22,-1
EndSplineSet
EndChar

StartChar: W
Encoding: 87 87 55
Width: 469
VWidth: 1000
GlyphClass: 2
Flags: W
LayerCount: 2
Fore
SplineSet
367 233 m 1,0,-1
 230 376 l 1,1,2
 230 391 230 391 239.5 403.5 c 128,-1,3
 249 416 249 416 267 416 c 0,4,5
 281 416 281 416 292 408 c 128,-1,6
 303 400 303 400 312 389 c 2,7,-1
 424 266 l 2,8,9
 429 259 429 259 431.5 251 c 128,-1,10
 434 243 434 243 434 232 c 0,11,12
 434 216 434 216 430 207.5 c 128,-1,13
 426 199 426 199 419 193 c 2,14,-1
 273 42 l 1,15,16
 254 47 254 47 244.5 56 c 128,-1,17
 235 65 235 65 235 78 c 0,18,19
 235 90 235 90 241.5 99.5 c 128,-1,20
 248 109 248 109 262 124 c 2,21,-1
 367 233 l 1,0,-1
177 233 m 1,22,-1
 40 376 l 1,23,24
 40 391 40 391 49.5 403.5 c 128,-1,25
 59 416 59 416 77 416 c 0,26,27
 91 416 91 416 102 408 c 128,-1,28
 113 400 113 400 122 389 c 2,29,-1
 234 266 l 2,30,31
 239 259 239 259 241.5 251 c 128,-1,32
 244 243 244 243 244 232 c 0,33,34
 244 216 244 216 240 207.5 c 128,-1,35
 236 199 236 199 228 193 c 2,36,-1
 83 42 l 1,37,38
 64 47 64 47 54.5 56 c 128,-1,39
 45 65 45 65 45 78 c 0,40,41
 45 90 45 90 51.5 99.5 c 128,-1,42
 58 109 58 109 72 124 c 2,43,-1
 177 233 l 1,22,-1
EndSplineSet
EndChar

StartChar: X
Encoding: 88 88 56
Width: 403
GlyphClass: 2
Flags: W
LayerCount: 2
Fore
SplineSet
163 158 m 1,0,-1
 62 268 l 2,1,2
 58 272 58 272 58 279 c 0,3,4
 58 292 58 292 67.5 298 c 128,-1,5
 77 304 77 304 88.5 304 c 128,-1,6
 100 304 100 304 109 294 c 2,7,-1
 201 190 l 1,8,-1
 296 295 l 2,9,10
 303 304 303 304 313.5 304 c 128,-1,11
 324 304 324 304 332 298 c 128,-1,12
 340 292 340 292 340 284.5 c 128,-1,13
 340 277 340 277 336 272 c 2,14,-1
 234 159 l 1,15,-1
 342 41 l 2,16,17
 350 33 350 33 346 24 c 128,-1,18
 342 15 342 15 338 12 c 0,19,20
 314 -5 314 -5 296 15 c 2,21,-1
 194 130 l 1,22,-1
 94 14 l 2,23,24
 86 5 86 5 75.5 5 c 128,-1,25
 65 5 65 5 57 11.5 c 128,-1,26
 49 18 49 18 49 25 c 128,-1,27
 49 32 49 32 53 38 c 2,28,-1
 163 158 l 1,0,-1
EndSplineSet
EndChar

StartChar: Y
Encoding: 89 89 57
Width: 557
VWidth: 1000
GlyphClass: 2
Flags: W
LayerCount: 2
Fore
SplineSet
109 153 m 1,0,-1
 52 135 l 1,1,2
 41 140 41 140 34 150.5 c 128,-1,3
 27 161 27 161 27 171 c 0,4,5
 27 184 27 184 33 191 c 128,-1,6
 39 198 39 198 51 202 c 2,7,-1
 122 225 l 2,8,9
 133 228 133 228 138 228 c 0,10,11
 149 228 149 228 156 223 c 128,-1,12
 163 218 163 218 169 204 c 2,13,-1
 268 -15 l 1,14,-1
 430 669 l 1,15,16
 436 671 436 671 442.5 672.5 c 128,-1,17
 449 674 449 674 456 674 c 0,18,19
 474 674 474 674 486 665.5 c 128,-1,20
 498 657 498 657 498 639 c 0,21,22
 498 629 498 629 495 615 c 128,-1,23
 492 601 492 601 487 584 c 2,24,-1
 317 -104 l 1,25,26
 311 -109 311 -109 299.5 -113.5 c 128,-1,27
 288 -118 288 -118 275 -118 c 0,28,29
 259 -118 259 -118 247 -113 c 128,-1,30
 235 -108 235 -108 230 -99 c 2,31,-1
 109 153 l 1,0,-1
EndSplineSet
EndChar

StartChar: Z
Encoding: 90 90 58
Width: 520
VWidth: 1000
GlyphClass: 2
Flags: W
LayerCount: 2
Fore
SplineSet
156 88 m 2,0,-1
 323 559 l 1,1,2
 328 561 328 561 333.5 561.5 c 128,-1,3
 339 562 339 562 343 562 c 0,4,5
 357 562 357 562 367.5 555 c 128,-1,6
 378 548 378 548 378 534 c 0,7,8
 378 527 378 527 376.5 520 c 128,-1,9
 375 513 375 513 371 503 c 2,10,-1
 206 35 l 1,11,12
 201 34 201 34 195.5 33 c 128,-1,13
 190 32 190 32 185 32 c 0,14,15
 170 32 170 32 160.5 40 c 128,-1,16
 151 48 151 48 151 61 c 0,17,18
 151 68 151 68 152.5 74.5 c 128,-1,19
 154 81 154 81 156 88 c 2,0,-1
431 363 m 2,20,-1
 58 363 l 1,21,22
 55 369 55 369 53 377 c 128,-1,23
 51 385 51 385 51 394 c 0,24,25
 51 411 51 411 60.5 419.5 c 128,-1,26
 70 428 70 428 86 428 c 2,27,-1
 460 428 l 1,28,29
 462 422 462 422 464 414.5 c 128,-1,30
 466 407 466 407 466 397 c 0,31,32
 466 381 466 381 457 372 c 128,-1,33
 448 363 448 363 431 363 c 2,20,-1
431 161 m 2,34,-1
 58 161 l 1,35,36
 55 167 55 167 53 174.5 c 128,-1,37
 51 182 51 182 51 192 c 0,38,39
 51 209 51 209 60.5 217.5 c 128,-1,40
 70 226 70 226 86 226 c 2,41,-1
 460 226 l 1,42,43
 462 220 462 220 464 212 c 128,-1,44
 466 204 466 204 466 195 c 0,45,46
 466 179 466 179 457 170 c 128,-1,47
 448 161 448 161 431 161 c 2,34,-1
EndSplineSet
EndChar

StartChar: bracketleft
Encoding: 91 91 59
Width: 235
GlyphClass: 2
Flags: W
LayerCount: 2
Fore
SplineSet
67 519 m 2,0,1
 67 532 67 532 76 541 c 128,-1,2
 85 550 85 550 98 550 c 2,3,-1
 169 550 l 2,4,5
 181 550 181 550 187 542.5 c 128,-1,6
 193 535 193 535 193 526.5 c 128,-1,7
 193 518 193 518 187 510.5 c 128,-1,8
 181 503 181 503 169 503 c 2,9,-1
 130 503 l 1,10,-1
 130 -29 l 1,11,-1
 169 -29 l 2,12,13
 181 -29 181 -29 187 -36.5 c 128,-1,14
 193 -44 193 -44 193 -53 c 256,15,16
 193 -62 193 -62 187 -69.5 c 128,-1,17
 181 -77 181 -77 169 -77 c 2,18,-1
 98 -77 l 2,19,20
 84 -77 84 -77 75.5 -68 c 128,-1,21
 67 -59 67 -59 67 -46 c 2,22,-1
 67 519 l 2,0,1
EndSplineSet
EndChar

StartChar: backslash
Encoding: 92 92 60
Width: 226
GlyphClass: 2
Flags: W
LayerCount: 2
Fore
SplineSet
-6 543 m 2,0,1
 -8 550 -8 550 -8 557.5 c 128,-1,2
 -8 565 -8 565 0.5 571.5 c 128,-1,3
 9 578 9 578 18 578 c 0,4,5
 40 578 40 578 46 559 c 2,6,-1
 233 -5 l 2,7,8
 235 -10 235 -10 234.5 -19 c 128,-1,9
 234 -28 234 -28 226 -34.5 c 128,-1,10
 218 -41 218 -41 209 -41 c 0,11,12
 188 -41 188 -41 182 -22 c 2,13,-1
 -6 543 l 2,0,1
EndSplineSet
EndChar

StartChar: bracketright
Encoding: 93 93 61
Width: 235
GlyphClass: 2
Flags: W
LayerCount: 2
Fore
SplineSet
169 -46 m 2,0,1
 169 -59 169 -59 159.5 -68 c 128,-1,2
 150 -77 150 -77 137 -77 c 2,3,-1
 66 -77 l 2,4,5
 54 -77 54 -77 48 -69.5 c 128,-1,6
 42 -62 42 -62 42 -53 c 256,7,8
 42 -44 42 -44 48 -36.5 c 128,-1,9
 54 -29 54 -29 66 -29 c 2,10,-1
 106 -29 l 1,11,-1
 106 503 l 1,12,-1
 66 503 l 2,13,14
 54 503 54 503 48 510.5 c 128,-1,15
 42 518 42 518 42 527 c 256,16,17
 42 536 42 536 48 543 c 128,-1,18
 54 550 54 550 66 550 c 2,19,-1
 137 550 l 2,20,21
 150 550 150 550 159.5 541 c 128,-1,22
 169 532 169 532 169 519 c 2,23,-1
 169 -46 l 2,0,1
EndSplineSet
EndChar

StartChar: asciicircum
Encoding: 94 94 62
Width: 516
GlyphClass: 2
Flags: W
LayerCount: 2
Fore
SplineSet
258 476 m 1,0,-1
 123 206 l 2,1,2
 116 190 116 190 102.5 190 c 128,-1,3
 89 190 89 190 80.5 196.5 c 128,-1,4
 72 203 72 203 72 211 c 128,-1,5
 72 219 72 219 74 225 c 2,6,-1
 225 517 l 2,7,8
 236 538 236 538 258 538 c 256,9,10
 280 538 280 538 290 517 c 2,11,-1
 441 225 l 2,12,13
 443 219 443 219 443 214.5 c 128,-1,14
 443 210 443 210 440.5 205 c 128,-1,15
 438 200 438 200 434 197 c 0,16,17
 425 190 425 190 416 190 c 0,18,19
 400 190 400 190 392 206 c 2,20,-1
 258 476 l 1,0,-1
EndSplineSet
EndChar

StartChar: underscore
Encoding: 95 95 63
Width: 395
GlyphClass: 2
Flags: W
LayerCount: 2
Fore
SplineSet
0 -75 m 128,-1,1
 0 -52 0 -52 21 -52 c 2,2,-1
 372 -52 l 2,3,4
 383 -52 383 -52 389 -59 c 128,-1,5
 395 -66 395 -66 395 -74.5 c 128,-1,6
 395 -83 395 -83 389 -90.5 c 128,-1,7
 383 -98 383 -98 372 -98 c 2,8,-1
 21 -98 l 2,9,0
 0 -98 0 -98 0 -75 c 128,-1,1
EndSplineSet
EndChar

StartChar: grave
Encoding: 96 96 64
Width: 219
GlyphClass: 2
Flags: W
LayerCount: 2
Fore
SplineSet
32 527 m 2,0,1
 23 532 23 532 23 541 c 128,-1,2
 23 550 23 550 26 556 c 128,-1,3
 29 562 29 562 34 567 c 0,4,5
 45 578 45 578 54 578 c 0,6,7
 69 578 69 578 78 569 c 2,8,-1
 181 452 l 2,9,10
 186 447 186 447 186 440.5 c 128,-1,11
 186 434 186 434 182 429.5 c 128,-1,12
 178 425 178 425 171 425 c 128,-1,13
 164 425 164 425 156 432 c 2,14,-1
 32 527 l 2,0,1
EndSplineSet
EndChar

StartChar: a
Encoding: 97 97 65
Width: 402
GlyphClass: 2
Flags: W
LayerCount: 2
Fore
SplineSet
241 233 m 1,0,-1
 285 232 l 1,1,-1
 285 265 l 2,2,3
 285 343 285 343 197 343 c 0,4,5
 156 343 156 343 138 336 c 0,6,7
 117 328 117 328 98 317.5 c 128,-1,8
 79 307 79 307 70.5 307 c 128,-1,9
 62 307 62 307 55.5 313.5 c 128,-1,10
 49 320 49 320 49 329 c 256,11,12
 49 338 49 338 57 345 c 0,13,14
 105 391 105 391 199 391 c 0,15,16
 304 391 304 391 334 319 c 0,17,18
 345 294 345 294 345 260 c 2,19,-1
 344 27 l 2,20,21
 344 13 344 13 335 6.5 c 128,-1,22
 326 0 326 0 314.5 0 c 128,-1,23
 303 0 303 0 294 6.5 c 128,-1,24
 285 13 285 13 285 26 c 2,25,-1
 285 62 l 1,26,27
 261 11 261 11 198 -4 c 0,28,29
 178 -8 178 -8 154.5 -8 c 128,-1,30
 131 -8 131 -8 107 -0.5 c 128,-1,31
 83 7 83 7 65 22 c 0,32,33
 27 52 27 52 27 106 c 0,34,35
 27 233 27 233 241 233 c 1,0,-1
285 187 m 1,36,37
 268 186 268 186 246.5 186 c 128,-1,38
 225 186 225 186 203.5 185 c 128,-1,39
 182 184 182 184 161.5 180 c 128,-1,40
 141 176 141 176 125 168 c 0,41,42
 89 148 89 148 89 108 c 0,43,44
 89 76 89 76 114 56 c 0,45,46
 134 41 134 41 172 39 c 0,47,48
 218 39 218 39 250 68 c 0,49,50
 283 97 283 97 285 153 c 2,51,-1
 285 187 l 1,36,37
EndSplineSet
EndChar

StartChar: b
Encoding: 98 98 66
Width: 488
GlyphClass: 2
Flags: W
LayerCount: 2
Fore
SplineSet
213 81 m 1,0,1
 187 -6 187 -6 107 -6 c 0,2,3
 63 -6 63 -6 31.5 29 c 128,-1,4
 0 64 0 64 0 102.5 c 128,-1,5
 0 141 0 141 19.5 169.5 c 128,-1,6
 39 198 39 198 73 206 c 128,-1,7
 107 214 107 214 144 223 c 0,8,9
 186 236 186 236 186 269.5 c 128,-1,10
 186 303 186 303 169.5 317.5 c 128,-1,11
 153 332 153 332 127 332 c 256,12,13
 101 332 101 332 82 314.5 c 128,-1,14
 63 297 63 297 63 269 c 0,15,16
 63 259 63 259 55 251.5 c 128,-1,17
 47 244 47 244 34.5 244 c 128,-1,18
 22 244 22 244 15 254.5 c 128,-1,19
 8 265 8 265 8 277 c 0,20,21
 8 321 8 321 39 343 c 128,-1,22
 70 365 70 365 117 365 c 128,-1,23
 164 365 164 365 189 340 c 128,-1,24
 214 315 214 315 214 275 c 0,25,26
 214 204 214 204 131 186.5 c 128,-1,27
 48 169 48 169 48 124 c 0,28,29
 48 53 48 53 111 53 c 0,30,31
 164 53 164 53 186.5 100 c 128,-1,32
 209 147 209 147 213 147 c 256,33,34
 217 147 217 147 235.5 99.5 c 128,-1,35
 254 52 254 52 300 52 c 128,-1,36
 346 52 346 52 370.5 86.5 c 128,-1,37
 395 121 395 121 395 184.5 c 128,-1,38
 395 248 395 248 361 281 c 0,39,40
 335 310 335 310 297 310 c 2,41,-1
 283 310 l 2,42,43
 258 310 258 310 248.5 314 c 128,-1,44
 239 318 239 318 239 337 c 256,45,46
 239 356 239 356 249.5 362.5 c 128,-1,47
 260 369 260 369 287 369 c 0,48,49
 354 369 354 369 390.5 311.5 c 128,-1,50
 427 254 427 254 427 165 c 0,51,52
 427 102 427 102 392 48 c 128,-1,53
 357 -6 357 -6 297 -6 c 0,54,55
 266 -6 266 -6 241.5 16 c 128,-1,56
 217 38 217 38 213 81 c 1,0,1
EndSplineSet
EndChar

StartChar: c
Encoding: 99 99 67
Width: 511
GlyphClass: 2
Flags: W
LayerCount: 2
Fore
SplineSet
237 59 m 1,0,1
 205 -6 205 -6 140 -6 c 0,2,3
 100 -6 100 -6 72 24 c 128,-1,4
 44 54 44 54 44 98 c 0,5,6
 44 166 44 166 112 197 c 1,7,-1
 40 195 l 2,8,9
 20 195 20 195 10 199.5 c 128,-1,10
 0 204 0 204 0 221.5 c 128,-1,11
 0 239 0 239 8 247 c 128,-1,12
 16 255 16 255 28 255 c 256,13,14
 40 255 40 255 57 250 c 0,15,16
 87 240 87 240 128 229 c 0,17,18
 158 220 158 220 158 205 c 0,19,20
 158 199 158 199 146 195 c 0,21,22
 123 183 123 183 119 179 c 0,23,24
 106 169 106 169 95 149.5 c 128,-1,25
 84 130 84 130 84 116 c 0,26,27
 84 87 84 87 102 69.5 c 128,-1,28
 120 52 120 52 157 52 c 128,-1,29
 194 52 194 52 212 77 c 1,30,31
 226 105 226 105 240 130 c 1,32,33
 249 130 249 130 253.5 116 c 128,-1,34
 258 102 258 102 260 94 c 0,35,36
 266 80 266 80 283 67.5 c 128,-1,37
 300 55 300 55 319 55 c 0,38,39
 359 55 359 55 384.5 85 c 128,-1,40
 410 115 410 115 410 166 c 0,41,42
 410 241 410 241 368.5 289 c 128,-1,43
 327 337 327 337 262 337 c 2,44,-1
 219 337 l 1,45,46
 211 343 211 343 138 386 c 0,47,48
 102 407 102 407 102 423.5 c 128,-1,49
 102 440 102 440 113.5 452.5 c 128,-1,50
 125 465 125 465 142 465 c 0,51,52
 151 465 151 465 177 427.5 c 128,-1,53
 203 390 203 390 218 370 c 1,54,55
 259 409 259 409 334.5 487.5 c 128,-1,56
 410 566 410 566 415 567 c 0,57,58
 429 572 429 572 438 558 c 128,-1,59
 447 544 447 544 447 530 c 0,60,61
 447 523 447 523 381.5 470.5 c 128,-1,62
 316 418 316 418 250 365 c 1,63,64
 354 365 354 365 400 294 c 0,65,66
 440 235 440 235 440 139 c 0,67,68
 440 81 440 81 409.5 37.5 c 128,-1,69
 379 -6 379 -6 317 -6 c 0,70,71
 291 -6 291 -6 269.5 11 c 128,-1,72
 248 28 248 28 237 59 c 1,0,1
EndSplineSet
EndChar

StartChar: d
Encoding: 100 100 68
Width: 467
GlyphClass: 2
Flags: W
LayerCount: 2
Fore
SplineSet
207 89 m 1,0,1
 181 -6 181 -6 113 -6 c 0,2,3
 60 -6 60 -6 30 40 c 128,-1,4
 0 86 0 86 0 156 c 128,-1,5
 0 226 0 226 35.5 279 c 128,-1,6
 71 332 71 332 139 356 c 1,7,8
 105 373 105 373 75 391 c 0,9,10
 52 406 52 406 52 421 c 128,-1,11
 52 436 52 436 65 448.5 c 128,-1,12
 78 461 78 461 95 461 c 0,13,14
 102 461 102 461 114 445 c 0,15,16
 140 408 140 408 171 367 c 1,17,18
 184 380 184 380 332 524 c 0,19,20
 375 566 375 566 380 566 c 0,21,22
 392 566 392 566 401 555 c 128,-1,23
 410 544 410 544 410 531 c 0,24,25
 410 524 410 524 343 471.5 c 128,-1,26
 276 419 276 419 206 365 c 1,27,28
 266 365 266 365 311.5 345 c 128,-1,29
 357 325 357 325 357 296 c 0,30,31
 357 277 357 277 335 277 c 1,32,33
 309 299 309 299 280.5 318 c 128,-1,34
 252 337 252 337 206 337 c 0,35,36
 140 337 140 337 96 295 c 0,37,38
 43 249 43 249 43 166 c 0,39,40
 43 119 43 119 63 87.5 c 128,-1,41
 83 56 83 56 123 56 c 0,42,43
 172 56 172 56 186 102.5 c 128,-1,44
 200 149 200 149 206 149 c 0,45,46
 210 149 210 149 228.5 102 c 128,-1,47
 247 55 247 55 300 55 c 0,48,49
 331 55 331 55 351.5 70 c 128,-1,50
 372 85 372 85 372 112 c 0,51,52
 372 151 372 151 334 151 c 0,53,54
 314 151 314 151 314 169.5 c 128,-1,55
 314 188 314 188 334 188 c 0,56,57
 364 188 364 188 386.5 164 c 128,-1,58
 409 140 409 140 409 95.5 c 128,-1,59
 409 51 409 51 382 21.5 c 128,-1,60
 355 -8 355 -8 313.5 -8 c 128,-1,61
 272 -8 272 -8 243 15.5 c 128,-1,62
 214 39 214 39 207 89 c 1,0,1
EndSplineSet
EndChar

StartChar: e
Encoding: 101 101 69
Width: 436
GlyphClass: 2
Flags: W
LayerCount: 2
Fore
SplineSet
402 203 m 0,0,1
 402 194 402 194 396 187.5 c 128,-1,2
 390 181 390 181 377 181 c 2,3,-1
 101 181 l 1,4,5
 103 107 103 107 140 74 c 0,6,7
 179 39 179 39 230 39 c 0,8,9
 284 39 284 39 345 79 c 0,10,11
 353 85 353 85 361.5 85 c 128,-1,12
 370 85 370 85 375 79 c 128,-1,13
 380 73 380 73 380 67 c 0,14,15
 380 55 380 55 372 47 c 0,16,17
 313 -8 313 -8 225 -8 c 0,18,19
 143 -8 143 -8 92 45 c 0,20,21
 36 102 36 102 36 191 c 0,22,23
 36 274 36 274 83 330 c 0,24,25
 134 391 134 391 219 391 c 0,26,27
 308 391 308 391 356 337 c 0,28,29
 400 287 400 287 402 203 c 0,0,1
341 221 m 1,30,31
 337 277 337 277 307 310 c 256,32,33
 277 343 277 343 220 343 c 0,34,35
 170 343 170 343 138 307 c 0,36,37
 107 272 107 272 103 221 c 1,38,-1
 341 221 l 1,30,31
EndSplineSet
EndChar

StartChar: f
Encoding: 102 102 70
Width: 486
GlyphClass: 2
Flags: W
LayerCount: 2
Fore
SplineSet
169 345 m 4,0,1
 169 369 169 369 183.5 385 c 132,-1,2
 198 401 198 401 224 401 c 260,3,4
 250 401 250 401 264 385 c 132,-1,5
 278 369 278 369 278 345 c 4,6,7
 278 322 278 322 264 306 c 132,-1,8
 250 290 250 290 224 290 c 260,9,10
 198 290 198 290 183.5 306 c 132,-1,11
 169 322 169 322 169 345 c 4,0,1
EndSplineSet
EndChar

StartChar: g
Encoding: 103 103 71
Width: 460
GlyphClass: 2
Flags: W
LayerCount: 2
Fore
SplineSet
40 -6 m 0,0,1
 0 -6 0 -6 0 81 c 128,-1,2
 0 168 0 168 33 242 c 0,3,4
 71 328 71 328 139 356 c 1,5,6
 103 376 103 376 70 395 c 0,7,8
 43 412 43 412 43 427.5 c 128,-1,9
 43 443 43 443 55 455 c 128,-1,10
 67 467 67 467 85 467 c 0,11,12
 95 467 95 467 116.5 434 c 128,-1,13
 138 401 138 401 160 374 c 1,14,15
 187 400 187 400 292 504 c 0,16,17
 364 574 364 574 370 574 c 0,18,19
 383 574 383 574 391.5 563 c 128,-1,20
 400 552 400 552 400 537 c 0,21,22
 400 531 400 531 329.5 475.5 c 128,-1,23
 259 420 259 420 188 365 c 1,24,25
 280 365 280 365 331 267 c 0,26,27
 373 184 373 184 373 89 c 128,-1,28
 373 -6 373 -6 338 -6 c 0,29,30
 322 -6 322 -6 313 3 c 128,-1,31
 304 12 304 12 304 23 c 0,32,33
 321 84 321 84 321 128 c 0,34,35
 321 198 321 198 290 261 c 0,36,37
 251 337 251 337 189 337 c 256,38,39
 127 337 127 337 90.5 272 c 128,-1,40
 54 207 54 207 54 126 c 0,41,42
 54 77 54 77 69 23 c 0,43,44
 69 11 69 11 60.5 2.5 c 128,-1,45
 52 -6 52 -6 40 -6 c 0,0,1
EndSplineSet
EndChar

StartChar: h
Encoding: 104 104 72
Width: 446
GlyphClass: 2
Flags: W
LayerCount: 2
Fore
SplineSet
325 249 m 2,0,1
 325 319 325 319 270 338 c 0,2,3
 254 343 254 343 233.5 343 c 128,-1,4
 213 343 213 343 192 335.5 c 128,-1,5
 171 328 171 328 156 313 c 0,6,7
 122 281 122 281 122 222 c 2,8,-1
 122 29 l 2,9,10
 122 14 122 14 112 7 c 128,-1,11
 102 0 102 0 90 0 c 256,12,13
 78 0 78 0 69 7.5 c 128,-1,14
 60 15 60 15 60 29 c 2,15,-1
 60 522 l 2,16,17
 60 536 60 536 69.5 543 c 128,-1,18
 79 550 79 550 91 550 c 256,19,20
 103 550 103 550 112.5 543 c 128,-1,21
 122 536 122 536 122 522 c 2,22,-1
 122 318 l 1,23,24
 145 369 145 369 210 386 c 0,25,26
 230 391 230 391 254 391 c 128,-1,27
 278 391 278 391 302.5 383 c 128,-1,28
 327 375 327 375 346 357 c 0,29,30
 387 318 387 318 387 244 c 2,31,-1
 387 29 l 2,32,33
 387 14 387 14 377 7 c 128,-1,34
 367 0 367 0 355.5 0 c 128,-1,35
 344 0 344 0 334.5 7.5 c 128,-1,36
 325 15 325 15 325 29 c 2,37,-1
 325 249 l 2,0,1
EndSplineSet
EndChar

StartChar: i
Encoding: 105 105 73
Width: 182
GlyphClass: 2
Flags: W
LayerCount: 2
Fore
SplineSet
133 515 m 256,0,1
 133 501 133 501 122 490.5 c 128,-1,2
 111 480 111 480 91 480 c 128,-1,3
 71 480 71 480 60 490.5 c 128,-1,4
 49 501 49 501 49 515 c 256,5,6
 49 529 49 529 60 540 c 128,-1,7
 71 551 71 551 91 551 c 128,-1,8
 111 551 111 551 122 540 c 128,-1,9
 133 529 133 529 133 515 c 256,0,1
61 351 m 2,10,11
 61 366 61 366 70.5 374 c 128,-1,12
 80 382 80 382 89 382 c 128,-1,13
 98 382 98 382 103 380 c 128,-1,14
 108 378 108 378 112 374 c 0,15,16
 122 367 122 367 122 351 c 2,17,-1
 122 31 l 2,18,19
 122 16 122 16 112 8 c 128,-1,20
 102 0 102 0 90.5 0 c 128,-1,21
 79 0 79 0 70 7.5 c 128,-1,22
 61 15 61 15 61 31 c 2,23,-1
 61 351 l 2,10,11
EndSplineSet
EndChar

StartChar: j
Encoding: 106 106 74
Width: 741
GlyphClass: 2
Flags: W
LayerCount: 2
Fore
SplineSet
628.5 242 m 128,-1,1
 649 259 649 259 649 284.5 c 128,-1,2
 649 310 649 310 629 326.5 c 128,-1,3
 609 343 609 343 581.5 343 c 128,-1,4
 554 343 554 343 536 327.5 c 128,-1,5
 518 312 518 312 518 285 c 128,-1,6
 518 258 518 258 537.5 241.5 c 128,-1,7
 557 225 557 225 582.5 225 c 128,-1,0
 608 225 608 225 628.5 242 c 128,-1,1
150.5 70 m 128,-1,9
 171 89 171 89 171 117.5 c 128,-1,10
 171 146 171 146 151 168 c 128,-1,11
 131 190 131 190 104 190 c 128,-1,12
 77 190 77 190 57.5 168.5 c 128,-1,13
 38 147 38 147 38 119 c 128,-1,14
 38 91 38 91 57.5 71 c 128,-1,15
 77 51 77 51 103.5 51 c 128,-1,8
 130 51 130 51 150.5 70 c 128,-1,9
201 73 m 1,16,17
 172 -6 172 -6 99 -6 c 0,18,19
 55 -6 55 -6 27.5 28.5 c 128,-1,20
 0 63 0 63 0 108 c 128,-1,21
 0 153 0 153 28.5 183 c 128,-1,22
 57 213 57 213 99.5 213 c 128,-1,23
 142 213 142 213 167 194 c 0,24,25
 192 177 192 177 212 109 c 1,26,27
 224 85 224 85 248 70 c 128,-1,28
 272 55 272 55 310.5 55 c 128,-1,29
 349 55 349 55 377.5 87 c 128,-1,30
 406 119 406 119 406 175.5 c 128,-1,31
 406 232 406 232 373 275.5 c 128,-1,32
 340 319 340 319 281 337 c 1,33,34
 256 337 256 337 256 363 c 128,-1,35
 256 389 256 389 281 389 c 2,36,-1
 580 389 l 2,37,38
 618 389 618 389 649 359 c 128,-1,39
 680 329 680 329 680 281.5 c 128,-1,40
 680 234 680 234 652.5 203.5 c 128,-1,41
 625 173 625 173 584.5 173 c 128,-1,42
 544 173 544 173 515 202 c 128,-1,43
 486 231 486 231 486 269.5 c 128,-1,44
 486 308 486 308 510 337 c 1,45,-1
 354 337 l 1,46,47
 434 273 434 273 434 144 c 0,48,49
 434 79 434 79 399 36.5 c 128,-1,50
 364 -6 364 -6 310 -6 c 0,51,52
 244 -6 244 -6 201 73 c 1,16,17
356 530 m 0,53,54
 356 522 356 522 247.5 437.5 c 128,-1,55
 139 353 139 353 119 333 c 1,56,57
 71 361 71 361 22 391 c 0,58,59
 2 405 2 405 2 420.5 c 128,-1,60
 2 436 2 436 13.5 447.5 c 128,-1,61
 25 459 25 459 41 459 c 0,62,63
 52 459 52 459 79 420 c 0,64,65
 103 383 103 383 117 365 c 1,66,67
 143 391 143 391 250 497 c 0,68,69
 321 565 321 565 328 565 c 0,70,71
 342 565 342 565 349 554 c 128,-1,72
 356 543 356 543 356 530 c 0,53,54
EndSplineSet
EndChar

StartChar: k
Encoding: 107 107 75
Width: 424
GlyphClass: 2
Flags: W
LayerCount: 2
Fore
SplineSet
145 364 m 1,0,-1
 176 365 l 2,1,2
 237 365 237 365 282.5 345 c 128,-1,3
 328 325 328 325 328 289 c 0,4,5
 328 263 328 263 302 263 c 0,6,7
 291 263 291 263 260.5 299 c 128,-1,8
 230 335 230 335 170 335 c 0,9,10
 125 335 125 335 91 320 c 0,11,12
 46 301 46 301 46 268.5 c 128,-1,13
 46 236 46 236 87 223 c 0,14,15
 118 214 118 214 170 214 c 0,16,17
 262 214 262 214 298 196 c 0,18,19
 346 173 346 173 346 111 c 128,-1,20
 346 49 346 49 291 21 c 0,21,22
 245 -6 245 -6 173 -6 c 128,-1,23
 101 -6 101 -6 50.5 25.5 c 128,-1,24
 0 57 0 57 0 109 c 0,25,26
 0 133 0 133 23 133 c 0,27,28
 27 133 27 133 56.5 94.5 c 128,-1,29
 86 56 86 56 170 56 c 0,30,31
 226 56 226 56 263 71.5 c 128,-1,32
 300 87 300 87 300 123 c 128,-1,33
 300 159 300 159 254 170 c 0,34,35
 227 177 227 177 162 177 c 128,-1,36
 97 177 97 177 66 188 c 0,37,38
 11 206 11 206 11 263 c 0,39,40
 11 332 11 332 96 356 c 1,41,42
 59 378 59 378 27 396 c 0,43,44
 0 413 0 413 0 428 c 256,45,46
 0 443 0 443 13.5 455 c 128,-1,47
 27 467 27 467 39 467 c 128,-1,48
 51 467 51 467 70 441 c 0,49,50
 115 379 115 379 119 374 c 1,51,52
 159 412 159 412 234.5 491 c 128,-1,53
 310 570 310 570 315 571 c 0,54,55
 327 575 327 575 337 562 c 128,-1,56
 347 549 347 549 347 533 c 0,57,58
 347 526 347 526 280 472 c 128,-1,59
 213 418 213 418 145 364 c 1,0,-1
EndSplineSet
EndChar

StartChar: l
Encoding: 108 108 76
Width: 486
GlyphClass: 2
Flags: W
LayerCount: 2
Fore
SplineSet
371 275.5 m 128,-1,1
 347 306 347 306 312.5 306 c 128,-1,2
 278 306 278 306 278 337 c 0,3,4
 278 366 278 366 309 366 c 0,5,6
 358 366 358 366 390.5 313 c 128,-1,7
 423 260 423 260 423 184 c 128,-1,8
 423 108 423 108 367.5 51 c 128,-1,9
 312 -6 312 -6 214.5 -6 c 128,-1,10
 117 -6 117 -6 58.5 49 c 128,-1,11
 0 104 0 104 0 192 c 0,12,13
 0 260 0 260 29 306 c 0,14,15
 63 365 63 365 129 365 c 0,16,17
 163 365 163 365 187 342 c 128,-1,18
 211 319 211 319 211 279.5 c 128,-1,19
 211 240 211 240 187 217.5 c 128,-1,20
 163 195 163 195 130 195 c 128,-1,21
 97 195 97 195 76 216 c 128,-1,22
 55 237 55 237 55 278 c 1,23,24
 41 262 41 262 38 246 c 128,-1,25
 35 230 35 230 35 208 c 0,26,27
 35 139 35 139 81.5 97 c 128,-1,28
 128 55 128 55 205 55 c 128,-1,29
 282 55 282 55 335 89 c 0,30,31
 395 129 395 129 395 198 c 0,32,0
 395 245 395 245 371 275.5 c 128,-1,1
163 242.5 m 128,-1,34
 177 258 177 258 177 278 c 128,-1,35
 177 298 177 298 163.5 313 c 128,-1,36
 150 328 150 328 130 328 c 128,-1,37
 110 328 110 328 94.5 313 c 128,-1,38
 79 298 79 298 79 278.5 c 128,-1,39
 79 259 79 259 94.5 243 c 128,-1,40
 110 227 110 227 129.5 227 c 128,-1,33
 149 227 149 227 163 242.5 c 128,-1,34
EndSplineSet
EndChar

StartChar: m
Encoding: 109 109 77
Width: 706
GlyphClass: 2
Flags: W
LayerCount: 2
Fore
SplineSet
151.5 70 m 128,-1,1
 172 90 172 90 172 118.5 c 128,-1,2
 172 147 172 147 151.5 168.5 c 128,-1,3
 131 190 131 190 104 190 c 128,-1,4
 77 190 77 190 57.5 168.5 c 128,-1,5
 38 147 38 147 38 118.5 c 128,-1,6
 38 90 38 90 57.5 70 c 128,-1,7
 77 50 77 50 104 50 c 128,-1,0
 131 50 131 50 151.5 70 c 128,-1,1
410 68 m 1,8,9
 375 -6 375 -6 311 -6 c 128,-1,10
 247 -6 247 -6 201 72 c 1,11,12
 190 34 190 34 164.5 14 c 128,-1,13
 139 -6 139 -6 97 -6 c 128,-1,14
 55 -6 55 -6 27.5 27 c 128,-1,15
 0 60 0 60 0 107.5 c 128,-1,16
 0 155 0 155 28 185.5 c 128,-1,17
 56 216 56 216 105 216 c 0,18,19
 136 216 136 216 157 202 c 0,20,21
 179 189 179 189 187 167 c 0,22,23
 204 130 204 130 223 94 c 1,24,25
 250 55 250 55 295 55 c 128,-1,26
 340 55 340 55 364.5 84 c 128,-1,27
 389 113 389 113 389 171 c 0,28,29
 389 249 389 249 341.5 293 c 128,-1,30
 294 337 294 337 225 337 c 2,31,-1
 132 337 l 1,32,33
 83 363 83 363 60 376 c 0,34,35
 19 401 19 401 19 418 c 0,36,37
 19 455 19 455 64 455 c 0,38,39
 74 455 74 455 90 431 c 0,40,41
 119 384 119 384 135 364 c 1,42,43
 150 378 150 378 293 521 c 0,44,45
 337 564 337 564 344 564 c 0,46,47
 356 564 356 564 365.5 554 c 128,-1,48
 375 544 375 544 375 528 c 0,49,50
 375 518 375 518 262 435 c 0,51,52
 202 390 202 390 179 365 c 1,53,-1
 241 365 l 2,54,55
 325 365 325 365 374.5 308 c 128,-1,56
 424 251 424 251 424 146 c 1,57,-1
 423 123 l 1,58,59
 435 54 435 54 495 54 c 0,60,61
 543 54 543 54 577 92 c 128,-1,62
 611 130 611 130 611 181 c 128,-1,63
 611 232 611 232 585 270 c 128,-1,64
 559 308 559 308 514 308 c 2,65,-1
 486 308 l 2,66,67
 456 308 456 308 456 335 c 0,68,69
 456 349 456 349 459 354 c 0,70,71
 467 366 467 366 501 366 c 0,72,73
 569 366 569 366 607 310 c 0,74,75
 643 254 643 254 643 161 c 0,76,77
 643 103 643 103 608 53 c 0,78,79
 570 -6 570 -6 505 -6 c 128,-1,80
 440 -6 440 -6 410 68 c 1,8,9
EndSplineSet
EndChar

StartChar: n
Encoding: 110 110 78
Width: 474
GlyphClass: 2
Flags: W
LayerCount: 2
Fore
SplineSet
408 137 m 0,0,1
 408 81 408 81 376.5 37.5 c 128,-1,2
 345 -6 345 -6 298 -6 c 0,3,4
 222 -6 222 -6 176 89 c 128,-1,5
 130 184 130 184 94 184 c 0,6,7
 71 184 71 184 55.5 170 c 128,-1,8
 40 156 40 156 40 126.5 c 128,-1,9
 40 97 40 97 67.5 68 c 128,-1,10
 95 39 95 39 95 22 c 0,11,12
 95 14 95 14 87.5 5 c 128,-1,13
 80 -4 80 -4 67 -4 c 0,14,15
 40 -4 40 -4 20 33 c 128,-1,16
 0 70 0 70 0 112 c 128,-1,17
 0 154 0 154 26 184.5 c 128,-1,18
 52 215 52 215 98 215 c 128,-1,19
 144 215 144 215 193 135 c 128,-1,20
 242 55 242 55 283 55 c 128,-1,21
 324 55 324 55 348 82.5 c 128,-1,22
 372 110 372 110 372 163 c 0,23,24
 372 240 372 240 331.5 288.5 c 128,-1,25
 291 337 291 337 213 337 c 2,26,-1
 123 337 l 1,27,28
 78 359 78 359 67 365 c 0,29,30
 9 397 9 397 9 411 c 0,31,32
 9 428 9 428 20 442 c 128,-1,33
 31 456 31 456 48 456 c 0,34,35
 62 456 62 456 88 412 c 128,-1,36
 114 368 114 368 125.5 368 c 128,-1,37
 137 368 137 368 232 465.5 c 128,-1,38
 327 563 327 563 332 563 c 0,39,40
 345 563 345 563 353 551.5 c 128,-1,41
 361 540 361 540 361 526 c 0,42,43
 361 518 361 518 253 435 c 0,44,45
 190 385 190 385 169 365 c 1,46,-1
 228 365 l 2,47,48
 309 365 309 365 356 310 c 0,49,50
 408 248 408 248 408 137 c 0,0,1
EndSplineSet
EndChar

StartChar: o
Encoding: 111 111 79
Width: 448
GlyphClass: 2
Flags: W
LayerCount: 2
Fore
SplineSet
33 190 m 0,0,1
 33 226 33 226 44.5 263 c 128,-1,2
 56 300 56 300 80 328 c 0,3,4
 132 391 132 391 224 391 c 0,5,6
 314 391 314 391 368 328 c 0,7,8
 415 273 415 273 415 191 c 0,9,10
 415 110 415 110 368 54 c 0,11,12
 315 -8 315 -8 224 -8 c 0,13,14
 131 -8 131 -8 80 54 c 0,15,16
 33 111 33 111 33 190 c 0,0,1
99 190 m 0,17,18
 99 166 99 166 106 139 c 128,-1,19
 113 112 113 112 128 90 c 0,20,21
 163 39 163 39 224 39 c 0,22,23
 286 39 286 39 320 90 c 0,24,25
 348 133 348 133 348 191 c 0,26,27
 348 248 348 248 320 292 c 0,28,29
 287 343 287 343 224 343 c 0,30,31
 162 343 162 343 128 292 c 0,32,33
 99 249 99 249 99 190 c 0,17,18
EndSplineSet
EndChar

StartChar: p
Encoding: 112 112 80
Width: 486
GlyphClass: 2
Flags: W
LayerCount: 2
Fore
SplineSet
262 335 m 0,0,1
 262 366 262 366 297 366 c 0,2,3
 355 366 355 366 389 305.5 c 128,-1,4
 423 245 423 245 423 166.5 c 128,-1,5
 423 88 423 88 396 45 c 0,6,7
 364 -6 364 -6 298 -6 c 0,8,9
 273 -6 273 -6 248 12 c 128,-1,10
 223 30 223 30 207 63 c 1,11,12
 191 30 191 30 165 12 c 128,-1,13
 139 -6 139 -6 101 -6 c 128,-1,14
 63 -6 63 -6 31.5 26.5 c 128,-1,15
 0 59 0 59 0 105 c 256,16,17
 0 151 0 151 29.5 183.5 c 128,-1,18
 59 216 59 216 102 216 c 0,19,20
 160 216 160 216 189 180 c 0,21,22
 203 159 203 159 216 109 c 0,23,24
 223 85 223 85 243.5 70 c 128,-1,25
 264 55 264 55 302 55 c 128,-1,26
 340 55 340 55 365.5 87 c 128,-1,27
 391 119 391 119 391 175 c 128,-1,28
 391 231 391 231 367 269.5 c 128,-1,29
 343 308 343 308 302.5 308 c 128,-1,30
 262 308 262 308 262 335 c 0,0,1
172 118 m 256,31,32
 172 147 172 147 152.5 168.5 c 128,-1,33
 133 190 133 190 106.5 190 c 128,-1,34
 80 190 80 190 60 168.5 c 128,-1,35
 40 147 40 147 40 118.5 c 128,-1,36
 40 90 40 90 59.5 70.5 c 128,-1,37
 79 51 79 51 106 51 c 128,-1,38
 133 51 133 51 152.5 70 c 128,-1,39
 172 89 172 89 172 118 c 256,31,32
356 530 m 0,40,41
 356 522 356 522 217 415 c 0,42,43
 138 353 138 353 118 333 c 1,44,45
 70 361 70 361 21 391 c 0,46,47
 1 405 1 405 1 420.5 c 128,-1,48
 1 436 1 436 12.5 447.5 c 128,-1,49
 24 459 24 459 40 459 c 0,50,51
 51 459 51 459 78 420 c 0,52,53
 102 383 102 383 116 365 c 1,54,55
 142 391 142 391 249 497 c 0,56,57
 320 565 320 565 327 565 c 0,58,59
 341 565 341 565 348.5 554 c 128,-1,60
 356 543 356 543 356 530 c 0,40,41
EndSplineSet
EndChar

StartChar: q
Encoding: 113 113 81
Width: 530
GlyphClass: 2
Flags: W
LayerCount: 2
Fore
SplineSet
324 175 m 1,0,1
 257 215 257 215 257 286 c 0,2,3
 257 327 257 327 282 352.5 c 128,-1,4
 307 378 307 378 347 378 c 0,5,6
 401 378 401 378 432.5 331.5 c 128,-1,7
 464 285 464 285 464 218 c 0,8,9
 464 112 464 112 392 50 c 0,10,11
 325 -6 325 -6 228 -6 c 128,-1,12
 131 -6 131 -6 65.5 48.5 c 128,-1,13
 0 103 0 103 0 203 c 0,14,15
 0 271 0 271 35 324.5 c 128,-1,16
 70 378 70 378 127 378 c 0,17,18
 169 378 169 378 189.5 352 c 128,-1,19
 210 326 210 326 210 289.5 c 128,-1,20
 210 253 210 253 185 230 c 128,-1,21
 160 207 160 207 128 207 c 128,-1,22
 96 207 96 207 75 229 c 128,-1,23
 54 251 54 251 54 298 c 1,24,25
 33 262 33 262 33 220 c 0,26,27
 33 139 33 139 84 95 c 128,-1,28
 135 51 135 51 217 51 c 0,29,30
 323 51 323 51 378 94 c 128,-1,31
 433 137 433 137 433 215 c 0,32,33
 433 262 433 262 416 294 c 0,34,35
 394 335 394 335 355 335 c 0,36,37
 327 335 327 335 311 315 c 128,-1,38
 295 295 295 295 295 260 c 128,-1,39
 295 225 295 225 330 199.5 c 128,-1,40
 365 174 365 174 365 162 c 0,41,42
 365 157 365 157 360 149.5 c 128,-1,43
 355 142 355 142 349 142 c 2,44,-1
 141 142 l 2,45,46
 135 142 135 142 129 146.5 c 128,-1,47
 123 151 123 151 123 156 c 0,48,49
 123 173 123 173 135 173 c 2,50,-1
 324 175 l 1,0,1
163.5 259.5 m 128,-1,52
 178 274 178 274 178 294.5 c 128,-1,53
 178 315 178 315 163 332.5 c 128,-1,54
 148 350 148 350 128.5 350 c 128,-1,55
 109 350 109 350 93.5 333 c 128,-1,56
 78 316 78 316 78 295 c 128,-1,57
 78 274 78 274 93.5 259.5 c 128,-1,58
 109 245 109 245 129 245 c 256,59,51
 149 245 149 245 163.5 259.5 c 128,-1,52
EndSplineSet
EndChar

StartChar: r
Encoding: 114 114 82
Width: 435
GlyphClass: 2
Flags: W
LayerCount: 2
Fore
SplineSet
285 94.5 m 128,-1,1
 325 130 325 130 325 192.5 c 128,-1,2
 325 255 325 255 285.5 293.5 c 128,-1,3
 246 332 246 332 185.5 332 c 128,-1,4
 125 332 125 332 83.5 296.5 c 128,-1,5
 42 261 42 261 42 195.5 c 128,-1,6
 42 130 42 130 83 94.5 c 128,-1,7
 124 59 124 59 184.5 59 c 128,-1,0
 245 59 245 59 285 94.5 c 128,-1,1
128 357 m 1,8,9
 93 378 93 378 62 395 c 0,10,11
 39 411 39 411 39 426.5 c 128,-1,12
 39 442 39 442 50.5 454 c 128,-1,13
 62 466 62 466 77 466 c 0,14,15
 87 466 87 466 115 426 c 0,16,17
 129 404 129 404 154 373 c 1,18,19
 194 410 194 410 280 500 c 0,20,21
 346 566 346 566 354 568 c 0,22,23
 365 573 365 573 374 560 c 128,-1,24
 383 547 383 547 383 532 c 0,25,26
 383 524 383 524 318 471.5 c 128,-1,27
 253 419 253 419 186 365 c 1,28,29
 266 365 266 365 317 312.5 c 128,-1,30
 368 260 368 260 368 178.5 c 128,-1,31
 368 97 368 97 315 45.5 c 128,-1,32
 262 -6 262 -6 184.5 -6 c 128,-1,33
 107 -6 107 -6 53.5 48.5 c 128,-1,34
 0 103 0 103 0 185 c 0,35,36
 0 247 0 247 32.5 292.5 c 128,-1,37
 65 338 65 338 128 357 c 1,8,9
EndSplineSet
EndChar

StartChar: s
Encoding: 115 115 83
Width: 469
GlyphClass: 2
Flags: W
LayerCount: 2
Fore
SplineSet
0 100 m 0,0,1
 0 216 0 216 106 216 c 0,2,3
 153 216 153 216 198 135.5 c 128,-1,4
 243 55 243 55 285.5 55 c 128,-1,5
 328 55 328 55 352.5 90.5 c 128,-1,6
 377 126 377 126 377 179.5 c 128,-1,7
 377 233 377 233 348.5 270.5 c 128,-1,8
 320 308 320 308 281 308 c 0,9,10
 264 308 264 308 253.5 313.5 c 128,-1,11
 243 319 243 319 243 337 c 0,12,13
 243 366 243 366 277 366 c 0,14,15
 332 366 332 366 369.5 307.5 c 128,-1,16
 407 249 407 249 407 156 c 0,17,18
 407 91 407 91 378 45 c 0,19,20
 347 -6 347 -6 289 -6 c 128,-1,21
 231 -6 231 -6 186.5 88.5 c 128,-1,22
 142 183 142 183 100 183 c 0,23,24
 75 183 75 183 58.5 165 c 128,-1,25
 42 147 42 147 42 121.5 c 128,-1,26
 42 96 42 96 75 55 c 0,27,28
 92 35 92 35 92 21 c 0,29,30
 92 -6 92 -6 59 -6 c 0,31,32
 36 -6 36 -6 18 31 c 128,-1,33
 0 68 0 68 0 100 c 0,0,1
356 530 m 0,34,35
 356 522 356 522 217 415 c 0,36,37
 138 353 138 353 118 333 c 1,38,39
 70 361 70 361 21 391 c 0,40,41
 1 405 1 405 1 420.5 c 128,-1,42
 1 436 1 436 12.5 447.5 c 128,-1,43
 24 459 24 459 40 459 c 0,44,45
 51 459 51 459 78 420 c 0,46,47
 102 383 102 383 116 365 c 1,48,49
 142 391 142 391 249 497 c 0,50,51
 320 565 320 565 327 565 c 0,52,53
 341 565 341 565 348.5 554 c 128,-1,54
 356 543 356 543 356 530 c 0,34,35
EndSplineSet
EndChar

StartChar: t
Encoding: 116 116 84
Width: 542
GlyphClass: 2
Flags: W
LayerCount: 2
Fore
SplineSet
97 450 m 0,0,1
 97 486 97 486 127.5 486 c 128,-1,2
 158 486 158 486 158 454 c 0,3,4
 158 437 158 437 147 408.5 c 128,-1,5
 136 380 136 380 132 365 c 1,6,7
 169 365 169 365 190 343 c 128,-1,8
 211 321 211 321 211 284.5 c 128,-1,9
 211 248 211 248 187.5 223 c 128,-1,10
 164 198 164 198 134 198 c 128,-1,11
 104 198 104 198 81 214.5 c 128,-1,12
 58 231 58 231 52 272 c 1,13,14
 39 228 39 228 39 183 c 128,-1,15
 39 138 39 138 62 102 c 0,16,17
 93 56 93 56 147 56 c 0,18,19
 176 56 176 56 196 71.5 c 128,-1,20
 216 87 216 87 222 107 c 2,21,-1
 231 137 l 2,22,23
 234 147 234 147 241 147 c 0,24,25
 250 147 250 147 253.5 133 c 128,-1,26
 257 119 257 119 260 104 c 0,27,28
 279 55 279 55 327 55 c 128,-1,29
 375 55 375 55 409.5 93 c 128,-1,30
 444 131 444 131 444 183.5 c 128,-1,31
 444 236 444 236 416.5 272 c 128,-1,32
 389 308 389 308 346 308 c 0,33,34
 328 307 328 307 316 307 c 128,-1,35
 304 307 304 307 295 312 c 128,-1,36
 286 317 286 317 286 336.5 c 128,-1,37
 286 356 286 356 299.5 361 c 128,-1,38
 313 366 313 366 338 366 c 0,39,40
 398 366 398 366 436.5 314.5 c 128,-1,41
 475 263 475 263 475 183 c 128,-1,42
 475 103 475 103 436.5 48.5 c 128,-1,43
 398 -6 398 -6 334 -6 c 0,44,45
 303 -6 303 -6 282.5 9.5 c 128,-1,46
 262 25 262 25 241 60 c 1,47,48
 220 25 220 25 196 9.5 c 128,-1,49
 172 -6 172 -6 138 -6 c 0,50,51
 75 -6 75 -6 37.5 53 c 128,-1,52
 0 112 0 112 0 185 c 128,-1,53
 0 258 0 258 31 309 c 128,-1,54
 62 360 62 360 117 366 c 1,55,56
 116 373 116 373 106.5 407.5 c 128,-1,57
 97 442 97 442 97 450 c 0,0,1
172 284 m 256,58,59
 172 304 172 304 159 318 c 128,-1,60
 146 332 146 332 126.5 332 c 128,-1,61
 107 332 107 332 93.5 318.5 c 128,-1,62
 80 305 80 305 80 285 c 128,-1,63
 80 265 80 265 93.5 250.5 c 128,-1,64
 107 236 107 236 126.5 236 c 128,-1,65
 146 236 146 236 159 250 c 128,-1,66
 172 264 172 264 172 284 c 256,58,59
EndSplineSet
EndChar

StartChar: u
Encoding: 117 117 85
Width: 446
GlyphClass: 2
Flags: W
LayerCount: 2
Fore
SplineSet
387 29 m 2,0,1
 387 14 387 14 377 7 c 128,-1,2
 367 0 367 0 358.5 0 c 128,-1,3
 350 0 350 0 344.5 1.5 c 128,-1,4
 339 3 339 3 335 6 c 0,5,6
 325 15 325 15 325 28 c 2,7,-1
 325 63 l 1,8,9
 301 11 301 11 236 -4 c 0,10,11
 217 -8 217 -8 193 -8 c 128,-1,12
 169 -8 169 -8 144.5 0 c 128,-1,13
 120 8 120 8 101 26 c 0,14,15
 60 66 60 66 60 141 c 2,16,-1
 60 353 l 2,17,18
 60 368 60 368 69.5 375 c 128,-1,19
 79 382 79 382 91 382 c 256,20,21
 103 382 103 382 112.5 375 c 128,-1,22
 122 368 122 368 122 353 c 2,23,-1
 122 137 l 2,24,25
 122 82 122 82 143 61 c 0,26,27
 165 39 165 39 210 39 c 0,28,29
 286 39 286 39 314 100 c 0,30,31
 323 121 323 121 325 149 c 2,32,-1
 325 353 l 2,33,34
 325 367 325 367 335 374.5 c 128,-1,35
 345 382 345 382 356.5 382 c 128,-1,36
 368 382 368 382 377.5 375 c 128,-1,37
 387 368 387 368 387 353 c 2,38,-1
 387 29 l 2,0,1
EndSplineSet
EndChar

StartChar: v
Encoding: 118 118 86
Width: 486
GlyphClass: 2
Flags: W
LayerCount: 2
Fore
SplineSet
424 146 m 0,0,1
 424 82 424 82 392.5 38 c 128,-1,2
 361 -6 361 -6 308 -6 c 0,3,4
 247 -6 247 -6 201 72 c 1,5,6
 190 34 190 34 164.5 14 c 128,-1,7
 139 -6 139 -6 97 -6 c 128,-1,8
 55 -6 55 -6 27.5 27 c 128,-1,9
 0 60 0 60 0 107.5 c 128,-1,10
 0 155 0 155 28 185.5 c 128,-1,11
 56 216 56 216 105 216 c 0,12,13
 136 216 136 216 154 204.5 c 128,-1,14
 172 193 172 193 187 167 c 0,15,16
 204 130 204 130 223 94 c 1,17,18
 250 55 250 55 295 55 c 128,-1,19
 340 55 340 55 364.5 84 c 128,-1,20
 389 113 389 113 389 171 c 0,21,22
 389 249 389 249 341.5 293 c 128,-1,23
 294 337 294 337 225 337 c 2,24,-1
 132 337 l 1,25,26
 83 363 83 363 60 376 c 0,27,28
 19 401 19 401 19 418 c 0,29,30
 19 455 19 455 64 455 c 0,31,32
 74 455 74 455 90 431 c 0,33,34
 119 384 119 384 135 364 c 1,35,36
 150 378 150 378 293 521 c 0,37,38
 337 564 337 564 344 564 c 0,39,40
 356 564 356 564 365.5 554 c 128,-1,41
 375 544 375 544 375 528 c 0,42,43
 375 518 375 518 262 435 c 0,44,45
 202 390 202 390 179 365 c 1,46,-1
 241 365 l 2,47,48
 325 365 325 365 374.5 308 c 128,-1,49
 424 251 424 251 424 146 c 0,0,1
151.5 70 m 128,-1,51
 172 90 172 90 172 118.5 c 128,-1,52
 172 147 172 147 151.5 168.5 c 128,-1,53
 131 190 131 190 104 190 c 128,-1,54
 77 190 77 190 57.5 168.5 c 128,-1,55
 38 147 38 147 38 118.5 c 128,-1,56
 38 90 38 90 57.5 70 c 128,-1,57
 77 50 77 50 104 50 c 128,-1,50
 131 50 131 50 151.5 70 c 128,-1,51
EndSplineSet
EndChar

StartChar: w
Encoding: 119 119 87
Width: 488
GlyphClass: 2
Flags: W
LayerCount: 2
Fore
SplineSet
383 166 m 0,0,1
 383 239 383 239 340 284 c 0,2,3
 294 335 294 335 216.5 335 c 128,-1,4
 139 335 139 335 91 289 c 128,-1,5
 43 243 43 243 43 171 c 0,6,7
 43 122 43 122 62.5 89 c 128,-1,8
 82 56 82 56 120 56 c 128,-1,9
 158 56 158 56 181 85 c 1,10,11
 198 116 198 116 217 144 c 1,12,13
 225 144 225 144 229 131.5 c 128,-1,14
 233 119 233 119 237 104 c 0,15,16
 259 55 259 55 308 55 c 0,17,18
 345 55 345 55 364 88 c 128,-1,19
 383 121 383 121 383 166 c 0,0,1
146 358 m 1,20,21
 116 376 116 376 88 393 c 0,22,23
 67 407 67 407 67 422 c 256,24,25
 67 437 67 437 79.5 449.5 c 128,-1,26
 92 462 92 462 109 462 c 0,27,28
 119 462 119 462 142 427 c 128,-1,29
 165 392 165 392 184 368 c 1,30,31
 203 387 203 387 296 476.5 c 128,-1,32
 389 566 389 566 393 566 c 0,33,34
 407 566 407 566 415 554.5 c 128,-1,35
 423 543 423 543 423 531 c 0,36,37
 423 523 423 523 336 454.5 c 128,-1,38
 249 386 249 386 221 365 c 1,39,40
 313 365 313 365 368 306 c 128,-1,41
 423 247 423 247 423 139 c 0,42,43
 423 80 423 80 392.5 37 c 128,-1,44
 362 -6 362 -6 308 -6 c 0,45,46
 274 -6 274 -6 249 18.5 c 128,-1,47
 224 43 224 43 215 87 c 1,48,49
 201 38 201 38 176.5 16 c 128,-1,50
 152 -6 152 -6 115 -6 c 0,51,52
 61 -6 61 -6 30.5 41 c 128,-1,53
 0 88 0 88 0 145 c 128,-1,54
 0 202 0 202 22 251 c 0,55,56
 47 310 47 310 93 337 c 0,57,58
 114 350 114 350 146 358 c 1,20,21
EndSplineSet
EndChar

StartChar: x
Encoding: 120 120 88
Width: 488
GlyphClass: 2
Flags: W
LayerCount: 2
Fore
SplineSet
238.5 248.5 m 128,-1,1
 249 238 249 238 249 222.5 c 128,-1,2
 249 207 249 207 238.5 197 c 128,-1,3
 228 187 228 187 214 187 c 256,4,5
 200 187 200 187 190.5 196.5 c 128,-1,6
 181 206 181 206 181 222 c 256,7,8
 181 238 181 238 189.5 248.5 c 128,-1,9
 198 259 198 259 213 259 c 128,-1,0
 228 259 228 259 238.5 248.5 c 128,-1,1
383 166 m 0,10,11
 383 239 383 239 340 284 c 0,12,13
 294 335 294 335 216.5 335 c 128,-1,14
 139 335 139 335 91 289 c 128,-1,15
 43 243 43 243 43 171 c 0,16,17
 43 122 43 122 62.5 89 c 128,-1,18
 82 56 82 56 120 56 c 128,-1,19
 158 56 158 56 181 85 c 1,20,21
 198 116 198 116 217 144 c 1,22,23
 225 144 225 144 229 131.5 c 128,-1,24
 233 119 233 119 237 104 c 0,25,26
 259 55 259 55 308 55 c 0,27,28
 345 55 345 55 364 88 c 128,-1,29
 383 121 383 121 383 166 c 0,10,11
146 358 m 1,30,31
 116 376 116 376 88 393 c 0,32,33
 67 407 67 407 67 422 c 256,34,35
 67 437 67 437 79.5 449.5 c 128,-1,36
 92 462 92 462 109 462 c 0,37,38
 119 462 119 462 142 427 c 128,-1,39
 165 392 165 392 184 368 c 1,40,41
 203 387 203 387 296 476.5 c 128,-1,42
 389 566 389 566 393 566 c 0,43,44
 407 566 407 566 415 554.5 c 128,-1,45
 423 543 423 543 423 531 c 0,46,47
 423 523 423 523 336 454.5 c 128,-1,48
 249 386 249 386 221 365 c 1,49,50
 313 365 313 365 368 306 c 128,-1,51
 423 247 423 247 423 139 c 0,52,53
 423 80 423 80 392.5 37 c 128,-1,54
 362 -6 362 -6 308 -6 c 0,55,56
 274 -6 274 -6 249 18.5 c 128,-1,57
 224 43 224 43 215 87 c 1,58,59
 201 38 201 38 176.5 16 c 128,-1,60
 152 -6 152 -6 115 -6 c 0,61,62
 61 -6 61 -6 30.5 41 c 128,-1,63
 0 88 0 88 0 145 c 128,-1,64
 0 202 0 202 22 251 c 0,65,66
 47 310 47 310 93 337 c 0,67,68
 114 350 114 350 146 358 c 1,30,31
247 -47 m 0,69,70
 247 -86 247 -86 214 -86 c 0,71,72
 200 -86 200 -86 192 -78 c 0,73,74
 179 -67 179 -67 179 -48.5 c 128,-1,75
 179 -30 179 -30 195 -2.5 c 128,-1,76
 211 25 211 25 214 31 c 1,77,78
 215 26 215 26 231 -1.5 c 128,-1,79
 247 -29 247 -29 247 -47 c 0,69,70
EndSplineSet
EndChar

StartChar: y
Encoding: 121 121 89
Width: 869
GlyphClass: 2
Flags: W
LayerCount: 2
Fore
SplineSet
276.5 97 m 128,-1,1
 317 138 317 138 317 196.5 c 128,-1,2
 317 255 317 255 276.5 299 c 128,-1,3
 236 343 236 343 179.5 343 c 128,-1,4
 123 343 123 343 83 300.5 c 128,-1,5
 43 258 43 258 43 198 c 128,-1,6
 43 138 43 138 83 97 c 128,-1,7
 123 56 123 56 179.5 56 c 128,-1,0
 236 56 236 56 276.5 97 c 128,-1,1
572 84 m 1,8,9
 526 -6 526 -6 447 -6 c 0,10,11
 409 -6 409 -6 378.5 21.5 c 128,-1,12
 348 49 348 49 340 98 c 1,13,14
 319 52 319 52 275.5 23 c 128,-1,15
 232 -6 232 -6 181 -6 c 0,16,17
 104 -6 104 -6 52 48 c 128,-1,18
 0 102 0 102 0 180.5 c 128,-1,19
 0 259 0 259 52 312.5 c 128,-1,20
 104 366 104 366 176 366 c 0,21,22
 267 366 267 366 317 299 c 0,23,24
 357 243 357 243 357 186 c 128,-1,25
 357 129 357 129 381.5 92 c 128,-1,26
 406 55 406 55 453 55 c 128,-1,27
 500 55 500 55 530.5 85 c 128,-1,28
 561 115 561 115 561 166 c 0,29,30
 561 260 561 260 518 299 c 1,31,32
 483 337 483 337 412 337 c 2,33,-1
 369 337 l 1,34,35
 360 343 360 343 288 386 c 0,36,37
 252 407 252 407 252 423.5 c 128,-1,38
 252 440 252 440 263.5 452.5 c 128,-1,39
 275 465 275 465 292 465 c 0,40,41
 301 465 301 465 327.5 427.5 c 128,-1,42
 354 390 354 390 368 370 c 1,43,44
 409 409 409 409 484.5 487.5 c 128,-1,45
 560 566 560 566 565 567 c 0,46,47
 579 572 579 572 587.5 558 c 128,-1,48
 596 544 596 544 596 530 c 0,49,50
 596 523 596 523 531 470.5 c 128,-1,51
 466 418 466 418 400 365 c 1,52,53
 506 365 506 365 550 313 c 0,54,55
 591 267 591 267 591 171 c 1,56,-1
 587 137 l 1,57,58
 591 100 591 100 610 77 c 128,-1,59
 629 54 629 54 661 54 c 0,60,61
 709 54 709 54 743.5 92 c 128,-1,62
 778 130 778 130 778 181 c 128,-1,63
 778 232 778 232 751.5 270 c 128,-1,64
 725 308 725 308 680 308 c 2,65,-1
 652 308 l 2,66,67
 622 308 622 308 622 335 c 0,68,69
 622 348 622 348 626 354 c 0,70,71
 633 366 633 366 668 366 c 0,72,73
 735 366 735 366 774 310 c 1,74,75
 809 252 809 252 809 161 c 0,76,77
 809 103 809 103 775 53 c 0,78,79
 736 -6 736 -6 671 -6 c 0,80,81
 597 -6 597 -6 572 84 c 1,8,9
EndSplineSet
EndChar

StartChar: z
Encoding: 122 122 90
Width: 496
GlyphClass: 2
Flags: W
LayerCount: 2
Fore
SplineSet
221 88 m 1,0,1
 198 -6 198 -6 111 -6 c 0,2,3
 64 -6 64 -6 32 25 c 128,-1,4
 0 56 0 56 0 107 c 0,5,6
 0 168 0 168 48 193 c 1,7,8
 109 208 109 208 135 215 c 0,9,10
 184 228 184 228 184 266 c 0,11,12
 184 294 184 294 167 311 c 128,-1,13
 150 328 150 328 123 328 c 0,14,15
 78 328 78 328 66 284 c 128,-1,16
 54 240 54 240 29 240 c 256,17,18
 4 240 4 240 4 271 c 0,19,20
 4 313 4 313 36 338 c 128,-1,21
 68 363 68 363 114.5 363 c 128,-1,22
 161 363 161 363 191 330 c 0,23,24
 200 318 200 318 228 265 c 0,25,26
 236 248 236 248 259 234 c 128,-1,27
 282 220 282 220 308 220 c 0,28,29
 392 220 392 220 392 282 c 0,30,31
 392 317 392 317 363 325 c 0,32,33
 348 328 348 328 334 328 c 128,-1,34
 320 328 320 328 312 331 c 128,-1,35
 304 334 304 334 304 344.5 c 128,-1,36
 304 355 304 355 313 360 c 128,-1,37
 322 365 322 365 334 365 c 0,38,39
 374 365 374 365 397.5 336 c 128,-1,40
 421 307 421 307 421 264 c 128,-1,41
 421 221 421 221 392 194.5 c 128,-1,42
 363 168 363 168 322 168 c 0,43,44
 234 168 234 168 213 253 c 1,45,46
 206 223 206 223 191.5 210 c 128,-1,47
 177 197 177 197 148.5 190 c 128,-1,48
 120 183 120 183 84 175 c 1,49,50
 46 160 46 160 46 114 c 0,51,52
 46 87 46 87 67 71.5 c 128,-1,53
 88 56 88 56 117 56 c 0,54,55
 162 56 162 56 187 84 c 1,56,57
 205 113 205 113 224 141 c 1,58,59
 231 141 231 141 235 126 c 0,60,61
 244 93 244 93 276 70 c 0,62,63
 298 55 298 55 328.5 55 c 128,-1,64
 359 55 359 55 379.5 73 c 128,-1,65
 400 91 400 91 400 124 c 2,66,-1
 398 149 l 2,67,68
 398 161 398 161 408 161 c 0,69,70
 420 161 420 161 425.5 142 c 128,-1,71
 431 123 431 123 431 100 c 0,72,73
 431 54 431 54 400.5 23 c 128,-1,74
 370 -8 370 -8 330 -8 c 128,-1,75
 290 -8 290 -8 260.5 16 c 128,-1,76
 231 40 231 40 221 88 c 1,0,1
EndSplineSet
EndChar

StartChar: braceleft
Encoding: 123 123 91
Width: 235
GlyphClass: 2
Flags: W
LayerCount: 2
Fore
SplineSet
151 27 m 2,0,1
 151 -31 151 -31 183 -31 c 2,2,-1
 207 -31 l 2,3,4
 218 -31 218 -31 223.5 -39 c 128,-1,5
 229 -47 229 -47 229 -56 c 128,-1,6
 229 -65 229 -65 223.5 -72.5 c 128,-1,7
 218 -80 218 -80 207 -80 c 2,8,-1
 162 -80 l 2,9,10
 134 -80 134 -80 112 -56 c 0,11,12
 88 -30 88 -30 88 8 c 2,13,-1
 88 123 l 2,14,15
 88 169 88 169 80 185.5 c 128,-1,16
 72 202 72 202 61 209 c 128,-1,17
 50 216 50 216 34.5 217 c 128,-1,18
 19 218 19 218 12.5 226.5 c 128,-1,19
 6 235 6 235 6 244.5 c 128,-1,20
 6 254 6 254 12.5 262 c 128,-1,21
 19 270 19 270 34.5 271 c 128,-1,22
 50 272 50 272 61 279.5 c 128,-1,23
 72 287 72 287 78 300 c 0,24,25
 88 320 88 320 88 367 c 2,26,-1
 88 483 l 2,27,28
 88 521 88 521 112 546 c 0,29,30
 134 571 134 571 162 571 c 2,31,-1
 207 571 l 2,32,33
 218 571 218 571 223.5 563 c 128,-1,34
 229 555 229 555 229 546 c 128,-1,35
 229 537 229 537 223.5 529.5 c 128,-1,36
 218 522 218 522 207 522 c 2,37,-1
 183 522 l 2,38,39
 151 522 151 522 151 464 c 2,40,-1
 151 353 l 2,41,42
 151 288 151 288 109 255 c 0,43,44
 100 248 100 248 96 245 c 1,45,46
 128 229 128 229 144 184 c 0,47,48
 151 164 151 164 151 137 c 2,49,-1
 151 27 l 2,0,1
EndSplineSet
EndChar

StartChar: bar
Encoding: 124 124 92
Width: 175
GlyphClass: 2
Flags: W
LayerCount: 2
Fore
SplineSet
61 544 m 2,0,1
 61 558 61 558 69.5 564 c 128,-1,2
 78 570 78 570 88 570 c 256,3,4
 98 570 98 570 106.5 563.5 c 128,-1,5
 115 557 115 557 115 544 c 2,6,-1
 115 -145 l 2,7,8
 115 -159 115 -159 106.5 -165.5 c 128,-1,9
 98 -172 98 -172 88 -172 c 256,10,11
 78 -172 78 -172 69.5 -165.5 c 128,-1,12
 61 -159 61 -159 61 -145 c 2,13,-1
 61 544 l 2,0,1
EndSplineSet
EndChar

StartChar: braceright
Encoding: 125 125 93
Width: 235
GlyphClass: 2
Flags: W
LayerCount: 2
Fore
SplineSet
84 464 m 2,0,1
 84 522 84 522 52 522 c 2,2,-1
 28 522 l 2,3,4
 17 522 17 522 11.5 529.5 c 128,-1,5
 6 537 6 537 6 546 c 128,-1,6
 6 555 6 555 11.5 563 c 128,-1,7
 17 571 17 571 28 571 c 2,8,-1
 73 571 l 2,9,10
 101 571 101 571 124 546 c 256,11,12
 147 521 147 521 147 483 c 2,13,-1
 147 367 l 2,14,15
 147 320 147 320 155 303.5 c 128,-1,16
 163 287 163 287 174 279.5 c 128,-1,17
 185 272 185 272 200.5 271 c 128,-1,18
 216 270 216 270 222.5 262 c 128,-1,19
 229 254 229 254 229 244 c 128,-1,20
 229 234 229 234 222.5 226 c 128,-1,21
 216 218 216 218 200.5 217 c 128,-1,22
 185 216 185 216 174 209 c 128,-1,23
 163 202 163 202 157 190 c 0,24,25
 147 169 147 169 147 123 c 2,26,-1
 147 8 l 2,27,28
 147 -30 147 -30 124 -56 c 0,29,30
 101 -80 101 -80 73 -80 c 2,31,-1
 28 -80 l 2,32,33
 17 -80 17 -80 11.5 -72.5 c 128,-1,34
 6 -65 6 -65 6 -56 c 128,-1,35
 6 -47 6 -47 11.5 -39 c 128,-1,36
 17 -31 17 -31 28 -31 c 2,37,-1
 52 -31 l 2,38,39
 84 -31 84 -31 84 27 c 2,40,-1
 84 137 l 2,41,42
 84 184 84 184 108 216 c 0,43,44
 123 237 123 237 139 245 c 1,45,46
 136 248 136 248 126.5 255 c 128,-1,47
 117 262 117 262 108 274 c 0,48,49
 84 308 84 308 84 353 c 2,50,-1
 84 464 l 2,0,1
EndSplineSet
EndChar

StartChar: asciitilde
Encoding: 126 126 94
Width: 516
GlyphClass: 2
Flags: W
LayerCount: 2
Fore
SplineSet
341.5 526 m 128,-1,1
 351 526 351 526 356 520.5 c 128,-1,2
 361 515 361 515 361 510 c 2,3,-1
 361 504 l 2,4,5
 361 502 361 502 360 500 c 0,6,7
 342 455 342 455 296 455 c 0,8,9
 280 455 280 455 225 478 c 0,10,11
 214 482 214 482 204 482 c 0,12,13
 188 482 188 482 177.5 469.5 c 128,-1,14
 167 457 167 457 158.5 457 c 128,-1,15
 150 457 150 457 144.5 462 c 128,-1,16
 139 467 139 467 139 472.5 c 128,-1,17
 139 478 139 478 145 491 c 128,-1,18
 151 504 151 504 166.5 515 c 128,-1,19
 182 526 182 526 200.5 526 c 128,-1,20
 219 526 219 526 232 522 c 128,-1,21
 245 518 245 518 257 513 c 0,22,23
 288 500 288 500 302 500 c 128,-1,24
 316 500 316 500 324 513 c 128,-1,0
 332 526 332 526 341.5 526 c 128,-1,1
EndSplineSet
EndChar

StartChar: uni0090
Encoding: 144 144 96
Width: 1209
VWidth: 2000
Flags: W
LayerCount: 2
Fore
SplineSet
387.537109375 3.5859375 m 4,0,1
 387.537109375 19.451171875 387.537109375 19.451171875 405.701171875 33.4208984375 c 132,-1,2
 423.864257812 47.3916015625 423.864257812 47.3916015625 455.83203125 57.693359375 c 132,-1,3
 487.80078125 67.9921875 487.80078125 67.9921875 531.029296875 73.912109375 c 132,-1,4
 574.2578125 79.8310546875 574.2578125 79.8310546875 624.388671875 79.8310546875 c 260,5,6
 674.51953125 79.8310546875 674.51953125 79.8310546875 717.748046875 73.912109375 c 132,-1,7
 760.9765625 67.9921875 760.9765625 67.9921875 792.9453125 57.693359375 c 132,-1,8
 824.913085938 47.3916015625 824.913085938 47.3916015625 843.076171875 33.4208984375 c 132,-1,9
 861.239257812 19.451171875 861.239257812 19.451171875 861.239257812 3.5859375 c 4,10,11
 861.239257812 -12.04296875 861.239257812 -12.04296875 843.076171875 -25.8955078125 c 132,-1,12
 824.913085938 -39.7470703125 824.913085938 -39.7470703125 792.9453125 -50.0478515625 c 132,-1,13
 760.9765625 -60.3466796875 760.9765625 -60.3466796875 717.748046875 -66.3857421875 c 132,-1,14
 674.51953125 -72.423828125 674.51953125 -72.423828125 624.388671875 -72.423828125 c 260,15,16
 574.2578125 -72.423828125 574.2578125 -72.423828125 531.029296875 -66.3857421875 c 132,-1,17
 487.80078125 -60.3466796875 487.80078125 -60.3466796875 455.83203125 -50.0478515625 c 132,-1,18
 423.864257812 -39.7470703125 423.864257812 -39.7470703125 405.701171875 -25.8955078125 c 132,-1,19
 387.537109375 -12.04296875 387.537109375 -12.04296875 387.537109375 3.5859375 c 4,0,1
479.807617188 3.3486328125 m 260,20,21
 479.807617188 -6.5966796875 479.807617188 -6.5966796875 490.706054688 -15.2392578125 c 132,-1,22
 501.603515625 -23.8818359375 501.603515625 -23.8818359375 521.220703125 -30.275390625 c 132,-1,23
 540.8359375 -36.6689453125 540.8359375 -36.6689453125 567.35546875 -40.3388671875 c 132,-1,24
 593.874023438 -44.0087890625 593.874023438 -44.0087890625 624.388671875 -44.0087890625 c 260,25,26
 654.90234375 -44.0087890625 654.90234375 -44.0087890625 681.057617188 -40.3388671875 c 132,-1,27
 707.213867188 -36.6689453125 707.213867188 -36.6689453125 726.829101562 -30.275390625 c 132,-1,28
 746.446289062 -23.8818359375 746.446289062 -23.8818359375 757.345703125 -15.2392578125 c 132,-1,29
 768.2421875 -6.5966796875 768.2421875 -6.5966796875 768.2421875 3.3486328125 c 260,30,31
 768.2421875 13.294921875 768.2421875 13.294921875 757.345703125 22.0546875 c 132,-1,32
 746.446289062 30.81640625 746.446289062 30.81640625 726.829101562 37.328125 c 132,-1,33
 707.213867188 43.8408203125 707.213867188 43.8408203125 681.057617188 47.509765625 c 132,-1,34
 654.90234375 51.1806640625 654.90234375 51.1806640625 624.388671875 51.1806640625 c 260,35,36
 593.874023438 51.1806640625 593.874023438 51.1806640625 567.35546875 47.509765625 c 132,-1,37
 540.8359375 43.8408203125 540.8359375 43.8408203125 521.220703125 37.328125 c 132,-1,38
 501.603515625 30.81640625 501.603515625 30.81640625 490.706054688 22.0546875 c 132,-1,39
 479.807617188 13.294921875 479.807617188 13.294921875 479.807617188 3.3486328125 c 260,20,21
387.537109375 175.08203125 m 4,40,41
 387.537109375 190.947265625 387.537109375 190.947265625 405.701171875 204.916992188 c 132,-1,42
 423.864257812 218.888671875 423.864257812 218.888671875 455.83203125 229.188476562 c 132,-1,43
 487.80078125 239.489257812 487.80078125 239.489257812 531.029296875 245.408203125 c 132,-1,44
 574.2578125 251.327148438 574.2578125 251.327148438 624.388671875 251.327148438 c 260,45,46
 674.51953125 251.327148438 674.51953125 251.327148438 717.748046875 245.408203125 c 132,-1,47
 760.9765625 239.489257812 760.9765625 239.489257812 792.9453125 229.188476562 c 132,-1,48
 824.913085938 218.888671875 824.913085938 218.888671875 843.076171875 204.916992188 c 132,-1,49
 861.239257812 190.947265625 861.239257812 190.947265625 861.239257812 175.08203125 c 4,50,51
 861.239257812 159.453125 861.239257812 159.453125 843.076171875 145.600585938 c 132,-1,52
 824.913085938 131.749023438 824.913085938 131.749023438 792.9453125 121.448242188 c 132,-1,53
 760.9765625 111.1484375 760.9765625 111.1484375 717.748046875 105.110351562 c 132,-1,54
 674.51953125 99.072265625 674.51953125 99.072265625 624.388671875 99.072265625 c 260,55,56
 574.2578125 99.072265625 574.2578125 99.072265625 531.029296875 105.110351562 c 132,-1,57
 487.80078125 111.1484375 487.80078125 111.1484375 455.83203125 121.448242188 c 132,-1,58
 423.864257812 131.749023438 423.864257812 131.749023438 405.701171875 145.600585938 c 132,-1,59
 387.537109375 159.453125 387.537109375 159.453125 387.537109375 175.08203125 c 4,40,41
479.807617188 174.845703125 m 260,60,61
 479.807617188 164.899414062 479.807617188 164.899414062 490.706054688 156.2578125 c 132,-1,62
 501.603515625 147.614257812 501.603515625 147.614257812 521.220703125 141.220703125 c 132,-1,63
 540.8359375 134.827148438 540.8359375 134.827148438 567.35546875 131.157226562 c 132,-1,64
 593.874023438 127.486328125 593.874023438 127.486328125 624.388671875 127.486328125 c 260,65,66
 654.90234375 127.486328125 654.90234375 127.486328125 681.057617188 131.157226562 c 132,-1,67
 707.213867188 134.827148438 707.213867188 134.827148438 726.829101562 141.220703125 c 132,-1,68
 746.446289062 147.614257812 746.446289062 147.614257812 757.345703125 156.2578125 c 132,-1,69
 768.2421875 164.899414062 768.2421875 164.899414062 768.2421875 174.845703125 c 260,70,71
 768.2421875 184.7890625 768.2421875 184.7890625 757.345703125 193.55078125 c 132,-1,72
 746.446289062 202.313476562 746.446289062 202.313476562 726.829101562 208.82421875 c 132,-1,73
 707.213867188 215.3359375 707.213867188 215.3359375 681.057617188 219.005859375 c 132,-1,74
 654.90234375 222.67578125 654.90234375 222.67578125 624.388671875 222.67578125 c 260,75,76
 593.874023438 222.67578125 593.874023438 222.67578125 567.35546875 219.005859375 c 132,-1,77
 540.8359375 215.3359375 540.8359375 215.3359375 521.220703125 208.82421875 c 132,-1,78
 501.603515625 202.313476562 501.603515625 202.313476562 490.706054688 193.55078125 c 132,-1,79
 479.807617188 184.7890625 479.807617188 184.7890625 479.807617188 174.845703125 c 260,60,61
387.537109375 348.150390625 m 4,80,81
 387.537109375 364.015625 387.537109375 364.015625 405.701171875 377.986328125 c 132,-1,82
 423.864257812 391.95703125 423.864257812 391.95703125 455.83203125 402.2578125 c 132,-1,83
 487.80078125 412.557617188 487.80078125 412.557617188 531.029296875 418.477539062 c 132,-1,84
 574.2578125 424.397460938 574.2578125 424.397460938 624.388671875 424.397460938 c 260,85,86
 674.51953125 424.397460938 674.51953125 424.397460938 717.748046875 418.477539062 c 132,-1,87
 760.9765625 412.557617188 760.9765625 412.557617188 792.9453125 402.2578125 c 132,-1,88
 824.913085938 391.95703125 824.913085938 391.95703125 843.076171875 377.986328125 c 132,-1,89
 861.239257812 364.015625 861.239257812 364.015625 861.239257812 348.150390625 c 4,90,91
 861.239257812 332.522460938 861.239257812 332.522460938 843.076171875 318.670898438 c 132,-1,92
 824.913085938 304.819335938 824.913085938 304.819335938 792.9453125 294.517578125 c 132,-1,93
 760.9765625 284.217773438 760.9765625 284.217773438 717.748046875 278.1796875 c 132,-1,94
 674.51953125 272.140625 674.51953125 272.140625 624.388671875 272.140625 c 260,95,96
 574.2578125 272.140625 574.2578125 272.140625 531.029296875 278.1796875 c 132,-1,97
 487.80078125 284.217773438 487.80078125 284.217773438 455.83203125 294.517578125 c 132,-1,98
 423.864257812 304.819335938 423.864257812 304.819335938 405.701171875 318.670898438 c 132,-1,99
 387.537109375 332.522460938 387.537109375 332.522460938 387.537109375 348.150390625 c 4,80,81
479.807617188 347.9140625 m 260,100,101
 479.807617188 337.96875 479.807617188 337.96875 490.706054688 329.326171875 c 132,-1,102
 501.603515625 320.68359375 501.603515625 320.68359375 521.220703125 314.290039062 c 132,-1,103
 540.8359375 307.896484375 540.8359375 307.896484375 567.35546875 304.2265625 c 132,-1,104
 593.874023438 300.555664062 593.874023438 300.555664062 624.388671875 300.555664062 c 260,105,106
 654.90234375 300.555664062 654.90234375 300.555664062 681.057617188 304.2265625 c 132,-1,107
 707.213867188 307.896484375 707.213867188 307.896484375 726.829101562 314.290039062 c 132,-1,108
 746.446289062 320.68359375 746.446289062 320.68359375 757.345703125 329.326171875 c 132,-1,109
 768.2421875 337.96875 768.2421875 337.96875 768.2421875 347.9140625 c 260,110,111
 768.2421875 357.859375 768.2421875 357.859375 757.345703125 366.620117188 c 132,-1,112
 746.446289062 375.381835938 746.446289062 375.381835938 726.829101562 381.893554688 c 132,-1,113
 707.213867188 388.404296875 707.213867188 388.404296875 681.057617188 392.075195312 c 132,-1,114
 654.90234375 395.74609375 654.90234375 395.74609375 624.388671875 395.74609375 c 260,115,116
 593.874023438 395.74609375 593.874023438 395.74609375 567.35546875 392.075195312 c 132,-1,117
 540.8359375 388.404296875 540.8359375 388.404296875 521.220703125 381.893554688 c 132,-1,118
 501.603515625 375.381835938 501.603515625 375.381835938 490.706054688 366.620117188 c 132,-1,119
 479.807617188 357.859375 479.807617188 357.859375 479.807617188 347.9140625 c 260,100,101
387.537109375 519.646484375 m 4,120,121
 387.537109375 535.51171875 387.537109375 535.51171875 405.701171875 549.481445312 c 132,-1,122
 423.864257812 563.454101562 423.864257812 563.454101562 455.83203125 573.75390625 c 132,-1,123
 487.80078125 584.053710938 487.80078125 584.053710938 531.029296875 589.97265625 c 132,-1,124
 574.2578125 595.892578125 574.2578125 595.892578125 624.388671875 595.892578125 c 260,125,126
 674.51953125 595.892578125 674.51953125 595.892578125 717.748046875 589.97265625 c 132,-1,127
 760.9765625 584.053710938 760.9765625 584.053710938 792.9453125 573.75390625 c 132,-1,128
 824.913085938 563.454101562 824.913085938 563.454101562 843.076171875 549.481445312 c 132,-1,129
 861.239257812 535.51171875 861.239257812 535.51171875 861.239257812 519.646484375 c 4,130,131
 861.239257812 504.018554688 861.239257812 504.018554688 843.076171875 490.166015625 c 132,-1,132
 824.913085938 476.314453125 824.913085938 476.314453125 792.9453125 466.013671875 c 132,-1,133
 760.9765625 455.713867188 760.9765625 455.713867188 717.748046875 449.67578125 c 132,-1,134
 674.51953125 443.63671875 674.51953125 443.63671875 624.388671875 443.63671875 c 260,135,136
 574.2578125 443.63671875 574.2578125 443.63671875 531.029296875 449.67578125 c 132,-1,137
 487.80078125 455.713867188 487.80078125 455.713867188 455.83203125 466.013671875 c 132,-1,138
 423.864257812 476.314453125 423.864257812 476.314453125 405.701171875 490.166015625 c 132,-1,139
 387.537109375 504.018554688 387.537109375 504.018554688 387.537109375 519.646484375 c 4,120,121
479.807617188 519.41015625 m 260,140,141
 479.807617188 509.46484375 479.807617188 509.46484375 490.706054688 500.822265625 c 132,-1,142
 501.603515625 492.1796875 501.603515625 492.1796875 521.220703125 485.78515625 c 132,-1,143
 540.8359375 479.391601562 540.8359375 479.391601562 567.35546875 475.721679688 c 132,-1,144
 593.874023438 472.051757812 593.874023438 472.051757812 624.388671875 472.051757812 c 260,145,146
 654.90234375 472.051757812 654.90234375 472.051757812 681.057617188 475.721679688 c 132,-1,147
 707.213867188 479.391601562 707.213867188 479.391601562 726.829101562 485.78515625 c 132,-1,148
 746.446289062 492.1796875 746.446289062 492.1796875 757.345703125 500.822265625 c 132,-1,149
 768.2421875 509.46484375 768.2421875 509.46484375 768.2421875 519.41015625 c 260,150,151
 768.2421875 529.35546875 768.2421875 529.35546875 757.345703125 538.116210938 c 132,-1,152
 746.446289062 546.877929688 746.446289062 546.877929688 726.829101562 553.389648438 c 132,-1,153
 707.213867188 559.901367188 707.213867188 559.901367188 681.057617188 563.571289062 c 132,-1,154
 654.90234375 567.2421875 654.90234375 567.2421875 624.388671875 567.2421875 c 260,155,156
 593.874023438 567.2421875 593.874023438 567.2421875 567.35546875 563.571289062 c 132,-1,157
 540.8359375 559.901367188 540.8359375 559.901367188 521.220703125 553.389648438 c 132,-1,158
 501.603515625 546.877929688 501.603515625 546.877929688 490.706054688 538.116210938 c 132,-1,159
 479.807617188 529.35546875 479.807617188 529.35546875 479.807617188 519.41015625 c 260,140,141
EndSplineSet
EndChar

StartChar: uni0091
Encoding: 145 145 97
Width: 1209
VWidth: 2000
Flags: W
LayerCount: 2
Fore
SplineSet
387.537109375 3.5859375 m 0,0,1
 387.537109375 19.451171875 387.537109375 19.451171875 405.701171875 33.4208984375 c 128,-1,2
 423.864257812 47.3916015625 423.864257812 47.3916015625 455.83203125 57.693359375 c 128,-1,3
 487.80078125 67.9921875 487.80078125 67.9921875 531.029296875 73.912109375 c 128,-1,4
 574.2578125 79.8310546875 574.2578125 79.8310546875 624.388671875 79.8310546875 c 256,5,6
 674.51953125 79.8310546875 674.51953125 79.8310546875 717.748046875 73.912109375 c 128,-1,7
 760.9765625 67.9921875 760.9765625 67.9921875 792.9453125 57.693359375 c 128,-1,8
 824.913085938 47.3916015625 824.913085938 47.3916015625 843.076171875 33.4208984375 c 128,-1,9
 861.239257812 19.451171875 861.239257812 19.451171875 861.239257812 3.5859375 c 0,10,11
 861.239257812 -12.04296875 861.239257812 -12.04296875 843.076171875 -25.8955078125 c 128,-1,12
 824.913085938 -39.7470703125 824.913085938 -39.7470703125 792.9453125 -50.0478515625 c 128,-1,13
 760.9765625 -60.3466796875 760.9765625 -60.3466796875 717.748046875 -66.3857421875 c 128,-1,14
 674.51953125 -72.423828125 674.51953125 -72.423828125 624.388671875 -72.423828125 c 256,15,16
 574.2578125 -72.423828125 574.2578125 -72.423828125 531.029296875 -66.3857421875 c 128,-1,17
 487.80078125 -60.3466796875 487.80078125 -60.3466796875 455.83203125 -50.0478515625 c 128,-1,18
 423.864257812 -39.7470703125 423.864257812 -39.7470703125 405.701171875 -25.8955078125 c 128,-1,19
 387.537109375 -12.04296875 387.537109375 -12.04296875 387.537109375 3.5859375 c 0,0,1
387.537109375 175.08203125 m 0,20,21
 387.537109375 190.947265625 387.537109375 190.947265625 405.701171875 204.916992188 c 128,-1,22
 423.864257812 218.888671875 423.864257812 218.888671875 455.83203125 229.188476562 c 128,-1,23
 487.80078125 239.489257812 487.80078125 239.489257812 531.029296875 245.408203125 c 128,-1,24
 574.2578125 251.327148438 574.2578125 251.327148438 624.388671875 251.327148438 c 256,25,26
 674.51953125 251.327148438 674.51953125 251.327148438 717.748046875 245.408203125 c 128,-1,27
 760.9765625 239.489257812 760.9765625 239.489257812 792.9453125 229.188476562 c 128,-1,28
 824.913085938 218.888671875 824.913085938 218.888671875 843.076171875 204.916992188 c 128,-1,29
 861.239257812 190.947265625 861.239257812 190.947265625 861.239257812 175.08203125 c 0,30,31
 861.239257812 159.453125 861.239257812 159.453125 843.076171875 145.600585938 c 128,-1,32
 824.913085938 131.749023438 824.913085938 131.749023438 792.9453125 121.448242188 c 128,-1,33
 760.9765625 111.1484375 760.9765625 111.1484375 717.748046875 105.110351562 c 128,-1,34
 674.51953125 99.072265625 674.51953125 99.072265625 624.388671875 99.072265625 c 256,35,36
 574.2578125 99.072265625 574.2578125 99.072265625 531.029296875 105.110351562 c 128,-1,37
 487.80078125 111.1484375 487.80078125 111.1484375 455.83203125 121.448242188 c 128,-1,38
 423.864257812 131.749023438 423.864257812 131.749023438 405.701171875 145.600585938 c 128,-1,39
 387.537109375 159.453125 387.537109375 159.453125 387.537109375 175.08203125 c 0,20,21
479.807617188 174.845703125 m 256,40,41
 479.807617188 164.899414062 479.807617188 164.899414062 490.706054688 156.2578125 c 128,-1,42
 501.603515625 147.614257812 501.603515625 147.614257812 521.220703125 141.220703125 c 128,-1,43
 540.8359375 134.827148438 540.8359375 134.827148438 567.35546875 131.157226562 c 128,-1,44
 593.874023438 127.486328125 593.874023438 127.486328125 624.388671875 127.486328125 c 256,45,46
 654.90234375 127.486328125 654.90234375 127.486328125 681.057617188 131.157226562 c 128,-1,47
 707.213867188 134.827148438 707.213867188 134.827148438 726.829101562 141.220703125 c 128,-1,48
 746.446289062 147.614257812 746.446289062 147.614257812 757.345703125 156.2578125 c 128,-1,49
 768.2421875 164.899414062 768.2421875 164.899414062 768.2421875 174.845703125 c 256,50,51
 768.2421875 184.7890625 768.2421875 184.7890625 757.345703125 193.55078125 c 128,-1,52
 746.446289062 202.313476562 746.446289062 202.313476562 726.829101562 208.82421875 c 128,-1,53
 707.213867188 215.3359375 707.213867188 215.3359375 681.057617188 219.005859375 c 128,-1,54
 654.90234375 222.67578125 654.90234375 222.67578125 624.388671875 222.67578125 c 256,55,56
 593.874023438 222.67578125 593.874023438 222.67578125 567.35546875 219.005859375 c 128,-1,57
 540.8359375 215.3359375 540.8359375 215.3359375 521.220703125 208.82421875 c 128,-1,58
 501.603515625 202.313476562 501.603515625 202.313476562 490.706054688 193.55078125 c 128,-1,59
 479.807617188 184.7890625 479.807617188 184.7890625 479.807617188 174.845703125 c 256,40,41
387.537109375 348.150390625 m 0,60,61
 387.537109375 364.015625 387.537109375 364.015625 405.701171875 377.986328125 c 128,-1,62
 423.864257812 391.95703125 423.864257812 391.95703125 455.83203125 402.2578125 c 128,-1,63
 487.80078125 412.557617188 487.80078125 412.557617188 531.029296875 418.477539062 c 128,-1,64
 574.2578125 424.397460938 574.2578125 424.397460938 624.388671875 424.397460938 c 256,65,66
 674.51953125 424.397460938 674.51953125 424.397460938 717.748046875 418.477539062 c 128,-1,67
 760.9765625 412.557617188 760.9765625 412.557617188 792.9453125 402.2578125 c 128,-1,68
 824.913085938 391.95703125 824.913085938 391.95703125 843.076171875 377.986328125 c 128,-1,69
 861.239257812 364.015625 861.239257812 364.015625 861.239257812 348.150390625 c 0,70,71
 861.239257812 332.522460938 861.239257812 332.522460938 843.076171875 318.670898438 c 128,-1,72
 824.913085938 304.819335938 824.913085938 304.819335938 792.9453125 294.517578125 c 128,-1,73
 760.9765625 284.217773438 760.9765625 284.217773438 717.748046875 278.1796875 c 128,-1,74
 674.51953125 272.140625 674.51953125 272.140625 624.388671875 272.140625 c 256,75,76
 574.2578125 272.140625 574.2578125 272.140625 531.029296875 278.1796875 c 128,-1,77
 487.80078125 284.217773438 487.80078125 284.217773438 455.83203125 294.517578125 c 128,-1,78
 423.864257812 304.819335938 423.864257812 304.819335938 405.701171875 318.670898438 c 128,-1,79
 387.537109375 332.522460938 387.537109375 332.522460938 387.537109375 348.150390625 c 0,60,61
479.807617188 347.9140625 m 256,80,81
 479.807617188 337.96875 479.807617188 337.96875 490.706054688 329.326171875 c 128,-1,82
 501.603515625 320.68359375 501.603515625 320.68359375 521.220703125 314.290039062 c 128,-1,83
 540.8359375 307.896484375 540.8359375 307.896484375 567.35546875 304.2265625 c 128,-1,84
 593.874023438 300.555664062 593.874023438 300.555664062 624.388671875 300.555664062 c 256,85,86
 654.90234375 300.555664062 654.90234375 300.555664062 681.057617188 304.2265625 c 128,-1,87
 707.213867188 307.896484375 707.213867188 307.896484375 726.829101562 314.290039062 c 128,-1,88
 746.446289062 320.68359375 746.446289062 320.68359375 757.345703125 329.326171875 c 128,-1,89
 768.2421875 337.96875 768.2421875 337.96875 768.2421875 347.9140625 c 256,90,91
 768.2421875 357.859375 768.2421875 357.859375 757.345703125 366.620117188 c 128,-1,92
 746.446289062 375.381835938 746.446289062 375.381835938 726.829101562 381.893554688 c 128,-1,93
 707.213867188 388.404296875 707.213867188 388.404296875 681.057617188 392.075195312 c 128,-1,94
 654.90234375 395.74609375 654.90234375 395.74609375 624.388671875 395.74609375 c 256,95,96
 593.874023438 395.74609375 593.874023438 395.74609375 567.35546875 392.075195312 c 128,-1,97
 540.8359375 388.404296875 540.8359375 388.404296875 521.220703125 381.893554688 c 128,-1,98
 501.603515625 375.381835938 501.603515625 375.381835938 490.706054688 366.620117188 c 128,-1,99
 479.807617188 357.859375 479.807617188 357.859375 479.807617188 347.9140625 c 256,80,81
387.537109375 519.646484375 m 0,100,101
 387.537109375 535.51171875 387.537109375 535.51171875 405.701171875 549.481445312 c 128,-1,102
 423.864257812 563.454101562 423.864257812 563.454101562 455.83203125 573.75390625 c 128,-1,103
 487.80078125 584.053710938 487.80078125 584.053710938 531.029296875 589.97265625 c 128,-1,104
 574.2578125 595.892578125 574.2578125 595.892578125 624.388671875 595.892578125 c 256,105,106
 674.51953125 595.892578125 674.51953125 595.892578125 717.748046875 589.97265625 c 128,-1,107
 760.9765625 584.053710938 760.9765625 584.053710938 792.9453125 573.75390625 c 128,-1,108
 824.913085938 563.454101562 824.913085938 563.454101562 843.076171875 549.481445312 c 128,-1,109
 861.239257812 535.51171875 861.239257812 535.51171875 861.239257812 519.646484375 c 0,110,111
 861.239257812 504.018554688 861.239257812 504.018554688 843.076171875 490.166015625 c 128,-1,112
 824.913085938 476.314453125 824.913085938 476.314453125 792.9453125 466.013671875 c 128,-1,113
 760.9765625 455.713867188 760.9765625 455.713867188 717.748046875 449.67578125 c 128,-1,114
 674.51953125 443.63671875 674.51953125 443.63671875 624.388671875 443.63671875 c 256,115,116
 574.2578125 443.63671875 574.2578125 443.63671875 531.029296875 449.67578125 c 128,-1,117
 487.80078125 455.713867188 487.80078125 455.713867188 455.83203125 466.013671875 c 128,-1,118
 423.864257812 476.314453125 423.864257812 476.314453125 405.701171875 490.166015625 c 128,-1,119
 387.537109375 504.018554688 387.537109375 504.018554688 387.537109375 519.646484375 c 0,100,101
479.807617188 519.41015625 m 256,120,121
 479.807617188 509.46484375 479.807617188 509.46484375 490.706054688 500.822265625 c 128,-1,122
 501.603515625 492.1796875 501.603515625 492.1796875 521.220703125 485.78515625 c 128,-1,123
 540.8359375 479.391601562 540.8359375 479.391601562 567.35546875 475.721679688 c 128,-1,124
 593.874023438 472.051757812 593.874023438 472.051757812 624.388671875 472.051757812 c 256,125,126
 654.90234375 472.051757812 654.90234375 472.051757812 681.057617188 475.721679688 c 128,-1,127
 707.213867188 479.391601562 707.213867188 479.391601562 726.829101562 485.78515625 c 128,-1,128
 746.446289062 492.1796875 746.446289062 492.1796875 757.345703125 500.822265625 c 128,-1,129
 768.2421875 509.46484375 768.2421875 509.46484375 768.2421875 519.41015625 c 256,130,131
 768.2421875 529.35546875 768.2421875 529.35546875 757.345703125 538.116210938 c 128,-1,132
 746.446289062 546.877929688 746.446289062 546.877929688 726.829101562 553.389648438 c 128,-1,133
 707.213867188 559.901367188 707.213867188 559.901367188 681.057617188 563.571289062 c 128,-1,134
 654.90234375 567.2421875 654.90234375 567.2421875 624.388671875 567.2421875 c 256,135,136
 593.874023438 567.2421875 593.874023438 567.2421875 567.35546875 563.571289062 c 128,-1,137
 540.8359375 559.901367188 540.8359375 559.901367188 521.220703125 553.389648438 c 128,-1,138
 501.603515625 546.877929688 501.603515625 546.877929688 490.706054688 538.116210938 c 128,-1,139
 479.807617188 529.35546875 479.807617188 529.35546875 479.807617188 519.41015625 c 256,120,121
EndSplineSet
EndChar

StartChar: uni0092
Encoding: 146 146 98
Width: 1209
VWidth: 2000
Flags: W
LayerCount: 2
Fore
SplineSet
387.537109375 3.5859375 m 0,0,1
 387.537109375 19.451171875 387.537109375 19.451171875 405.701171875 33.4208984375 c 128,-1,2
 423.864257812 47.3916015625 423.864257812 47.3916015625 455.83203125 57.693359375 c 128,-1,3
 487.80078125 67.9921875 487.80078125 67.9921875 531.029296875 73.912109375 c 128,-1,4
 574.2578125 79.8310546875 574.2578125 79.8310546875 624.388671875 79.8310546875 c 256,5,6
 674.51953125 79.8310546875 674.51953125 79.8310546875 717.748046875 73.912109375 c 128,-1,7
 760.9765625 67.9921875 760.9765625 67.9921875 792.9453125 57.693359375 c 128,-1,8
 824.913085938 47.3916015625 824.913085938 47.3916015625 843.076171875 33.4208984375 c 128,-1,9
 861.239257812 19.451171875 861.239257812 19.451171875 861.239257812 3.5859375 c 0,10,11
 861.239257812 -12.04296875 861.239257812 -12.04296875 843.076171875 -25.8955078125 c 128,-1,12
 824.913085938 -39.7470703125 824.913085938 -39.7470703125 792.9453125 -50.0478515625 c 128,-1,13
 760.9765625 -60.3466796875 760.9765625 -60.3466796875 717.748046875 -66.3857421875 c 128,-1,14
 674.51953125 -72.423828125 674.51953125 -72.423828125 624.388671875 -72.423828125 c 256,15,16
 574.2578125 -72.423828125 574.2578125 -72.423828125 531.029296875 -66.3857421875 c 128,-1,17
 487.80078125 -60.3466796875 487.80078125 -60.3466796875 455.83203125 -50.0478515625 c 128,-1,18
 423.864257812 -39.7470703125 423.864257812 -39.7470703125 405.701171875 -25.8955078125 c 128,-1,19
 387.537109375 -12.04296875 387.537109375 -12.04296875 387.537109375 3.5859375 c 0,0,1
479.807617188 3.3486328125 m 256,20,21
 479.807617188 -6.5966796875 479.807617188 -6.5966796875 490.706054688 -15.2392578125 c 128,-1,22
 501.603515625 -23.8818359375 501.603515625 -23.8818359375 521.220703125 -30.275390625 c 128,-1,23
 540.8359375 -36.6689453125 540.8359375 -36.6689453125 567.35546875 -40.3388671875 c 128,-1,24
 593.874023438 -44.0087890625 593.874023438 -44.0087890625 624.388671875 -44.0087890625 c 256,25,26
 654.90234375 -44.0087890625 654.90234375 -44.0087890625 681.057617188 -40.3388671875 c 128,-1,27
 707.213867188 -36.6689453125 707.213867188 -36.6689453125 726.829101562 -30.275390625 c 128,-1,28
 746.446289062 -23.8818359375 746.446289062 -23.8818359375 757.345703125 -15.2392578125 c 128,-1,29
 768.2421875 -6.5966796875 768.2421875 -6.5966796875 768.2421875 3.3486328125 c 256,30,31
 768.2421875 13.294921875 768.2421875 13.294921875 757.345703125 22.0546875 c 128,-1,32
 746.446289062 30.81640625 746.446289062 30.81640625 726.829101562 37.328125 c 128,-1,33
 707.213867188 43.8408203125 707.213867188 43.8408203125 681.057617188 47.509765625 c 128,-1,34
 654.90234375 51.1806640625 654.90234375 51.1806640625 624.388671875 51.1806640625 c 256,35,36
 593.874023438 51.1806640625 593.874023438 51.1806640625 567.35546875 47.509765625 c 128,-1,37
 540.8359375 43.8408203125 540.8359375 43.8408203125 521.220703125 37.328125 c 128,-1,38
 501.603515625 30.81640625 501.603515625 30.81640625 490.706054688 22.0546875 c 128,-1,39
 479.807617188 13.294921875 479.807617188 13.294921875 479.807617188 3.3486328125 c 256,20,21
387.537109375 175.08203125 m 0,40,41
 387.537109375 190.947265625 387.537109375 190.947265625 405.701171875 204.916992188 c 128,-1,42
 423.864257812 218.888671875 423.864257812 218.888671875 455.83203125 229.188476562 c 128,-1,43
 487.80078125 239.489257812 487.80078125 239.489257812 531.029296875 245.408203125 c 128,-1,44
 574.2578125 251.327148438 574.2578125 251.327148438 624.388671875 251.327148438 c 256,45,46
 674.51953125 251.327148438 674.51953125 251.327148438 717.748046875 245.408203125 c 128,-1,47
 760.9765625 239.489257812 760.9765625 239.489257812 792.9453125 229.188476562 c 128,-1,48
 824.913085938 218.888671875 824.913085938 218.888671875 843.076171875 204.916992188 c 128,-1,49
 861.239257812 190.947265625 861.239257812 190.947265625 861.239257812 175.08203125 c 0,50,51
 861.239257812 159.453125 861.239257812 159.453125 843.076171875 145.600585938 c 128,-1,52
 824.913085938 131.749023438 824.913085938 131.749023438 792.9453125 121.448242188 c 128,-1,53
 760.9765625 111.1484375 760.9765625 111.1484375 717.748046875 105.110351562 c 128,-1,54
 674.51953125 99.072265625 674.51953125 99.072265625 624.388671875 99.072265625 c 256,55,56
 574.2578125 99.072265625 574.2578125 99.072265625 531.029296875 105.110351562 c 128,-1,57
 487.80078125 111.1484375 487.80078125 111.1484375 455.83203125 121.448242188 c 128,-1,58
 423.864257812 131.749023438 423.864257812 131.749023438 405.701171875 145.600585938 c 128,-1,59
 387.537109375 159.453125 387.537109375 159.453125 387.537109375 175.08203125 c 0,40,41
387.537109375 348.150390625 m 0,60,61
 387.537109375 364.015625 387.537109375 364.015625 405.701171875 377.986328125 c 128,-1,62
 423.864257812 391.95703125 423.864257812 391.95703125 455.83203125 402.2578125 c 128,-1,63
 487.80078125 412.557617188 487.80078125 412.557617188 531.029296875 418.477539062 c 128,-1,64
 574.2578125 424.397460938 574.2578125 424.397460938 624.388671875 424.397460938 c 256,65,66
 674.51953125 424.397460938 674.51953125 424.397460938 717.748046875 418.477539062 c 128,-1,67
 760.9765625 412.557617188 760.9765625 412.557617188 792.9453125 402.2578125 c 128,-1,68
 824.913085938 391.95703125 824.913085938 391.95703125 843.076171875 377.986328125 c 128,-1,69
 861.239257812 364.015625 861.239257812 364.015625 861.239257812 348.150390625 c 0,70,71
 861.239257812 332.522460938 861.239257812 332.522460938 843.076171875 318.670898438 c 128,-1,72
 824.913085938 304.819335938 824.913085938 304.819335938 792.9453125 294.517578125 c 128,-1,73
 760.9765625 284.217773438 760.9765625 284.217773438 717.748046875 278.1796875 c 128,-1,74
 674.51953125 272.140625 674.51953125 272.140625 624.388671875 272.140625 c 256,75,76
 574.2578125 272.140625 574.2578125 272.140625 531.029296875 278.1796875 c 128,-1,77
 487.80078125 284.217773438 487.80078125 284.217773438 455.83203125 294.517578125 c 128,-1,78
 423.864257812 304.819335938 423.864257812 304.819335938 405.701171875 318.670898438 c 128,-1,79
 387.537109375 332.522460938 387.537109375 332.522460938 387.537109375 348.150390625 c 0,60,61
479.807617188 347.9140625 m 256,80,81
 479.807617188 337.96875 479.807617188 337.96875 490.706054688 329.326171875 c 128,-1,82
 501.603515625 320.68359375 501.603515625 320.68359375 521.220703125 314.290039062 c 128,-1,83
 540.8359375 307.896484375 540.8359375 307.896484375 567.35546875 304.2265625 c 128,-1,84
 593.874023438 300.555664062 593.874023438 300.555664062 624.388671875 300.555664062 c 256,85,86
 654.90234375 300.555664062 654.90234375 300.555664062 681.057617188 304.2265625 c 128,-1,87
 707.213867188 307.896484375 707.213867188 307.896484375 726.829101562 314.290039062 c 128,-1,88
 746.446289062 320.68359375 746.446289062 320.68359375 757.345703125 329.326171875 c 128,-1,89
 768.2421875 337.96875 768.2421875 337.96875 768.2421875 347.9140625 c 256,90,91
 768.2421875 357.859375 768.2421875 357.859375 757.345703125 366.620117188 c 128,-1,92
 746.446289062 375.381835938 746.446289062 375.381835938 726.829101562 381.893554688 c 128,-1,93
 707.213867188 388.404296875 707.213867188 388.404296875 681.057617188 392.075195312 c 128,-1,94
 654.90234375 395.74609375 654.90234375 395.74609375 624.388671875 395.74609375 c 256,95,96
 593.874023438 395.74609375 593.874023438 395.74609375 567.35546875 392.075195312 c 128,-1,97
 540.8359375 388.404296875 540.8359375 388.404296875 521.220703125 381.893554688 c 128,-1,98
 501.603515625 375.381835938 501.603515625 375.381835938 490.706054688 366.620117188 c 128,-1,99
 479.807617188 357.859375 479.807617188 357.859375 479.807617188 347.9140625 c 256,80,81
387.537109375 519.646484375 m 0,100,101
 387.537109375 535.51171875 387.537109375 535.51171875 405.701171875 549.481445312 c 128,-1,102
 423.864257812 563.454101562 423.864257812 563.454101562 455.83203125 573.75390625 c 128,-1,103
 487.80078125 584.053710938 487.80078125 584.053710938 531.029296875 589.97265625 c 128,-1,104
 574.2578125 595.892578125 574.2578125 595.892578125 624.388671875 595.892578125 c 256,105,106
 674.51953125 595.892578125 674.51953125 595.892578125 717.748046875 589.97265625 c 128,-1,107
 760.9765625 584.053710938 760.9765625 584.053710938 792.9453125 573.75390625 c 128,-1,108
 824.913085938 563.454101562 824.913085938 563.454101562 843.076171875 549.481445312 c 128,-1,109
 861.239257812 535.51171875 861.239257812 535.51171875 861.239257812 519.646484375 c 0,110,111
 861.239257812 504.018554688 861.239257812 504.018554688 843.076171875 490.166015625 c 128,-1,112
 824.913085938 476.314453125 824.913085938 476.314453125 792.9453125 466.013671875 c 128,-1,113
 760.9765625 455.713867188 760.9765625 455.713867188 717.748046875 449.67578125 c 128,-1,114
 674.51953125 443.63671875 674.51953125 443.63671875 624.388671875 443.63671875 c 256,115,116
 574.2578125 443.63671875 574.2578125 443.63671875 531.029296875 449.67578125 c 128,-1,117
 487.80078125 455.713867188 487.80078125 455.713867188 455.83203125 466.013671875 c 128,-1,118
 423.864257812 476.314453125 423.864257812 476.314453125 405.701171875 490.166015625 c 128,-1,119
 387.537109375 504.018554688 387.537109375 504.018554688 387.537109375 519.646484375 c 0,100,101
479.807617188 519.41015625 m 256,120,121
 479.807617188 509.46484375 479.807617188 509.46484375 490.706054688 500.822265625 c 128,-1,122
 501.603515625 492.1796875 501.603515625 492.1796875 521.220703125 485.78515625 c 128,-1,123
 540.8359375 479.391601562 540.8359375 479.391601562 567.35546875 475.721679688 c 128,-1,124
 593.874023438 472.051757812 593.874023438 472.051757812 624.388671875 472.051757812 c 256,125,126
 654.90234375 472.051757812 654.90234375 472.051757812 681.057617188 475.721679688 c 128,-1,127
 707.213867188 479.391601562 707.213867188 479.391601562 726.829101562 485.78515625 c 128,-1,128
 746.446289062 492.1796875 746.446289062 492.1796875 757.345703125 500.822265625 c 128,-1,129
 768.2421875 509.46484375 768.2421875 509.46484375 768.2421875 519.41015625 c 256,130,131
 768.2421875 529.35546875 768.2421875 529.35546875 757.345703125 538.116210938 c 128,-1,132
 746.446289062 546.877929688 746.446289062 546.877929688 726.829101562 553.389648438 c 128,-1,133
 707.213867188 559.901367188 707.213867188 559.901367188 681.057617188 563.571289062 c 128,-1,134
 654.90234375 567.2421875 654.90234375 567.2421875 624.388671875 567.2421875 c 256,135,136
 593.874023438 567.2421875 593.874023438 567.2421875 567.35546875 563.571289062 c 128,-1,137
 540.8359375 559.901367188 540.8359375 559.901367188 521.220703125 553.389648438 c 128,-1,138
 501.603515625 546.877929688 501.603515625 546.877929688 490.706054688 538.116210938 c 128,-1,139
 479.807617188 529.35546875 479.807617188 529.35546875 479.807617188 519.41015625 c 256,120,121
EndSplineSet
EndChar

StartChar: uni0093
Encoding: 147 147 99
Width: 1209
VWidth: 2000
Flags: W
LayerCount: 2
Fore
SplineSet
387.537109375 3.5859375 m 0,0,1
 387.537109375 19.451171875 387.537109375 19.451171875 405.701171875 33.4208984375 c 128,-1,2
 423.864257812 47.3916015625 423.864257812 47.3916015625 455.83203125 57.693359375 c 128,-1,3
 487.80078125 67.9921875 487.80078125 67.9921875 531.029296875 73.912109375 c 128,-1,4
 574.2578125 79.8310546875 574.2578125 79.8310546875 624.388671875 79.8310546875 c 256,5,6
 674.51953125 79.8310546875 674.51953125 79.8310546875 717.748046875 73.912109375 c 128,-1,7
 760.9765625 67.9921875 760.9765625 67.9921875 792.9453125 57.693359375 c 128,-1,8
 824.913085938 47.3916015625 824.913085938 47.3916015625 843.076171875 33.4208984375 c 128,-1,9
 861.239257812 19.451171875 861.239257812 19.451171875 861.239257812 3.5859375 c 0,10,11
 861.239257812 -12.04296875 861.239257812 -12.04296875 843.076171875 -25.8955078125 c 128,-1,12
 824.913085938 -39.7470703125 824.913085938 -39.7470703125 792.9453125 -50.0478515625 c 128,-1,13
 760.9765625 -60.3466796875 760.9765625 -60.3466796875 717.748046875 -66.3857421875 c 128,-1,14
 674.51953125 -72.423828125 674.51953125 -72.423828125 624.388671875 -72.423828125 c 256,15,16
 574.2578125 -72.423828125 574.2578125 -72.423828125 531.029296875 -66.3857421875 c 128,-1,17
 487.80078125 -60.3466796875 487.80078125 -60.3466796875 455.83203125 -50.0478515625 c 128,-1,18
 423.864257812 -39.7470703125 423.864257812 -39.7470703125 405.701171875 -25.8955078125 c 128,-1,19
 387.537109375 -12.04296875 387.537109375 -12.04296875 387.537109375 3.5859375 c 0,0,1
387.537109375 175.08203125 m 0,20,21
 387.537109375 190.947265625 387.537109375 190.947265625 405.701171875 204.916992188 c 128,-1,22
 423.864257812 218.888671875 423.864257812 218.888671875 455.83203125 229.188476562 c 128,-1,23
 487.80078125 239.489257812 487.80078125 239.489257812 531.029296875 245.408203125 c 128,-1,24
 574.2578125 251.327148438 574.2578125 251.327148438 624.388671875 251.327148438 c 256,25,26
 674.51953125 251.327148438 674.51953125 251.327148438 717.748046875 245.408203125 c 128,-1,27
 760.9765625 239.489257812 760.9765625 239.489257812 792.9453125 229.188476562 c 128,-1,28
 824.913085938 218.888671875 824.913085938 218.888671875 843.076171875 204.916992188 c 128,-1,29
 861.239257812 190.947265625 861.239257812 190.947265625 861.239257812 175.08203125 c 0,30,31
 861.239257812 159.453125 861.239257812 159.453125 843.076171875 145.600585938 c 128,-1,32
 824.913085938 131.749023438 824.913085938 131.749023438 792.9453125 121.448242188 c 128,-1,33
 760.9765625 111.1484375 760.9765625 111.1484375 717.748046875 105.110351562 c 128,-1,34
 674.51953125 99.072265625 674.51953125 99.072265625 624.388671875 99.072265625 c 256,35,36
 574.2578125 99.072265625 574.2578125 99.072265625 531.029296875 105.110351562 c 128,-1,37
 487.80078125 111.1484375 487.80078125 111.1484375 455.83203125 121.448242188 c 128,-1,38
 423.864257812 131.749023438 423.864257812 131.749023438 405.701171875 145.600585938 c 128,-1,39
 387.537109375 159.453125 387.537109375 159.453125 387.537109375 175.08203125 c 0,20,21
387.537109375 348.150390625 m 0,40,41
 387.537109375 364.015625 387.537109375 364.015625 405.701171875 377.986328125 c 128,-1,42
 423.864257812 391.95703125 423.864257812 391.95703125 455.83203125 402.2578125 c 128,-1,43
 487.80078125 412.557617188 487.80078125 412.557617188 531.029296875 418.477539062 c 128,-1,44
 574.2578125 424.397460938 574.2578125 424.397460938 624.388671875 424.397460938 c 256,45,46
 674.51953125 424.397460938 674.51953125 424.397460938 717.748046875 418.477539062 c 128,-1,47
 760.9765625 412.557617188 760.9765625 412.557617188 792.9453125 402.2578125 c 128,-1,48
 824.913085938 391.95703125 824.913085938 391.95703125 843.076171875 377.986328125 c 128,-1,49
 861.239257812 364.015625 861.239257812 364.015625 861.239257812 348.150390625 c 0,50,51
 861.239257812 332.522460938 861.239257812 332.522460938 843.076171875 318.670898438 c 128,-1,52
 824.913085938 304.819335938 824.913085938 304.819335938 792.9453125 294.517578125 c 128,-1,53
 760.9765625 284.217773438 760.9765625 284.217773438 717.748046875 278.1796875 c 128,-1,54
 674.51953125 272.140625 674.51953125 272.140625 624.388671875 272.140625 c 256,55,56
 574.2578125 272.140625 574.2578125 272.140625 531.029296875 278.1796875 c 128,-1,57
 487.80078125 284.217773438 487.80078125 284.217773438 455.83203125 294.517578125 c 128,-1,58
 423.864257812 304.819335938 423.864257812 304.819335938 405.701171875 318.670898438 c 128,-1,59
 387.537109375 332.522460938 387.537109375 332.522460938 387.537109375 348.150390625 c 0,40,41
479.807617188 347.9140625 m 256,60,61
 479.807617188 337.96875 479.807617188 337.96875 490.706054688 329.326171875 c 128,-1,62
 501.603515625 320.68359375 501.603515625 320.68359375 521.220703125 314.290039062 c 128,-1,63
 540.8359375 307.896484375 540.8359375 307.896484375 567.35546875 304.2265625 c 128,-1,64
 593.874023438 300.555664062 593.874023438 300.555664062 624.388671875 300.555664062 c 256,65,66
 654.90234375 300.555664062 654.90234375 300.555664062 681.057617188 304.2265625 c 128,-1,67
 707.213867188 307.896484375 707.213867188 307.896484375 726.829101562 314.290039062 c 128,-1,68
 746.446289062 320.68359375 746.446289062 320.68359375 757.345703125 329.326171875 c 128,-1,69
 768.2421875 337.96875 768.2421875 337.96875 768.2421875 347.9140625 c 256,70,71
 768.2421875 357.859375 768.2421875 357.859375 757.345703125 366.620117188 c 128,-1,72
 746.446289062 375.381835938 746.446289062 375.381835938 726.829101562 381.893554688 c 128,-1,73
 707.213867188 388.404296875 707.213867188 388.404296875 681.057617188 392.075195312 c 128,-1,74
 654.90234375 395.74609375 654.90234375 395.74609375 624.388671875 395.74609375 c 256,75,76
 593.874023438 395.74609375 593.874023438 395.74609375 567.35546875 392.075195312 c 128,-1,77
 540.8359375 388.404296875 540.8359375 388.404296875 521.220703125 381.893554688 c 128,-1,78
 501.603515625 375.381835938 501.603515625 375.381835938 490.706054688 366.620117188 c 128,-1,79
 479.807617188 357.859375 479.807617188 357.859375 479.807617188 347.9140625 c 256,60,61
387.537109375 519.646484375 m 0,80,81
 387.537109375 535.51171875 387.537109375 535.51171875 405.701171875 549.481445312 c 128,-1,82
 423.864257812 563.454101562 423.864257812 563.454101562 455.83203125 573.75390625 c 128,-1,83
 487.80078125 584.053710938 487.80078125 584.053710938 531.029296875 589.97265625 c 128,-1,84
 574.2578125 595.892578125 574.2578125 595.892578125 624.388671875 595.892578125 c 256,85,86
 674.51953125 595.892578125 674.51953125 595.892578125 717.748046875 589.97265625 c 128,-1,87
 760.9765625 584.053710938 760.9765625 584.053710938 792.9453125 573.75390625 c 128,-1,88
 824.913085938 563.454101562 824.913085938 563.454101562 843.076171875 549.481445312 c 128,-1,89
 861.239257812 535.51171875 861.239257812 535.51171875 861.239257812 519.646484375 c 0,90,91
 861.239257812 504.018554688 861.239257812 504.018554688 843.076171875 490.166015625 c 128,-1,92
 824.913085938 476.314453125 824.913085938 476.314453125 792.9453125 466.013671875 c 128,-1,93
 760.9765625 455.713867188 760.9765625 455.713867188 717.748046875 449.67578125 c 128,-1,94
 674.51953125 443.63671875 674.51953125 443.63671875 624.388671875 443.63671875 c 256,95,96
 574.2578125 443.63671875 574.2578125 443.63671875 531.029296875 449.67578125 c 128,-1,97
 487.80078125 455.713867188 487.80078125 455.713867188 455.83203125 466.013671875 c 128,-1,98
 423.864257812 476.314453125 423.864257812 476.314453125 405.701171875 490.166015625 c 128,-1,99
 387.537109375 504.018554688 387.537109375 504.018554688 387.537109375 519.646484375 c 0,80,81
479.807617188 519.41015625 m 256,100,101
 479.807617188 509.46484375 479.807617188 509.46484375 490.706054688 500.822265625 c 128,-1,102
 501.603515625 492.1796875 501.603515625 492.1796875 521.220703125 485.78515625 c 128,-1,103
 540.8359375 479.391601562 540.8359375 479.391601562 567.35546875 475.721679688 c 128,-1,104
 593.874023438 472.051757812 593.874023438 472.051757812 624.388671875 472.051757812 c 256,105,106
 654.90234375 472.051757812 654.90234375 472.051757812 681.057617188 475.721679688 c 128,-1,107
 707.213867188 479.391601562 707.213867188 479.391601562 726.829101562 485.78515625 c 128,-1,108
 746.446289062 492.1796875 746.446289062 492.1796875 757.345703125 500.822265625 c 128,-1,109
 768.2421875 509.46484375 768.2421875 509.46484375 768.2421875 519.41015625 c 256,110,111
 768.2421875 529.35546875 768.2421875 529.35546875 757.345703125 538.116210938 c 128,-1,112
 746.446289062 546.877929688 746.446289062 546.877929688 726.829101562 553.389648438 c 128,-1,113
 707.213867188 559.901367188 707.213867188 559.901367188 681.057617188 563.571289062 c 128,-1,114
 654.90234375 567.2421875 654.90234375 567.2421875 624.388671875 567.2421875 c 256,115,116
 593.874023438 567.2421875 593.874023438 567.2421875 567.35546875 563.571289062 c 128,-1,117
 540.8359375 559.901367188 540.8359375 559.901367188 521.220703125 553.389648438 c 128,-1,118
 501.603515625 546.877929688 501.603515625 546.877929688 490.706054688 538.116210938 c 128,-1,119
 479.807617188 529.35546875 479.807617188 529.35546875 479.807617188 519.41015625 c 256,100,101
EndSplineSet
EndChar

StartChar: uni0094
Encoding: 148 148 100
Width: 1209
VWidth: 2000
Flags: W
LayerCount: 2
Fore
SplineSet
387.537109375 3.5859375 m 0,0,1
 387.537109375 19.451171875 387.537109375 19.451171875 405.701171875 33.4208984375 c 128,-1,2
 423.864257812 47.3916015625 423.864257812 47.3916015625 455.83203125 57.693359375 c 128,-1,3
 487.80078125 67.9921875 487.80078125 67.9921875 531.029296875 73.912109375 c 128,-1,4
 574.2578125 79.8310546875 574.2578125 79.8310546875 624.388671875 79.8310546875 c 256,5,6
 674.51953125 79.8310546875 674.51953125 79.8310546875 717.748046875 73.912109375 c 128,-1,7
 760.9765625 67.9921875 760.9765625 67.9921875 792.9453125 57.693359375 c 128,-1,8
 824.913085938 47.3916015625 824.913085938 47.3916015625 843.076171875 33.4208984375 c 128,-1,9
 861.239257812 19.451171875 861.239257812 19.451171875 861.239257812 3.5859375 c 0,10,11
 861.239257812 -12.04296875 861.239257812 -12.04296875 843.076171875 -25.8955078125 c 128,-1,12
 824.913085938 -39.7470703125 824.913085938 -39.7470703125 792.9453125 -50.0478515625 c 128,-1,13
 760.9765625 -60.3466796875 760.9765625 -60.3466796875 717.748046875 -66.3857421875 c 128,-1,14
 674.51953125 -72.423828125 674.51953125 -72.423828125 624.388671875 -72.423828125 c 256,15,16
 574.2578125 -72.423828125 574.2578125 -72.423828125 531.029296875 -66.3857421875 c 128,-1,17
 487.80078125 -60.3466796875 487.80078125 -60.3466796875 455.83203125 -50.0478515625 c 128,-1,18
 423.864257812 -39.7470703125 423.864257812 -39.7470703125 405.701171875 -25.8955078125 c 128,-1,19
 387.537109375 -12.04296875 387.537109375 -12.04296875 387.537109375 3.5859375 c 0,0,1
479.807617188 3.3486328125 m 256,20,21
 479.807617188 -6.5966796875 479.807617188 -6.5966796875 490.706054688 -15.2392578125 c 128,-1,22
 501.603515625 -23.8818359375 501.603515625 -23.8818359375 521.220703125 -30.275390625 c 128,-1,23
 540.8359375 -36.6689453125 540.8359375 -36.6689453125 567.35546875 -40.3388671875 c 128,-1,24
 593.874023438 -44.0087890625 593.874023438 -44.0087890625 624.388671875 -44.0087890625 c 256,25,26
 654.90234375 -44.0087890625 654.90234375 -44.0087890625 681.057617188 -40.3388671875 c 128,-1,27
 707.213867188 -36.6689453125 707.213867188 -36.6689453125 726.829101562 -30.275390625 c 128,-1,28
 746.446289062 -23.8818359375 746.446289062 -23.8818359375 757.345703125 -15.2392578125 c 128,-1,29
 768.2421875 -6.5966796875 768.2421875 -6.5966796875 768.2421875 3.3486328125 c 256,30,31
 768.2421875 13.294921875 768.2421875 13.294921875 757.345703125 22.0546875 c 128,-1,32
 746.446289062 30.81640625 746.446289062 30.81640625 726.829101562 37.328125 c 128,-1,33
 707.213867188 43.8408203125 707.213867188 43.8408203125 681.057617188 47.509765625 c 128,-1,34
 654.90234375 51.1806640625 654.90234375 51.1806640625 624.388671875 51.1806640625 c 256,35,36
 593.874023438 51.1806640625 593.874023438 51.1806640625 567.35546875 47.509765625 c 128,-1,37
 540.8359375 43.8408203125 540.8359375 43.8408203125 521.220703125 37.328125 c 128,-1,38
 501.603515625 30.81640625 501.603515625 30.81640625 490.706054688 22.0546875 c 128,-1,39
 479.807617188 13.294921875 479.807617188 13.294921875 479.807617188 3.3486328125 c 256,20,21
387.537109375 175.08203125 m 0,40,41
 387.537109375 190.947265625 387.537109375 190.947265625 405.701171875 204.916992188 c 128,-1,42
 423.864257812 218.888671875 423.864257812 218.888671875 455.83203125 229.188476562 c 128,-1,43
 487.80078125 239.489257812 487.80078125 239.489257812 531.029296875 245.408203125 c 128,-1,44
 574.2578125 251.327148438 574.2578125 251.327148438 624.388671875 251.327148438 c 256,45,46
 674.51953125 251.327148438 674.51953125 251.327148438 717.748046875 245.408203125 c 128,-1,47
 760.9765625 239.489257812 760.9765625 239.489257812 792.9453125 229.188476562 c 128,-1,48
 824.913085938 218.888671875 824.913085938 218.888671875 843.076171875 204.916992188 c 128,-1,49
 861.239257812 190.947265625 861.239257812 190.947265625 861.239257812 175.08203125 c 0,50,51
 861.239257812 159.453125 861.239257812 159.453125 843.076171875 145.600585938 c 128,-1,52
 824.913085938 131.749023438 824.913085938 131.749023438 792.9453125 121.448242188 c 128,-1,53
 760.9765625 111.1484375 760.9765625 111.1484375 717.748046875 105.110351562 c 128,-1,54
 674.51953125 99.072265625 674.51953125 99.072265625 624.388671875 99.072265625 c 256,55,56
 574.2578125 99.072265625 574.2578125 99.072265625 531.029296875 105.110351562 c 128,-1,57
 487.80078125 111.1484375 487.80078125 111.1484375 455.83203125 121.448242188 c 128,-1,58
 423.864257812 131.749023438 423.864257812 131.749023438 405.701171875 145.600585938 c 128,-1,59
 387.537109375 159.453125 387.537109375 159.453125 387.537109375 175.08203125 c 0,40,41
479.807617188 174.845703125 m 256,60,61
 479.807617188 164.899414062 479.807617188 164.899414062 490.706054688 156.2578125 c 128,-1,62
 501.603515625 147.614257812 501.603515625 147.614257812 521.220703125 141.220703125 c 128,-1,63
 540.8359375 134.827148438 540.8359375 134.827148438 567.35546875 131.157226562 c 128,-1,64
 593.874023438 127.486328125 593.874023438 127.486328125 624.388671875 127.486328125 c 256,65,66
 654.90234375 127.486328125 654.90234375 127.486328125 681.057617188 131.157226562 c 128,-1,67
 707.213867188 134.827148438 707.213867188 134.827148438 726.829101562 141.220703125 c 128,-1,68
 746.446289062 147.614257812 746.446289062 147.614257812 757.345703125 156.2578125 c 128,-1,69
 768.2421875 164.899414062 768.2421875 164.899414062 768.2421875 174.845703125 c 256,70,71
 768.2421875 184.7890625 768.2421875 184.7890625 757.345703125 193.55078125 c 128,-1,72
 746.446289062 202.313476562 746.446289062 202.313476562 726.829101562 208.82421875 c 128,-1,73
 707.213867188 215.3359375 707.213867188 215.3359375 681.057617188 219.005859375 c 128,-1,74
 654.90234375 222.67578125 654.90234375 222.67578125 624.388671875 222.67578125 c 256,75,76
 593.874023438 222.67578125 593.874023438 222.67578125 567.35546875 219.005859375 c 128,-1,77
 540.8359375 215.3359375 540.8359375 215.3359375 521.220703125 208.82421875 c 128,-1,78
 501.603515625 202.313476562 501.603515625 202.313476562 490.706054688 193.55078125 c 128,-1,79
 479.807617188 184.7890625 479.807617188 184.7890625 479.807617188 174.845703125 c 256,60,61
387.537109375 348.150390625 m 0,80,81
 387.537109375 364.015625 387.537109375 364.015625 405.701171875 377.986328125 c 128,-1,82
 423.864257812 391.95703125 423.864257812 391.95703125 455.83203125 402.2578125 c 128,-1,83
 487.80078125 412.557617188 487.80078125 412.557617188 531.029296875 418.477539062 c 128,-1,84
 574.2578125 424.397460938 574.2578125 424.397460938 624.388671875 424.397460938 c 256,85,86
 674.51953125 424.397460938 674.51953125 424.397460938 717.748046875 418.477539062 c 128,-1,87
 760.9765625 412.557617188 760.9765625 412.557617188 792.9453125 402.2578125 c 128,-1,88
 824.913085938 391.95703125 824.913085938 391.95703125 843.076171875 377.986328125 c 128,-1,89
 861.239257812 364.015625 861.239257812 364.015625 861.239257812 348.150390625 c 0,90,91
 861.239257812 332.522460938 861.239257812 332.522460938 843.076171875 318.670898438 c 128,-1,92
 824.913085938 304.819335938 824.913085938 304.819335938 792.9453125 294.517578125 c 128,-1,93
 760.9765625 284.217773438 760.9765625 284.217773438 717.748046875 278.1796875 c 128,-1,94
 674.51953125 272.140625 674.51953125 272.140625 624.388671875 272.140625 c 256,95,96
 574.2578125 272.140625 574.2578125 272.140625 531.029296875 278.1796875 c 128,-1,97
 487.80078125 284.217773438 487.80078125 284.217773438 455.83203125 294.517578125 c 128,-1,98
 423.864257812 304.819335938 423.864257812 304.819335938 405.701171875 318.670898438 c 128,-1,99
 387.537109375 332.522460938 387.537109375 332.522460938 387.537109375 348.150390625 c 0,80,81
387.537109375 519.646484375 m 0,100,101
 387.537109375 535.51171875 387.537109375 535.51171875 405.701171875 549.481445312 c 128,-1,102
 423.864257812 563.454101562 423.864257812 563.454101562 455.83203125 573.75390625 c 128,-1,103
 487.80078125 584.053710938 487.80078125 584.053710938 531.029296875 589.97265625 c 128,-1,104
 574.2578125 595.892578125 574.2578125 595.892578125 624.388671875 595.892578125 c 256,105,106
 674.51953125 595.892578125 674.51953125 595.892578125 717.748046875 589.97265625 c 128,-1,107
 760.9765625 584.053710938 760.9765625 584.053710938 792.9453125 573.75390625 c 128,-1,108
 824.913085938 563.454101562 824.913085938 563.454101562 843.076171875 549.481445312 c 128,-1,109
 861.239257812 535.51171875 861.239257812 535.51171875 861.239257812 519.646484375 c 0,110,111
 861.239257812 504.018554688 861.239257812 504.018554688 843.076171875 490.166015625 c 128,-1,112
 824.913085938 476.314453125 824.913085938 476.314453125 792.9453125 466.013671875 c 128,-1,113
 760.9765625 455.713867188 760.9765625 455.713867188 717.748046875 449.67578125 c 128,-1,114
 674.51953125 443.63671875 674.51953125 443.63671875 624.388671875 443.63671875 c 256,115,116
 574.2578125 443.63671875 574.2578125 443.63671875 531.029296875 449.67578125 c 128,-1,117
 487.80078125 455.713867188 487.80078125 455.713867188 455.83203125 466.013671875 c 128,-1,118
 423.864257812 476.314453125 423.864257812 476.314453125 405.701171875 490.166015625 c 128,-1,119
 387.537109375 504.018554688 387.537109375 504.018554688 387.537109375 519.646484375 c 0,100,101
479.807617188 519.41015625 m 256,120,121
 479.807617188 509.46484375 479.807617188 509.46484375 490.706054688 500.822265625 c 128,-1,122
 501.603515625 492.1796875 501.603515625 492.1796875 521.220703125 485.78515625 c 128,-1,123
 540.8359375 479.391601562 540.8359375 479.391601562 567.35546875 475.721679688 c 128,-1,124
 593.874023438 472.051757812 593.874023438 472.051757812 624.388671875 472.051757812 c 256,125,126
 654.90234375 472.051757812 654.90234375 472.051757812 681.057617188 475.721679688 c 128,-1,127
 707.213867188 479.391601562 707.213867188 479.391601562 726.829101562 485.78515625 c 128,-1,128
 746.446289062 492.1796875 746.446289062 492.1796875 757.345703125 500.822265625 c 128,-1,129
 768.2421875 509.46484375 768.2421875 509.46484375 768.2421875 519.41015625 c 256,130,131
 768.2421875 529.35546875 768.2421875 529.35546875 757.345703125 538.116210938 c 128,-1,132
 746.446289062 546.877929688 746.446289062 546.877929688 726.829101562 553.389648438 c 128,-1,133
 707.213867188 559.901367188 707.213867188 559.901367188 681.057617188 563.571289062 c 128,-1,134
 654.90234375 567.2421875 654.90234375 567.2421875 624.388671875 567.2421875 c 256,135,136
 593.874023438 567.2421875 593.874023438 567.2421875 567.35546875 563.571289062 c 128,-1,137
 540.8359375 559.901367188 540.8359375 559.901367188 521.220703125 553.389648438 c 128,-1,138
 501.603515625 546.877929688 501.603515625 546.877929688 490.706054688 538.116210938 c 128,-1,139
 479.807617188 529.35546875 479.807617188 529.35546875 479.807617188 519.41015625 c 256,120,121
EndSplineSet
EndChar

StartChar: uni0095
Encoding: 149 149 101
Width: 1209
VWidth: 2000
Flags: W
LayerCount: 2
Fore
SplineSet
387.537109375 3.5859375 m 0,0,1
 387.537109375 19.451171875 387.537109375 19.451171875 405.701171875 33.4208984375 c 128,-1,2
 423.864257812 47.3916015625 423.864257812 47.3916015625 455.83203125 57.693359375 c 128,-1,3
 487.80078125 67.9921875 487.80078125 67.9921875 531.029296875 73.912109375 c 128,-1,4
 574.2578125 79.8310546875 574.2578125 79.8310546875 624.388671875 79.8310546875 c 256,5,6
 674.51953125 79.8310546875 674.51953125 79.8310546875 717.748046875 73.912109375 c 128,-1,7
 760.9765625 67.9921875 760.9765625 67.9921875 792.9453125 57.693359375 c 128,-1,8
 824.913085938 47.3916015625 824.913085938 47.3916015625 843.076171875 33.4208984375 c 128,-1,9
 861.239257812 19.451171875 861.239257812 19.451171875 861.239257812 3.5859375 c 0,10,11
 861.239257812 -12.04296875 861.239257812 -12.04296875 843.076171875 -25.8955078125 c 128,-1,12
 824.913085938 -39.7470703125 824.913085938 -39.7470703125 792.9453125 -50.0478515625 c 128,-1,13
 760.9765625 -60.3466796875 760.9765625 -60.3466796875 717.748046875 -66.3857421875 c 128,-1,14
 674.51953125 -72.423828125 674.51953125 -72.423828125 624.388671875 -72.423828125 c 256,15,16
 574.2578125 -72.423828125 574.2578125 -72.423828125 531.029296875 -66.3857421875 c 128,-1,17
 487.80078125 -60.3466796875 487.80078125 -60.3466796875 455.83203125 -50.0478515625 c 128,-1,18
 423.864257812 -39.7470703125 423.864257812 -39.7470703125 405.701171875 -25.8955078125 c 128,-1,19
 387.537109375 -12.04296875 387.537109375 -12.04296875 387.537109375 3.5859375 c 0,0,1
387.537109375 175.08203125 m 0,20,21
 387.537109375 190.947265625 387.537109375 190.947265625 405.701171875 204.916992188 c 128,-1,22
 423.864257812 218.888671875 423.864257812 218.888671875 455.83203125 229.188476562 c 128,-1,23
 487.80078125 239.489257812 487.80078125 239.489257812 531.029296875 245.408203125 c 128,-1,24
 574.2578125 251.327148438 574.2578125 251.327148438 624.388671875 251.327148438 c 256,25,26
 674.51953125 251.327148438 674.51953125 251.327148438 717.748046875 245.408203125 c 128,-1,27
 760.9765625 239.489257812 760.9765625 239.489257812 792.9453125 229.188476562 c 128,-1,28
 824.913085938 218.888671875 824.913085938 218.888671875 843.076171875 204.916992188 c 128,-1,29
 861.239257812 190.947265625 861.239257812 190.947265625 861.239257812 175.08203125 c 0,30,31
 861.239257812 159.453125 861.239257812 159.453125 843.076171875 145.600585938 c 128,-1,32
 824.913085938 131.749023438 824.913085938 131.749023438 792.9453125 121.448242188 c 128,-1,33
 760.9765625 111.1484375 760.9765625 111.1484375 717.748046875 105.110351562 c 128,-1,34
 674.51953125 99.072265625 674.51953125 99.072265625 624.388671875 99.072265625 c 256,35,36
 574.2578125 99.072265625 574.2578125 99.072265625 531.029296875 105.110351562 c 128,-1,37
 487.80078125 111.1484375 487.80078125 111.1484375 455.83203125 121.448242188 c 128,-1,38
 423.864257812 131.749023438 423.864257812 131.749023438 405.701171875 145.600585938 c 128,-1,39
 387.537109375 159.453125 387.537109375 159.453125 387.537109375 175.08203125 c 0,20,21
479.807617188 174.845703125 m 256,40,41
 479.807617188 164.899414062 479.807617188 164.899414062 490.706054688 156.2578125 c 128,-1,42
 501.603515625 147.614257812 501.603515625 147.614257812 521.220703125 141.220703125 c 128,-1,43
 540.8359375 134.827148438 540.8359375 134.827148438 567.35546875 131.157226562 c 128,-1,44
 593.874023438 127.486328125 593.874023438 127.486328125 624.388671875 127.486328125 c 256,45,46
 654.90234375 127.486328125 654.90234375 127.486328125 681.057617188 131.157226562 c 128,-1,47
 707.213867188 134.827148438 707.213867188 134.827148438 726.829101562 141.220703125 c 128,-1,48
 746.446289062 147.614257812 746.446289062 147.614257812 757.345703125 156.2578125 c 128,-1,49
 768.2421875 164.899414062 768.2421875 164.899414062 768.2421875 174.845703125 c 256,50,51
 768.2421875 184.7890625 768.2421875 184.7890625 757.345703125 193.55078125 c 128,-1,52
 746.446289062 202.313476562 746.446289062 202.313476562 726.829101562 208.82421875 c 128,-1,53
 707.213867188 215.3359375 707.213867188 215.3359375 681.057617188 219.005859375 c 128,-1,54
 654.90234375 222.67578125 654.90234375 222.67578125 624.388671875 222.67578125 c 256,55,56
 593.874023438 222.67578125 593.874023438 222.67578125 567.35546875 219.005859375 c 128,-1,57
 540.8359375 215.3359375 540.8359375 215.3359375 521.220703125 208.82421875 c 128,-1,58
 501.603515625 202.313476562 501.603515625 202.313476562 490.706054688 193.55078125 c 128,-1,59
 479.807617188 184.7890625 479.807617188 184.7890625 479.807617188 174.845703125 c 256,40,41
387.537109375 348.150390625 m 0,60,61
 387.537109375 364.015625 387.537109375 364.015625 405.701171875 377.986328125 c 128,-1,62
 423.864257812 391.95703125 423.864257812 391.95703125 455.83203125 402.2578125 c 128,-1,63
 487.80078125 412.557617188 487.80078125 412.557617188 531.029296875 418.477539062 c 128,-1,64
 574.2578125 424.397460938 574.2578125 424.397460938 624.388671875 424.397460938 c 256,65,66
 674.51953125 424.397460938 674.51953125 424.397460938 717.748046875 418.477539062 c 128,-1,67
 760.9765625 412.557617188 760.9765625 412.557617188 792.9453125 402.2578125 c 128,-1,68
 824.913085938 391.95703125 824.913085938 391.95703125 843.076171875 377.986328125 c 128,-1,69
 861.239257812 364.015625 861.239257812 364.015625 861.239257812 348.150390625 c 0,70,71
 861.239257812 332.522460938 861.239257812 332.522460938 843.076171875 318.670898438 c 128,-1,72
 824.913085938 304.819335938 824.913085938 304.819335938 792.9453125 294.517578125 c 128,-1,73
 760.9765625 284.217773438 760.9765625 284.217773438 717.748046875 278.1796875 c 128,-1,74
 674.51953125 272.140625 674.51953125 272.140625 624.388671875 272.140625 c 256,75,76
 574.2578125 272.140625 574.2578125 272.140625 531.029296875 278.1796875 c 128,-1,77
 487.80078125 284.217773438 487.80078125 284.217773438 455.83203125 294.517578125 c 128,-1,78
 423.864257812 304.819335938 423.864257812 304.819335938 405.701171875 318.670898438 c 128,-1,79
 387.537109375 332.522460938 387.537109375 332.522460938 387.537109375 348.150390625 c 0,60,61
387.537109375 519.646484375 m 0,80,81
 387.537109375 535.51171875 387.537109375 535.51171875 405.701171875 549.481445312 c 128,-1,82
 423.864257812 563.454101562 423.864257812 563.454101562 455.83203125 573.75390625 c 128,-1,83
 487.80078125 584.053710938 487.80078125 584.053710938 531.029296875 589.97265625 c 128,-1,84
 574.2578125 595.892578125 574.2578125 595.892578125 624.388671875 595.892578125 c 256,85,86
 674.51953125 595.892578125 674.51953125 595.892578125 717.748046875 589.97265625 c 128,-1,87
 760.9765625 584.053710938 760.9765625 584.053710938 792.9453125 573.75390625 c 128,-1,88
 824.913085938 563.454101562 824.913085938 563.454101562 843.076171875 549.481445312 c 128,-1,89
 861.239257812 535.51171875 861.239257812 535.51171875 861.239257812 519.646484375 c 0,90,91
 861.239257812 504.018554688 861.239257812 504.018554688 843.076171875 490.166015625 c 128,-1,92
 824.913085938 476.314453125 824.913085938 476.314453125 792.9453125 466.013671875 c 128,-1,93
 760.9765625 455.713867188 760.9765625 455.713867188 717.748046875 449.67578125 c 128,-1,94
 674.51953125 443.63671875 674.51953125 443.63671875 624.388671875 443.63671875 c 256,95,96
 574.2578125 443.63671875 574.2578125 443.63671875 531.029296875 449.67578125 c 128,-1,97
 487.80078125 455.713867188 487.80078125 455.713867188 455.83203125 466.013671875 c 128,-1,98
 423.864257812 476.314453125 423.864257812 476.314453125 405.701171875 490.166015625 c 128,-1,99
 387.537109375 504.018554688 387.537109375 504.018554688 387.537109375 519.646484375 c 0,80,81
479.807617188 519.41015625 m 256,100,101
 479.807617188 509.46484375 479.807617188 509.46484375 490.706054688 500.822265625 c 128,-1,102
 501.603515625 492.1796875 501.603515625 492.1796875 521.220703125 485.78515625 c 128,-1,103
 540.8359375 479.391601562 540.8359375 479.391601562 567.35546875 475.721679688 c 128,-1,104
 593.874023438 472.051757812 593.874023438 472.051757812 624.388671875 472.051757812 c 256,105,106
 654.90234375 472.051757812 654.90234375 472.051757812 681.057617188 475.721679688 c 128,-1,107
 707.213867188 479.391601562 707.213867188 479.391601562 726.829101562 485.78515625 c 128,-1,108
 746.446289062 492.1796875 746.446289062 492.1796875 757.345703125 500.822265625 c 128,-1,109
 768.2421875 509.46484375 768.2421875 509.46484375 768.2421875 519.41015625 c 256,110,111
 768.2421875 529.35546875 768.2421875 529.35546875 757.345703125 538.116210938 c 128,-1,112
 746.446289062 546.877929688 746.446289062 546.877929688 726.829101562 553.389648438 c 128,-1,113
 707.213867188 559.901367188 707.213867188 559.901367188 681.057617188 563.571289062 c 128,-1,114
 654.90234375 567.2421875 654.90234375 567.2421875 624.388671875 567.2421875 c 256,115,116
 593.874023438 567.2421875 593.874023438 567.2421875 567.35546875 563.571289062 c 128,-1,117
 540.8359375 559.901367188 540.8359375 559.901367188 521.220703125 553.389648438 c 128,-1,118
 501.603515625 546.877929688 501.603515625 546.877929688 490.706054688 538.116210938 c 128,-1,119
 479.807617188 529.35546875 479.807617188 529.35546875 479.807617188 519.41015625 c 256,100,101
EndSplineSet
EndChar

StartChar: uni0096
Encoding: 150 150 102
Width: 1209
VWidth: 2000
Flags: W
LayerCount: 2
Fore
SplineSet
387.537109375 3.5859375 m 0,0,1
 387.537109375 19.451171875 387.537109375 19.451171875 405.701171875 33.4208984375 c 128,-1,2
 423.864257812 47.3916015625 423.864257812 47.3916015625 455.83203125 57.693359375 c 128,-1,3
 487.80078125 67.9921875 487.80078125 67.9921875 531.029296875 73.912109375 c 128,-1,4
 574.2578125 79.8310546875 574.2578125 79.8310546875 624.388671875 79.8310546875 c 256,5,6
 674.51953125 79.8310546875 674.51953125 79.8310546875 717.748046875 73.912109375 c 128,-1,7
 760.9765625 67.9921875 760.9765625 67.9921875 792.9453125 57.693359375 c 128,-1,8
 824.913085938 47.3916015625 824.913085938 47.3916015625 843.076171875 33.4208984375 c 128,-1,9
 861.239257812 19.451171875 861.239257812 19.451171875 861.239257812 3.5859375 c 0,10,11
 861.239257812 -12.04296875 861.239257812 -12.04296875 843.076171875 -25.8955078125 c 128,-1,12
 824.913085938 -39.7470703125 824.913085938 -39.7470703125 792.9453125 -50.0478515625 c 128,-1,13
 760.9765625 -60.3466796875 760.9765625 -60.3466796875 717.748046875 -66.3857421875 c 128,-1,14
 674.51953125 -72.423828125 674.51953125 -72.423828125 624.388671875 -72.423828125 c 256,15,16
 574.2578125 -72.423828125 574.2578125 -72.423828125 531.029296875 -66.3857421875 c 128,-1,17
 487.80078125 -60.3466796875 487.80078125 -60.3466796875 455.83203125 -50.0478515625 c 128,-1,18
 423.864257812 -39.7470703125 423.864257812 -39.7470703125 405.701171875 -25.8955078125 c 128,-1,19
 387.537109375 -12.04296875 387.537109375 -12.04296875 387.537109375 3.5859375 c 0,0,1
479.807617188 3.3486328125 m 256,20,21
 479.807617188 -6.5966796875 479.807617188 -6.5966796875 490.706054688 -15.2392578125 c 128,-1,22
 501.603515625 -23.8818359375 501.603515625 -23.8818359375 521.220703125 -30.275390625 c 128,-1,23
 540.8359375 -36.6689453125 540.8359375 -36.6689453125 567.35546875 -40.3388671875 c 128,-1,24
 593.874023438 -44.0087890625 593.874023438 -44.0087890625 624.388671875 -44.0087890625 c 256,25,26
 654.90234375 -44.0087890625 654.90234375 -44.0087890625 681.057617188 -40.3388671875 c 128,-1,27
 707.213867188 -36.6689453125 707.213867188 -36.6689453125 726.829101562 -30.275390625 c 128,-1,28
 746.446289062 -23.8818359375 746.446289062 -23.8818359375 757.345703125 -15.2392578125 c 128,-1,29
 768.2421875 -6.5966796875 768.2421875 -6.5966796875 768.2421875 3.3486328125 c 256,30,31
 768.2421875 13.294921875 768.2421875 13.294921875 757.345703125 22.0546875 c 128,-1,32
 746.446289062 30.81640625 746.446289062 30.81640625 726.829101562 37.328125 c 128,-1,33
 707.213867188 43.8408203125 707.213867188 43.8408203125 681.057617188 47.509765625 c 128,-1,34
 654.90234375 51.1806640625 654.90234375 51.1806640625 624.388671875 51.1806640625 c 256,35,36
 593.874023438 51.1806640625 593.874023438 51.1806640625 567.35546875 47.509765625 c 128,-1,37
 540.8359375 43.8408203125 540.8359375 43.8408203125 521.220703125 37.328125 c 128,-1,38
 501.603515625 30.81640625 501.603515625 30.81640625 490.706054688 22.0546875 c 128,-1,39
 479.807617188 13.294921875 479.807617188 13.294921875 479.807617188 3.3486328125 c 256,20,21
387.537109375 175.08203125 m 0,40,41
 387.537109375 190.947265625 387.537109375 190.947265625 405.701171875 204.916992188 c 128,-1,42
 423.864257812 218.888671875 423.864257812 218.888671875 455.83203125 229.188476562 c 128,-1,43
 487.80078125 239.489257812 487.80078125 239.489257812 531.029296875 245.408203125 c 128,-1,44
 574.2578125 251.327148438 574.2578125 251.327148438 624.388671875 251.327148438 c 256,45,46
 674.51953125 251.327148438 674.51953125 251.327148438 717.748046875 245.408203125 c 128,-1,47
 760.9765625 239.489257812 760.9765625 239.489257812 792.9453125 229.188476562 c 128,-1,48
 824.913085938 218.888671875 824.913085938 218.888671875 843.076171875 204.916992188 c 128,-1,49
 861.239257812 190.947265625 861.239257812 190.947265625 861.239257812 175.08203125 c 0,50,51
 861.239257812 159.453125 861.239257812 159.453125 843.076171875 145.600585938 c 128,-1,52
 824.913085938 131.749023438 824.913085938 131.749023438 792.9453125 121.448242188 c 128,-1,53
 760.9765625 111.1484375 760.9765625 111.1484375 717.748046875 105.110351562 c 128,-1,54
 674.51953125 99.072265625 674.51953125 99.072265625 624.388671875 99.072265625 c 256,55,56
 574.2578125 99.072265625 574.2578125 99.072265625 531.029296875 105.110351562 c 128,-1,57
 487.80078125 111.1484375 487.80078125 111.1484375 455.83203125 121.448242188 c 128,-1,58
 423.864257812 131.749023438 423.864257812 131.749023438 405.701171875 145.600585938 c 128,-1,59
 387.537109375 159.453125 387.537109375 159.453125 387.537109375 175.08203125 c 0,40,41
387.537109375 348.150390625 m 0,60,61
 387.537109375 364.015625 387.537109375 364.015625 405.701171875 377.986328125 c 128,-1,62
 423.864257812 391.95703125 423.864257812 391.95703125 455.83203125 402.2578125 c 128,-1,63
 487.80078125 412.557617188 487.80078125 412.557617188 531.029296875 418.477539062 c 128,-1,64
 574.2578125 424.397460938 574.2578125 424.397460938 624.388671875 424.397460938 c 256,65,66
 674.51953125 424.397460938 674.51953125 424.397460938 717.748046875 418.477539062 c 128,-1,67
 760.9765625 412.557617188 760.9765625 412.557617188 792.9453125 402.2578125 c 128,-1,68
 824.913085938 391.95703125 824.913085938 391.95703125 843.076171875 377.986328125 c 128,-1,69
 861.239257812 364.015625 861.239257812 364.015625 861.239257812 348.150390625 c 0,70,71
 861.239257812 332.522460938 861.239257812 332.522460938 843.076171875 318.670898438 c 128,-1,72
 824.913085938 304.819335938 824.913085938 304.819335938 792.9453125 294.517578125 c 128,-1,73
 760.9765625 284.217773438 760.9765625 284.217773438 717.748046875 278.1796875 c 128,-1,74
 674.51953125 272.140625 674.51953125 272.140625 624.388671875 272.140625 c 256,75,76
 574.2578125 272.140625 574.2578125 272.140625 531.029296875 278.1796875 c 128,-1,77
 487.80078125 284.217773438 487.80078125 284.217773438 455.83203125 294.517578125 c 128,-1,78
 423.864257812 304.819335938 423.864257812 304.819335938 405.701171875 318.670898438 c 128,-1,79
 387.537109375 332.522460938 387.537109375 332.522460938 387.537109375 348.150390625 c 0,60,61
387.537109375 519.646484375 m 0,80,81
 387.537109375 535.51171875 387.537109375 535.51171875 405.701171875 549.481445312 c 128,-1,82
 423.864257812 563.454101562 423.864257812 563.454101562 455.83203125 573.75390625 c 128,-1,83
 487.80078125 584.053710938 487.80078125 584.053710938 531.029296875 589.97265625 c 128,-1,84
 574.2578125 595.892578125 574.2578125 595.892578125 624.388671875 595.892578125 c 256,85,86
 674.51953125 595.892578125 674.51953125 595.892578125 717.748046875 589.97265625 c 128,-1,87
 760.9765625 584.053710938 760.9765625 584.053710938 792.9453125 573.75390625 c 128,-1,88
 824.913085938 563.454101562 824.913085938 563.454101562 843.076171875 549.481445312 c 128,-1,89
 861.239257812 535.51171875 861.239257812 535.51171875 861.239257812 519.646484375 c 0,90,91
 861.239257812 504.018554688 861.239257812 504.018554688 843.076171875 490.166015625 c 128,-1,92
 824.913085938 476.314453125 824.913085938 476.314453125 792.9453125 466.013671875 c 128,-1,93
 760.9765625 455.713867188 760.9765625 455.713867188 717.748046875 449.67578125 c 128,-1,94
 674.51953125 443.63671875 674.51953125 443.63671875 624.388671875 443.63671875 c 256,95,96
 574.2578125 443.63671875 574.2578125 443.63671875 531.029296875 449.67578125 c 128,-1,97
 487.80078125 455.713867188 487.80078125 455.713867188 455.83203125 466.013671875 c 128,-1,98
 423.864257812 476.314453125 423.864257812 476.314453125 405.701171875 490.166015625 c 128,-1,99
 387.537109375 504.018554688 387.537109375 504.018554688 387.537109375 519.646484375 c 0,80,81
479.807617188 519.41015625 m 256,100,101
 479.807617188 509.46484375 479.807617188 509.46484375 490.706054688 500.822265625 c 128,-1,102
 501.603515625 492.1796875 501.603515625 492.1796875 521.220703125 485.78515625 c 128,-1,103
 540.8359375 479.391601562 540.8359375 479.391601562 567.35546875 475.721679688 c 128,-1,104
 593.874023438 472.051757812 593.874023438 472.051757812 624.388671875 472.051757812 c 256,105,106
 654.90234375 472.051757812 654.90234375 472.051757812 681.057617188 475.721679688 c 128,-1,107
 707.213867188 479.391601562 707.213867188 479.391601562 726.829101562 485.78515625 c 128,-1,108
 746.446289062 492.1796875 746.446289062 492.1796875 757.345703125 500.822265625 c 128,-1,109
 768.2421875 509.46484375 768.2421875 509.46484375 768.2421875 519.41015625 c 256,110,111
 768.2421875 529.35546875 768.2421875 529.35546875 757.345703125 538.116210938 c 128,-1,112
 746.446289062 546.877929688 746.446289062 546.877929688 726.829101562 553.389648438 c 128,-1,113
 707.213867188 559.901367188 707.213867188 559.901367188 681.057617188 563.571289062 c 128,-1,114
 654.90234375 567.2421875 654.90234375 567.2421875 624.388671875 567.2421875 c 256,115,116
 593.874023438 567.2421875 593.874023438 567.2421875 567.35546875 563.571289062 c 128,-1,117
 540.8359375 559.901367188 540.8359375 559.901367188 521.220703125 553.389648438 c 128,-1,118
 501.603515625 546.877929688 501.603515625 546.877929688 490.706054688 538.116210938 c 128,-1,119
 479.807617188 529.35546875 479.807617188 529.35546875 479.807617188 519.41015625 c 256,100,101
EndSplineSet
EndChar

StartChar: uni0097
Encoding: 151 151 103
Width: 1209
VWidth: 2000
Flags: W
LayerCount: 2
Fore
SplineSet
387.537109375 3.5859375 m 0,0,1
 387.537109375 19.451171875 387.537109375 19.451171875 405.701171875 33.4208984375 c 128,-1,2
 423.864257812 47.3916015625 423.864257812 47.3916015625 455.83203125 57.693359375 c 128,-1,3
 487.80078125 67.9921875 487.80078125 67.9921875 531.029296875 73.912109375 c 128,-1,4
 574.2578125 79.8310546875 574.2578125 79.8310546875 624.388671875 79.8310546875 c 256,5,6
 674.51953125 79.8310546875 674.51953125 79.8310546875 717.748046875 73.912109375 c 128,-1,7
 760.9765625 67.9921875 760.9765625 67.9921875 792.9453125 57.693359375 c 128,-1,8
 824.913085938 47.3916015625 824.913085938 47.3916015625 843.076171875 33.4208984375 c 128,-1,9
 861.239257812 19.451171875 861.239257812 19.451171875 861.239257812 3.5859375 c 0,10,11
 861.239257812 -12.04296875 861.239257812 -12.04296875 843.076171875 -25.8955078125 c 128,-1,12
 824.913085938 -39.7470703125 824.913085938 -39.7470703125 792.9453125 -50.0478515625 c 128,-1,13
 760.9765625 -60.3466796875 760.9765625 -60.3466796875 717.748046875 -66.3857421875 c 128,-1,14
 674.51953125 -72.423828125 674.51953125 -72.423828125 624.388671875 -72.423828125 c 256,15,16
 574.2578125 -72.423828125 574.2578125 -72.423828125 531.029296875 -66.3857421875 c 128,-1,17
 487.80078125 -60.3466796875 487.80078125 -60.3466796875 455.83203125 -50.0478515625 c 128,-1,18
 423.864257812 -39.7470703125 423.864257812 -39.7470703125 405.701171875 -25.8955078125 c 128,-1,19
 387.537109375 -12.04296875 387.537109375 -12.04296875 387.537109375 3.5859375 c 0,0,1
387.537109375 175.08203125 m 0,20,21
 387.537109375 190.947265625 387.537109375 190.947265625 405.701171875 204.916992188 c 128,-1,22
 423.864257812 218.888671875 423.864257812 218.888671875 455.83203125 229.188476562 c 128,-1,23
 487.80078125 239.489257812 487.80078125 239.489257812 531.029296875 245.408203125 c 128,-1,24
 574.2578125 251.327148438 574.2578125 251.327148438 624.388671875 251.327148438 c 256,25,26
 674.51953125 251.327148438 674.51953125 251.327148438 717.748046875 245.408203125 c 128,-1,27
 760.9765625 239.489257812 760.9765625 239.489257812 792.9453125 229.188476562 c 128,-1,28
 824.913085938 218.888671875 824.913085938 218.888671875 843.076171875 204.916992188 c 128,-1,29
 861.239257812 190.947265625 861.239257812 190.947265625 861.239257812 175.08203125 c 0,30,31
 861.239257812 159.453125 861.239257812 159.453125 843.076171875 145.600585938 c 128,-1,32
 824.913085938 131.749023438 824.913085938 131.749023438 792.9453125 121.448242188 c 128,-1,33
 760.9765625 111.1484375 760.9765625 111.1484375 717.748046875 105.110351562 c 128,-1,34
 674.51953125 99.072265625 674.51953125 99.072265625 624.388671875 99.072265625 c 256,35,36
 574.2578125 99.072265625 574.2578125 99.072265625 531.029296875 105.110351562 c 128,-1,37
 487.80078125 111.1484375 487.80078125 111.1484375 455.83203125 121.448242188 c 128,-1,38
 423.864257812 131.749023438 423.864257812 131.749023438 405.701171875 145.600585938 c 128,-1,39
 387.537109375 159.453125 387.537109375 159.453125 387.537109375 175.08203125 c 0,20,21
387.537109375 348.150390625 m 0,40,41
 387.537109375 364.015625 387.537109375 364.015625 405.701171875 377.986328125 c 128,-1,42
 423.864257812 391.95703125 423.864257812 391.95703125 455.83203125 402.2578125 c 128,-1,43
 487.80078125 412.557617188 487.80078125 412.557617188 531.029296875 418.477539062 c 128,-1,44
 574.2578125 424.397460938 574.2578125 424.397460938 624.388671875 424.397460938 c 256,45,46
 674.51953125 424.397460938 674.51953125 424.397460938 717.748046875 418.477539062 c 128,-1,47
 760.9765625 412.557617188 760.9765625 412.557617188 792.9453125 402.2578125 c 128,-1,48
 824.913085938 391.95703125 824.913085938 391.95703125 843.076171875 377.986328125 c 128,-1,49
 861.239257812 364.015625 861.239257812 364.015625 861.239257812 348.150390625 c 0,50,51
 861.239257812 332.522460938 861.239257812 332.522460938 843.076171875 318.670898438 c 128,-1,52
 824.913085938 304.819335938 824.913085938 304.819335938 792.9453125 294.517578125 c 128,-1,53
 760.9765625 284.217773438 760.9765625 284.217773438 717.748046875 278.1796875 c 128,-1,54
 674.51953125 272.140625 674.51953125 272.140625 624.388671875 272.140625 c 256,55,56
 574.2578125 272.140625 574.2578125 272.140625 531.029296875 278.1796875 c 128,-1,57
 487.80078125 284.217773438 487.80078125 284.217773438 455.83203125 294.517578125 c 128,-1,58
 423.864257812 304.819335938 423.864257812 304.819335938 405.701171875 318.670898438 c 128,-1,59
 387.537109375 332.522460938 387.537109375 332.522460938 387.537109375 348.150390625 c 0,40,41
387.537109375 519.646484375 m 0,60,61
 387.537109375 535.51171875 387.537109375 535.51171875 405.701171875 549.481445312 c 128,-1,62
 423.864257812 563.454101562 423.864257812 563.454101562 455.83203125 573.75390625 c 128,-1,63
 487.80078125 584.053710938 487.80078125 584.053710938 531.029296875 589.97265625 c 128,-1,64
 574.2578125 595.892578125 574.2578125 595.892578125 624.388671875 595.892578125 c 256,65,66
 674.51953125 595.892578125 674.51953125 595.892578125 717.748046875 589.97265625 c 128,-1,67
 760.9765625 584.053710938 760.9765625 584.053710938 792.9453125 573.75390625 c 128,-1,68
 824.913085938 563.454101562 824.913085938 563.454101562 843.076171875 549.481445312 c 128,-1,69
 861.239257812 535.51171875 861.239257812 535.51171875 861.239257812 519.646484375 c 0,70,71
 861.239257812 504.018554688 861.239257812 504.018554688 843.076171875 490.166015625 c 128,-1,72
 824.913085938 476.314453125 824.913085938 476.314453125 792.9453125 466.013671875 c 128,-1,73
 760.9765625 455.713867188 760.9765625 455.713867188 717.748046875 449.67578125 c 128,-1,74
 674.51953125 443.63671875 674.51953125 443.63671875 624.388671875 443.63671875 c 256,75,76
 574.2578125 443.63671875 574.2578125 443.63671875 531.029296875 449.67578125 c 128,-1,77
 487.80078125 455.713867188 487.80078125 455.713867188 455.83203125 466.013671875 c 128,-1,78
 423.864257812 476.314453125 423.864257812 476.314453125 405.701171875 490.166015625 c 128,-1,79
 387.537109375 504.018554688 387.537109375 504.018554688 387.537109375 519.646484375 c 0,60,61
479.807617188 519.41015625 m 256,80,81
 479.807617188 509.46484375 479.807617188 509.46484375 490.706054688 500.822265625 c 128,-1,82
 501.603515625 492.1796875 501.603515625 492.1796875 521.220703125 485.78515625 c 128,-1,83
 540.8359375 479.391601562 540.8359375 479.391601562 567.35546875 475.721679688 c 128,-1,84
 593.874023438 472.051757812 593.874023438 472.051757812 624.388671875 472.051757812 c 256,85,86
 654.90234375 472.051757812 654.90234375 472.051757812 681.057617188 475.721679688 c 128,-1,87
 707.213867188 479.391601562 707.213867188 479.391601562 726.829101562 485.78515625 c 128,-1,88
 746.446289062 492.1796875 746.446289062 492.1796875 757.345703125 500.822265625 c 128,-1,89
 768.2421875 509.46484375 768.2421875 509.46484375 768.2421875 519.41015625 c 256,90,91
 768.2421875 529.35546875 768.2421875 529.35546875 757.345703125 538.116210938 c 128,-1,92
 746.446289062 546.877929688 746.446289062 546.877929688 726.829101562 553.389648438 c 128,-1,93
 707.213867188 559.901367188 707.213867188 559.901367188 681.057617188 563.571289062 c 128,-1,94
 654.90234375 567.2421875 654.90234375 567.2421875 624.388671875 567.2421875 c 256,95,96
 593.874023438 567.2421875 593.874023438 567.2421875 567.35546875 563.571289062 c 128,-1,97
 540.8359375 559.901367188 540.8359375 559.901367188 521.220703125 553.389648438 c 128,-1,98
 501.603515625 546.877929688 501.603515625 546.877929688 490.706054688 538.116210938 c 128,-1,99
 479.807617188 529.35546875 479.807617188 529.35546875 479.807617188 519.41015625 c 256,80,81
EndSplineSet
EndChar

StartChar: uni0098
Encoding: 152 152 104
Width: 1209
VWidth: 2000
Flags: W
LayerCount: 2
Fore
SplineSet
387.537109375 3.5859375 m 0,0,1
 387.537109375 19.451171875 387.537109375 19.451171875 405.701171875 33.4208984375 c 128,-1,2
 423.864257812 47.3916015625 423.864257812 47.3916015625 455.83203125 57.693359375 c 128,-1,3
 487.80078125 67.9921875 487.80078125 67.9921875 531.029296875 73.912109375 c 128,-1,4
 574.2578125 79.8310546875 574.2578125 79.8310546875 624.388671875 79.8310546875 c 256,5,6
 674.51953125 79.8310546875 674.51953125 79.8310546875 717.748046875 73.912109375 c 128,-1,7
 760.9765625 67.9921875 760.9765625 67.9921875 792.9453125 57.693359375 c 128,-1,8
 824.913085938 47.3916015625 824.913085938 47.3916015625 843.076171875 33.4208984375 c 128,-1,9
 861.239257812 19.451171875 861.239257812 19.451171875 861.239257812 3.5859375 c 0,10,11
 861.239257812 -12.04296875 861.239257812 -12.04296875 843.076171875 -25.8955078125 c 128,-1,12
 824.913085938 -39.7470703125 824.913085938 -39.7470703125 792.9453125 -50.0478515625 c 128,-1,13
 760.9765625 -60.3466796875 760.9765625 -60.3466796875 717.748046875 -66.3857421875 c 128,-1,14
 674.51953125 -72.423828125 674.51953125 -72.423828125 624.388671875 -72.423828125 c 256,15,16
 574.2578125 -72.423828125 574.2578125 -72.423828125 531.029296875 -66.3857421875 c 128,-1,17
 487.80078125 -60.3466796875 487.80078125 -60.3466796875 455.83203125 -50.0478515625 c 128,-1,18
 423.864257812 -39.7470703125 423.864257812 -39.7470703125 405.701171875 -25.8955078125 c 128,-1,19
 387.537109375 -12.04296875 387.537109375 -12.04296875 387.537109375 3.5859375 c 0,0,1
479.807617188 3.3486328125 m 256,20,21
 479.807617188 -6.5966796875 479.807617188 -6.5966796875 490.706054688 -15.2392578125 c 128,-1,22
 501.603515625 -23.8818359375 501.603515625 -23.8818359375 521.220703125 -30.275390625 c 128,-1,23
 540.8359375 -36.6689453125 540.8359375 -36.6689453125 567.35546875 -40.3388671875 c 128,-1,24
 593.874023438 -44.0087890625 593.874023438 -44.0087890625 624.388671875 -44.0087890625 c 256,25,26
 654.90234375 -44.0087890625 654.90234375 -44.0087890625 681.057617188 -40.3388671875 c 128,-1,27
 707.213867188 -36.6689453125 707.213867188 -36.6689453125 726.829101562 -30.275390625 c 128,-1,28
 746.446289062 -23.8818359375 746.446289062 -23.8818359375 757.345703125 -15.2392578125 c 128,-1,29
 768.2421875 -6.5966796875 768.2421875 -6.5966796875 768.2421875 3.3486328125 c 256,30,31
 768.2421875 13.294921875 768.2421875 13.294921875 757.345703125 22.0546875 c 128,-1,32
 746.446289062 30.81640625 746.446289062 30.81640625 726.829101562 37.328125 c 128,-1,33
 707.213867188 43.8408203125 707.213867188 43.8408203125 681.057617188 47.509765625 c 128,-1,34
 654.90234375 51.1806640625 654.90234375 51.1806640625 624.388671875 51.1806640625 c 256,35,36
 593.874023438 51.1806640625 593.874023438 51.1806640625 567.35546875 47.509765625 c 128,-1,37
 540.8359375 43.8408203125 540.8359375 43.8408203125 521.220703125 37.328125 c 128,-1,38
 501.603515625 30.81640625 501.603515625 30.81640625 490.706054688 22.0546875 c 128,-1,39
 479.807617188 13.294921875 479.807617188 13.294921875 479.807617188 3.3486328125 c 256,20,21
387.537109375 175.08203125 m 0,40,41
 387.537109375 190.947265625 387.537109375 190.947265625 405.701171875 204.916992188 c 128,-1,42
 423.864257812 218.888671875 423.864257812 218.888671875 455.83203125 229.188476562 c 128,-1,43
 487.80078125 239.489257812 487.80078125 239.489257812 531.029296875 245.408203125 c 128,-1,44
 574.2578125 251.327148438 574.2578125 251.327148438 624.388671875 251.327148438 c 256,45,46
 674.51953125 251.327148438 674.51953125 251.327148438 717.748046875 245.408203125 c 128,-1,47
 760.9765625 239.489257812 760.9765625 239.489257812 792.9453125 229.188476562 c 128,-1,48
 824.913085938 218.888671875 824.913085938 218.888671875 843.076171875 204.916992188 c 128,-1,49
 861.239257812 190.947265625 861.239257812 190.947265625 861.239257812 175.08203125 c 0,50,51
 861.239257812 159.453125 861.239257812 159.453125 843.076171875 145.600585938 c 128,-1,52
 824.913085938 131.749023438 824.913085938 131.749023438 792.9453125 121.448242188 c 128,-1,53
 760.9765625 111.1484375 760.9765625 111.1484375 717.748046875 105.110351562 c 128,-1,54
 674.51953125 99.072265625 674.51953125 99.072265625 624.388671875 99.072265625 c 256,55,56
 574.2578125 99.072265625 574.2578125 99.072265625 531.029296875 105.110351562 c 128,-1,57
 487.80078125 111.1484375 487.80078125 111.1484375 455.83203125 121.448242188 c 128,-1,58
 423.864257812 131.749023438 423.864257812 131.749023438 405.701171875 145.600585938 c 128,-1,59
 387.537109375 159.453125 387.537109375 159.453125 387.537109375 175.08203125 c 0,40,41
479.807617188 174.845703125 m 256,60,61
 479.807617188 164.899414062 479.807617188 164.899414062 490.706054688 156.2578125 c 128,-1,62
 501.603515625 147.614257812 501.603515625 147.614257812 521.220703125 141.220703125 c 128,-1,63
 540.8359375 134.827148438 540.8359375 134.827148438 567.35546875 131.157226562 c 128,-1,64
 593.874023438 127.486328125 593.874023438 127.486328125 624.388671875 127.486328125 c 256,65,66
 654.90234375 127.486328125 654.90234375 127.486328125 681.057617188 131.157226562 c 128,-1,67
 707.213867188 134.827148438 707.213867188 134.827148438 726.829101562 141.220703125 c 128,-1,68
 746.446289062 147.614257812 746.446289062 147.614257812 757.345703125 156.2578125 c 128,-1,69
 768.2421875 164.899414062 768.2421875 164.899414062 768.2421875 174.845703125 c 256,70,71
 768.2421875 184.7890625 768.2421875 184.7890625 757.345703125 193.55078125 c 128,-1,72
 746.446289062 202.313476562 746.446289062 202.313476562 726.829101562 208.82421875 c 128,-1,73
 707.213867188 215.3359375 707.213867188 215.3359375 681.057617188 219.005859375 c 128,-1,74
 654.90234375 222.67578125 654.90234375 222.67578125 624.388671875 222.67578125 c 256,75,76
 593.874023438 222.67578125 593.874023438 222.67578125 567.35546875 219.005859375 c 128,-1,77
 540.8359375 215.3359375 540.8359375 215.3359375 521.220703125 208.82421875 c 128,-1,78
 501.603515625 202.313476562 501.603515625 202.313476562 490.706054688 193.55078125 c 128,-1,79
 479.807617188 184.7890625 479.807617188 184.7890625 479.807617188 174.845703125 c 256,60,61
387.537109375 348.150390625 m 0,80,81
 387.537109375 364.015625 387.537109375 364.015625 405.701171875 377.986328125 c 128,-1,82
 423.864257812 391.95703125 423.864257812 391.95703125 455.83203125 402.2578125 c 128,-1,83
 487.80078125 412.557617188 487.80078125 412.557617188 531.029296875 418.477539062 c 128,-1,84
 574.2578125 424.397460938 574.2578125 424.397460938 624.388671875 424.397460938 c 256,85,86
 674.51953125 424.397460938 674.51953125 424.397460938 717.748046875 418.477539062 c 128,-1,87
 760.9765625 412.557617188 760.9765625 412.557617188 792.9453125 402.2578125 c 128,-1,88
 824.913085938 391.95703125 824.913085938 391.95703125 843.076171875 377.986328125 c 128,-1,89
 861.239257812 364.015625 861.239257812 364.015625 861.239257812 348.150390625 c 0,90,91
 861.239257812 332.522460938 861.239257812 332.522460938 843.076171875 318.670898438 c 128,-1,92
 824.913085938 304.819335938 824.913085938 304.819335938 792.9453125 294.517578125 c 128,-1,93
 760.9765625 284.217773438 760.9765625 284.217773438 717.748046875 278.1796875 c 128,-1,94
 674.51953125 272.140625 674.51953125 272.140625 624.388671875 272.140625 c 256,95,96
 574.2578125 272.140625 574.2578125 272.140625 531.029296875 278.1796875 c 128,-1,97
 487.80078125 284.217773438 487.80078125 284.217773438 455.83203125 294.517578125 c 128,-1,98
 423.864257812 304.819335938 423.864257812 304.819335938 405.701171875 318.670898438 c 128,-1,99
 387.537109375 332.522460938 387.537109375 332.522460938 387.537109375 348.150390625 c 0,80,81
479.807617188 347.9140625 m 256,100,101
 479.807617188 337.96875 479.807617188 337.96875 490.706054688 329.326171875 c 128,-1,102
 501.603515625 320.68359375 501.603515625 320.68359375 521.220703125 314.290039062 c 128,-1,103
 540.8359375 307.896484375 540.8359375 307.896484375 567.35546875 304.2265625 c 128,-1,104
 593.874023438 300.555664062 593.874023438 300.555664062 624.388671875 300.555664062 c 256,105,106
 654.90234375 300.555664062 654.90234375 300.555664062 681.057617188 304.2265625 c 128,-1,107
 707.213867188 307.896484375 707.213867188 307.896484375 726.829101562 314.290039062 c 128,-1,108
 746.446289062 320.68359375 746.446289062 320.68359375 757.345703125 329.326171875 c 128,-1,109
 768.2421875 337.96875 768.2421875 337.96875 768.2421875 347.9140625 c 256,110,111
 768.2421875 357.859375 768.2421875 357.859375 757.345703125 366.620117188 c 128,-1,112
 746.446289062 375.381835938 746.446289062 375.381835938 726.829101562 381.893554688 c 128,-1,113
 707.213867188 388.404296875 707.213867188 388.404296875 681.057617188 392.075195312 c 128,-1,114
 654.90234375 395.74609375 654.90234375 395.74609375 624.388671875 395.74609375 c 256,115,116
 593.874023438 395.74609375 593.874023438 395.74609375 567.35546875 392.075195312 c 128,-1,117
 540.8359375 388.404296875 540.8359375 388.404296875 521.220703125 381.893554688 c 128,-1,118
 501.603515625 375.381835938 501.603515625 375.381835938 490.706054688 366.620117188 c 128,-1,119
 479.807617188 357.859375 479.807617188 357.859375 479.807617188 347.9140625 c 256,100,101
387.537109375 519.646484375 m 0,120,121
 387.537109375 535.51171875 387.537109375 535.51171875 405.701171875 549.481445312 c 128,-1,122
 423.864257812 563.454101562 423.864257812 563.454101562 455.83203125 573.75390625 c 128,-1,123
 487.80078125 584.053710938 487.80078125 584.053710938 531.029296875 589.97265625 c 128,-1,124
 574.2578125 595.892578125 574.2578125 595.892578125 624.388671875 595.892578125 c 256,125,126
 674.51953125 595.892578125 674.51953125 595.892578125 717.748046875 589.97265625 c 128,-1,127
 760.9765625 584.053710938 760.9765625 584.053710938 792.9453125 573.75390625 c 128,-1,128
 824.913085938 563.454101562 824.913085938 563.454101562 843.076171875 549.481445312 c 128,-1,129
 861.239257812 535.51171875 861.239257812 535.51171875 861.239257812 519.646484375 c 0,130,131
 861.239257812 504.018554688 861.239257812 504.018554688 843.076171875 490.166015625 c 128,-1,132
 824.913085938 476.314453125 824.913085938 476.314453125 792.9453125 466.013671875 c 128,-1,133
 760.9765625 455.713867188 760.9765625 455.713867188 717.748046875 449.67578125 c 128,-1,134
 674.51953125 443.63671875 674.51953125 443.63671875 624.388671875 443.63671875 c 256,135,136
 574.2578125 443.63671875 574.2578125 443.63671875 531.029296875 449.67578125 c 128,-1,137
 487.80078125 455.713867188 487.80078125 455.713867188 455.83203125 466.013671875 c 128,-1,138
 423.864257812 476.314453125 423.864257812 476.314453125 405.701171875 490.166015625 c 128,-1,139
 387.537109375 504.018554688 387.537109375 504.018554688 387.537109375 519.646484375 c 0,120,121
EndSplineSet
EndChar

